<svg width="85" height="84" viewBox="0 0 85 84" xmlns="http://www.w3.org/2000/svg"><path d="M42.667 84c-23.196 0-42-18.804-42-42s18.804-42 42-42 42 18.804 42 42-18.804 42-42 42zm0-2c22.091 0 40-17.909 40-40s-17.909-40-40-40c-22.092 0-40 17.909-40 40s17.908 40 40 40zm6.438-24.045a1 1 0 0 0-1 1v.93c0 2.28-2.29 4.13-5.1 4.13-2.81 0-5.1-1.85-5.1-4.13v-.93a1 1 0 1 0-2 0v.93c0 3.38 3.18 6.13 7.1 6.13 3.92 0 7.1-2.75 7.1-6.13v-.93a1 1 0 0 0-1-1zm12.63-5.79a3.42 3.42 0 0 0-2.65-1.26h-.16a.89.89 0 0 1-.89-.89v-13.21a15.13 15.13 0 0 0-9.91-14.09 5.23 5.23 0 0 0-4.52-4.69 5.12 5.12 0 0 0-5.61 4.67 15.13 15.13 0 0 0-9.9 14.09v13.24a.89.89 0 0 1-.89.89 3.49 3.49 0 0 0-3.47 2.74 3.43 3.43 0 0 0 3.36 4.11h31.89a3.49 3.49 0 0 0 3.46-2.74 3.42 3.42 0 0 0-.71-2.86zm-1.25 2.46a1.51 1.51 0 0 1-1.5 1.13h-31.91a1.43 1.43 0 0 1-1.4-1.73 1.51 1.51 0 0 1 1.5-1.13 2.89 2.89 0 0 0 2.89-2.87v-13.22a13.1 13.1 0 0 1 9.18-12.41 1 1 0 0 0 .7-1v-.27a3.11 3.11 0 0 1 1-2.3 3.07 3.07 0 0 1 2.11-.8h.32a3.24 3.24 0 0 1 2.78 3.3v.12a1 1 0 0 0 .71 1 13.1 13.1 0 0 1 9.18 12.41v13.17a2.9 2.9 0 0 0 2.89 2.89h.16a1.43 1.43 0 0 1 1.4 1.72l-.01-.01z" fill="#F26F21" fill-rule="evenodd"/></svg>