<svg xmlns="http://www.w3.org/2000/svg" width="31.488" height="23.448" viewBox="0 0 31.488 23.448"><path d="M30.209 3.246c.437 0 .858.034 1.272.093l.008-3.2c-.411-.041-.838-.065-1.261-.067-6.538-.026-11.886 5.206-11.912 11.643-.016 3.218 1.305 6.145 3.451 8.275 2.138 2.125 5.103 3.446 8.368 3.459.429.003.851-.016 1.267-.062l.013-3.195c-.416.054-.838.085-1.267.085-2.378-.01-4.537-.972-6.096-2.523-1.181-1.171-2.019-2.678-2.352-4.353l7.008.016.013-3.169-7.044-.023c.74-3.975 4.297-7 8.532-6.979zm-30.209 8.397c-.008 3.226 1.313 6.152 3.451 8.277 2.138 2.122 5.1 3.451 8.368 3.459.429.003.85-.016 1.269-.059l.013-3.198c-.416.057-.838.088-1.269.088-2.381-.01-4.534-.977-6.098-2.523-1.561-1.551-2.523-3.684-2.513-6.026.018-4.694 3.914-8.5 8.68-8.487.429.003.85.036 1.261.098l.016-3.2c-.418-.041-.842-.069-1.266-.072-6.535-.023-11.889 5.212-11.912 11.643z" fill="#fff"/></svg>