<svg xmlns="http://www.w3.org/2000/svg" width="55.233" height="24.424" viewBox="0 0 55.233 24.424"><path d="M30.922 2.763c1.58-1.071 2.745-.923 2.679-1.689-.133-1.538-2.014-1.249-3.577-.235-3.602 2.337-5.463 5.935-6.214 9.348-.922 4.184.747 7.88.747 7.88-.446-3.342-.523-4.975.509-7.994 1.554-4.547 4.212-6.196 5.856-7.31zm-2.37 7.73c2.807-3.597 5.479-4.602 7.329-5.681 1.94-1.131 4.291-1.189 4.482-2.049.384-1.726-2.669-1.742-4.111-1.159-4.561 1.844-8.296 5.534-9.982 9.098-3.022 6.389.595 10.36.595 10.36-.98-4.638-.954-7.185 1.687-10.569zm-12.609.974c.121-.582.294-1.13.514-1.628.681-1.538 2.243-2.531 3.981-2.531h3.672v-3.136h-3.672c-2.979 0-5.667 1.727-6.85 4.4-.309.7-.549 1.459-.715 2.259-.589 2.836-.894 11.662-.907 12.035l3.135.107c.049-1.454.179-4.431.367-7.075h6.416v-3.136h-6.134c.06-.518.125-.967.193-1.295zm-5.114-5.201c-.949-1.165-2.294-1.891-3.789-2.044-1.493-.155-2.958.285-4.124 1.234-1.165.948-1.89 2.294-2.043 3.789l-.843 8.228c-.316 3.084 1.937 5.852 5.022 6.169.194.02.387.029.577.029 2.845 0 5.295-2.161 5.59-5.052l.843-8.228c.153-1.495-.285-2.959-1.233-4.125zm-1.887 3.806l-.843 8.228c-.139 1.365-1.366 2.371-2.728 2.221-.661-.067-1.257-.389-1.676-.904-.42-.516-.613-1.164-.546-1.826l.843-8.228c.068-.66.389-1.256.904-1.675.515-.42 1.168-.617 1.824-.545.662.067 1.257.389 1.676.904.42.516.614 1.164.546 1.825zm29.092 12.216c-2.099.789-4.093.987-5.101.937-1.082-.053-1.309-.045-1.521.171-.211.215-.232.431-.018.738.253.362 2.086.457 4.075-.14 1.883-.565 2.787-.908 4.092-1.819 1.119-.781 1.597-1.889 1.597-1.889s-.587 1.047-3.124 2.002zm13.526-17.479h-3.369l-7.399 17.991 2.901 1.191 2.216-5.389h5.224l1.025 5.103 3.075-.619-3.673-18.277zm-4.361 10.657l2.219-5.397 1.084 5.397h-3.303zm-14.978 5.895c-1.085-.07-1.927-.029-2.132.179-.233.237-.113.571.046.815.367.563 2.378.467 4.678.012 2.392-.474 2.887-.735 4.55-1.596 1.748-.905 2.423-2.173 2.423-2.173s-1.256 1.27-4.311 2.173c-3.038.897-3.947.674-5.254.59zm6.31-13.129c4.609-1.61 7.827-.91 7.923-2.174.234-3.077-4.806-1.948-6.614-1.406-4.988 1.495-9.964 5.494-11.647 9.059-3.192 6.76 2.007 10.081 2.007 10.081-2.401-5.031-2.347-11.83 8.331-15.56zm4.162 8.192s-1.52 1.205-3.377 1.951c-2.612 1.049-6.476.964-7.439.939-1.286-.033-1.887-.434-2.34.026-.233.237-.295.572-.073.901.451.669 3.027.655 5.607.232 2.705-.443 3.941-.956 5.503-1.878 1.262-.743 2.119-2.171 2.119-2.171z" fill="#fff"/></svg>