<svg xmlns="http://www.w3.org/2000/svg" width="33.314" height="33.339" viewBox="0 0 33.314 33.339"><path d="M33.14 15.322l-.928.001v-.001h-10.761l3.029-4.973h-2.795l-2.744 4.973h-.457v-4.973h-2.618v4.973h-4.313v-4.973h-2.345v4.973h-5.712c.211-.953.559-1.951 1.14-2.532l8.151-8.151c2.112-2.112 5.536-2.112 7.648 0l7.59 7.59 3.072-.035-10.61-10.61c-2.112-2.112-5.536-2.112-7.648 0l-11.262 11.262c-1.343 1.343-1.824 3.215-1.459 4.944h.785v.001h8.305v5.051h2.344v-5.051h4.313v5.051h2.618v-5.051h.523l2.824 5.051h2.962l-3.047-5.051h7.996c-.201.992-.55 2.043-1.155 2.648l-8.151 8.151c-2.112 2.112-5.536 2.112-7.648 0l-6.751-7.361-3.582.143 10.385 10.385c2.112 2.112 5.536 2.112 7.648 0l11.262-11.262c1.402-1.404 1.852-3.381 1.391-5.173z" fill="#fff"/></svg>