<svg xmlns="http://www.w3.org/2000/svg" width="30.775" height="30.775" viewBox="0 0 30.775 30.775"><path d="M30.025 10.638l-12.322 12.178c-.866.716-1.838 1.6-3.151 1.176-.561-.184-1.21-.713-1.786-1.176-.626-.502-1.274-.951-1.458-1.554-.194-.628-.191-1.507-.284-2.303-.184-1.572-.434-3.18-.424-4.795.008-.83-.044-1.81.142-2.492.096-.352.595-.915.99-1.362.406-.468.819-.946 1.22-1.176.819-.473 2.675-.77 3.151.189.15.3.096.796.142 1.316.067.76.339 1.853.517 2.916.165.985.308 2.208 1.316 2.161.362-.016 1.026-.716 1.365-1.034 0 0 8.37-8.321 8.373-8.321-1.267-1.61-2.688-3.13-4.563-4.232-2.009-1.184-5.054-2.264-8.184-2.115-4.619.217-7.592 1.83-10.206 4.229-2.347 2.156-4.467 5.418-4.798 9.5-.465 5.734 1.621 9.658 4.516 12.55 2.862 2.864 7.311 4.994 12.605 4.374 4.979-.584 8.264-3.13 10.725-6.442 2.282-3.073 3.872-8.473 2.114-13.587z" fill="#fff"/></svg>