<svg xmlns="http://www.w3.org/2000/svg" width="32.975" height="23.449" viewBox="0 0 32.975 23.449"><path d="M22.565 19.439l-.695-.049c-3.916-.336-6.99-3.609-6.99-7.574 0-3.95 3.074-7.225 6.99-7.566h.695c2.081 0 4.017.83 5.405 2.202h5.005c-1.983-3.715-5.899-6.207-10.41-6.207h-.695c-5.356.292-9.769 4.149-10.811 9.234h-6.843v-5.325h7.489v-4.154h-10.014c-1.241.196-1.637.882-1.691 1.81v21.342h4.216v-9.572h6.695c.845 5.372 5.403 9.523 10.958 9.821.248.049.447.049.695.049 4.413 0 8.231-2.443 10.265-5.961h-5.108c-1.39 1.219-3.174 1.95-5.156 1.95zm-.696-11.622h.398c1.091 0 2.13.439 2.877 1.168h2.626c-1.044-1.952-3.125-3.319-5.503-3.319h-.398c-3.273.196-5.855 2.882-5.855 6.15 0 3.278 2.582 5.964 5.855 6.163h.398c2.324 0 4.361-1.274 5.454-3.13h-2.73c-.739.638-1.683 1.026-2.725 1.026-.15 0-.248 0-.398-.047-2.084-.147-3.717-1.905-3.717-4.012.001-2.094 1.635-3.802 3.718-3.999z" fill="#fff"/></svg>