<svg xmlns="http://www.w3.org/2000/svg" width="30.775" height="30.775" viewBox="0 0 30.775 30.775"><path d="M11.862 28.711l-.207.763-.052.326c-.052.163-.122.346-.134.52.09.101.313.122.447.124.085-.119.085-.447.145-.607.083-.222.14-.499.196-.729l.039-.227c.07-.173.142-.468.168-.667-.047-.057-.331-.124-.442-.119-.093.114-.119.461-.16.616zm-.092-2.822c.034-.026.018-.605.018-.708l.005-2.115c-.057-.127-.336-.196-.463-.264-.333-.176-.672-.403-.972-.628l-.535-.455-.259-.269c-.173-.137-.331-.315-.458-.496l-.096-.09-.279-.388-.155-.189c-.096-.129-.191-.284-.274-.421l-.085-.184c-.057-.078-.137-.191-.176-.282l-.336-.75c-.127-.274-.222-.589-.318-.889l-.052-.163v-.088c-.034-.08-.124-.39-.088-.501.028-.088.168-.078.279-.078h4.281l-.005-2.732-.01-.013h-3.34c-.256 0-1.037.049-1.176-.047-.065-.044.028-.496.044-.561.127-.512.331-.977.491-1.435.129-.37.419-.799.631-1.099l.246-.377.587-.721c.049-.07.171-.168.24-.225l.308-.328c.289-.212.545-.465.83-.688.349-.269.791-.429 1.13-.708v-2.814l-.062-.041-.23.075-.589.238-.403.217c-.3.121-.576.295-.832.468-.332.222-.67.403-.983.643-1.287.99-2.489 2.407-3.195 4.009l-.253.507c-.14.403-.31.799-.426 1.21-.088.315-.147.618-.222.933l-.119.768v.184l-.072.615.016.101-.016.116c.021.08.016.235.008.341-.018.173-.013.46.021.644l.034.473-.01.065.059.321.005.184.07.271c.07.46.191 1.026.367 1.466l.132.442c.096.222.204.45.295.69.124.331.354.633.507.938l.034.098c.23.388.514.739.765 1.106l.23.243c.153.248.383.46.595.657l.085.122c.401.372.804.781 1.267 1.081l.471.372c.489.331 1.039.628 1.613.861l.367.168.191.052c.066.035.187.11.267.068zm-7.15-9.531l-.018.013-.021-.018.01-.023.029.008v.02zm.246-1.781l-.023-.054h.039l.005.041-.021.013zm9.379 14.188c.134.057.142.238.246.321.122.023.297.021.401 0 .059-.122-.034-.321-.083-.39-.207-.3-.447-.393-.876-.401l-.196.021-.227.101c-.336.202-.476.76-.147 1.062.16.147.615.251.835.349.091.044.259.127.199.313-.088.271-.613.258-.77.062-.062-.08-.067-.24-.16-.279-.062-.026-.346-.049-.393.005-.062.168.083.419.14.502.274.372 1.23.512 1.535.072.065-.09.103-.186.145-.3l.013-.173c.06-.517-.483-.649-.866-.778-.142-.049-.308-.057-.362-.186-.145-.33.38-.376.566-.301zm-4.551.461c-.023-.155.085-.315.135-.432.121-.292.245-.558.351-.851.031-.083.197-.367.16-.46-.028-.057-.305-.173-.396-.176-.075.116-.114.24-.173.383l-.352.799-.3.737-.09.207c.171.096.359.153.543.235.171.078.341.184.54.23.057.016.313.165.367.129.023-.01.158-.336.134-.377-.031-.057-.155-.062-.212-.093-.218-.127-.487-.217-.707-.331zm21.071-13.863l-.016-.398.016-.354-.062-.659-.147-1.026v-.127l-.047-.176v-.085c-.083-.248-.111-.543-.186-.814-.171-.644-.383-1.274-.605-1.877-.132-.346-.295-.693-.445-1.034l-.088-.14c-.23-.571-.548-1.091-.858-1.577-.564-.884-1.124-1.644-1.843-2.363-.243-.24-.465-.517-.721-.742l-.659-.556c-.098-.083-.181-.173-.295-.243l-.09-.093c-.122-.088-.225-.181-.357-.253l-.067-.072-.15-.083-.269-.215-.274-.153-.067-.062c-.189-.098-.383-.184-.54-.315l-.313-.16-.341-.199c-.359-.152-.701-.352-1.065-.486l-1.326-.465-.098-.005-1.039-.284-.543-.106-.145-.008c-.196-.044-.442-.057-.646-.116l-.246-.005-.328-.047h-.173l-.354-.044-.088.021c-.353-.052-.699-.037-1.069-.042-.083.065-.357-.013-.486.021l-.323.013c-.274.029-.62.031-.876.101l-.346.034-.414.072-.507.124-.202.023-.452.142-.473.106c-.478.186-.959.331-1.435.509-.173.062-.364.168-.532.246-.396.186-.765.351-1.143.543l-.204.147-.227.101-.983.643-.987.766-.269.25-.496.432-.362.349-.08.111c-.135.111-.233.251-.357.372-.45.439-.822.972-1.223 1.466l-.028.075-.13.184-.289.426c-.122.209-.235.421-.37.618l-.3.582-.034.109c-.118.258-.245.508-.361.785-.274.641-.522 1.355-.75 2.04-.078.23-.096.483-.184.708l-.034.209c-.096.271-.119.597-.178.874l-.023.261c-.023.116-.08.32-.054.416.01.047-.047.434-.062.489l-.005.372-.018.501c-.018.103-.028.326-.005.401l-.018.119.023.189v.46l.018.349.078.535.01.292.044.253-.01.047c.06.222.08.512.158.732l.005.129c.15.615.302 1.218.509 1.791.08.227.137.452.233.644.028.054.098.194.049.243.091.072.106.178.158.295l.261.576c.31.595.646 1.166.99 1.732.189.315.445.615.659.91.84 1.137 1.892 2.252 3.058 3.045.491.333.982.669 1.525.956.116.065.406.277.543.248.093-.049.186-.408.246-.52.184-.349.315-.757.483-1.122.091-.194.256-.414.259-.68-.29-.225-.644-.385-.951-.584-.419-.271-.796-.605-1.194-.905l-.246-.24c-.264-.191-.489-.45-.714-.685-.959-.987-1.828-2.125-2.458-3.454-.129-.274-.194-.548-.305-.838l-.129-.274-.085-.328c-.19-.466-.291-1.014-.431-1.536l-.116-.695-.005-.158c-.103-.31-.065-.708-.119-1.065v-.39l.008-.383c-.01-.103-.005-.261.016-.344l.005-.354.039-.248.01-.246.106-.613v-.137l.103-.527c.098-.398.225-.832.344-1.202 1.143-3.534 3.415-5.92 6.39-7.517.333-.181.701-.331 1.047-.483l.424-.134c.504-.215 1.06-.313 1.598-.489l.124-.003.362-.096.153-.005c.132-.047.289-.054.411-.078h.113c.122-.044.383-.065.507-.049.059.01.264-.026.323-.039l.432-.008.419-.005.251.005c.093-.057.385 0 .52.008.354.016.698.039 1.016.119l.165.005.398.088h.096c.339.098.669.124.987.248l.328.075c.132.065.308.124.442.173l.295.078.432.186.093.018c.207.101.408.202.631.284l.085.072.189.075.313.189.313.16.592.372.822.608.155.155c.838.641 1.572 1.442 2.148 2.36l.375.501c.266.419.543.866.76 1.324l.217.525c.088.181.189.388.258.579l.111.318.026.142c.181.362.282.874.385 1.282l.103.499-.008.08c.059.191.132.52.124.732-.003.067.039.23.062.295v.225l.034.367-.005.189.005.494-.01.235c.018.191 0 .403-.041.618l-.023.264-.005.261-.14.954-.155.693.005.052c-.072.199-.116.421-.173.657-.034.14-.111.3-.158.429-.134.408-.253.765-.416 1.143-.372.861-.9 1.561-1.386 2.283l-.062.049-.178.259-.501.602-.357.354c-.16.186-.323.354-.509.509l-.039.065c-.14.124-.339.233-.44.396l-.302.23c-.292.222-.589.452-.9.662-.101.067-.419.204-.424.341.085.111.145.416.207.566.163.416.333.838.514 1.228.044.098.168.496.227.533.083.034.377-.202.452-.243.432-.227.796-.535 1.194-.788.282-.183.525-.403.776-.615.99-.843 1.84-1.807 2.613-2.875.134-.186.246-.388.365-.587.165-.282.367-.561.53-.856.052-.093.251-.535.323-.561-.016-.106.184-.409.24-.517l.155-.432c.114-.287.259-.607.37-.91.093-.253.16-.517.24-.776l.021-.152.134-.424v-.096l.078-.372c.085-.251.109-.556.152-.827.08-.507.134-.982.165-1.577.019-.32.05-.656.024-.974zm-12.266-7.582l.01-.005c.054-.163.016-.615.016-.827v-1.996c-.121-.088-.527-.16-.706-.207l-.282-.034-.564-.114-.189-.005c-.509-.109-1.062-.083-1.621-.096-.085.057-.556.013-.713.041-.53.093-1.109.098-1.574.269l-.124.008c-.103.036-.323.052-.396.129-.067.075-.034.566-.034.729v2.071c.111.059.297-.059.396-.085l.61-.194.212-.047.168-.005c.085-.026.153-.049.251-.023.034.116.016.305.016.45v14.176l.008 4.382c.054.093.486.085.62.106l.339.005.207.031.217-.013c.184.036.496.026.644-.018l.207.008.14-.031.251-.005.124-.072c0-4.924.003-9.852.005-14.779v-3.89c0-.101-.026-.279.01-.354.052-.083.38-.021.47.005.282.08.538.153.819.243.14.043.293.147.463.147zm2.401 19.419c-.093.067-.331.08-.452.132l-.401.171-.313.147c-.023.134.155.455.199.579l.119.295.023.129c.067.176.191.375.248.561.067.199.129.432.24.584.14 0 .336-.111.45-.165l.222-.052c.323-.114.667-.315.781-.649.08-.238.018-.566-.044-.768-.157-.512-.429-.97-1.072-.964zm.297 1.925c-.098.036-.178.103-.31.101-.114-.22-.225-.47-.328-.703-.091-.209-.127-.419-.227-.615.016-.158.349-.155.447-.24.096-.003.204-.01.279.018.106.039.165.152.23.24.271.372.47.987-.091 1.199zm-4.265-.909l-.269.026c-.318.093-.745.041-1.044.116-.085.023-.305-.003-.336.046-.047.085-.005.279.023.362.217.054.437-.059.646.023.041.259.028.543.096.814l.047.504c.041.176-.021.465.083.553.145.026.282-.028.419-.047.021-.15-.005-.362-.041-.504l-.021-.31-.028-.62c-.036-.129-.059-.305-.034-.445.142-.088.558-.026.631-.129l.005-.142c-.001-.17-.02-.247-.177-.247zm4.744-18.015l.018-2.699v-.76c0-.109.01-.251-.023-.326-.054-.111-.383-.253-.496-.323-.463-.289-.944-.558-1.486-.763-.147-.057-.372-.202-.545-.202l-.041.031v20.659c.189.052.701-.233.856-.295.778-.321 1.489-.773 2.104-1.277l.14-.078.16-.163c.212-.158.408-.334.602-.509.331-.295.602-.667.918-.98l.078-.129c.708-.783 1.347-1.91 1.716-3.045l.184-.468.145-.597.251-1.158.005-.176c.07-.23.052-.628.067-.858.036-.514.057-1.238-.034-1.758-.091-.07-.522-.049-.688-.046h-.887l-.396.005c-.127-.021-.592-.031-.688.008-.028.155.013.354.044.476l.005.282c.039.137.047.326 0 .463l.015.271c-.039.421-.065.923-.184 1.329l-.075.463c-.07.196-.119.396-.178.6l-.142.323-.207.592c-.062.186-.204.336-.29.499-.181.339-.352.646-.592.918-.085.101-.134.222-.266.271l-.039-.028c-.075-.367-.052-.869-.052-1.329v-9.223zm2.758 2.97l.005-.597.134-.021.158.3c.049.096.137.202.168.313.096.028.251.013.367.01l.008-.005-.3-.543-.049-.101c.137-.078.217-.06.297-.207l.01-.111c.057-.225-.07-.437-.251-.502-.183-.065-.589-.028-.838-.023v1.476c.03.042.237.021.291.011zm.005-1.228l.039-.023c.173 0 .282.028.398.059.062.101.044.279-.067.313h-.186l-.165-.005c-.045-.034-.021-.29-.019-.344zm-.495 1.689c.137.088.269.109.45.158.078.021.235.049.326.039.571-.07.949-.341 1.161-.804.036-.078.103-.331.096-.411-.026-.253.021-.46-.052-.664-.209-.576-.62-.925-1.383-.915l-.37.083c-.341.129-.651.427-.77.791-.239.731.077 1.434.542 1.723zm-.153-1.677c.119-.259.31-.432.566-.548l.289-.059c.419.047.742.253.871.602l.049.235c.034.103.044.227.016.321v.147l-.065.253c-.132.333-.426.53-.817.597-.114.018-.271-.039-.352-.072-.264-.111-.507-.302-.584-.602l-.023-.181c-.028-.129-.034-.279-.008-.408l.058-.285zm-4.464 17.781l-.403.098-.129.005c-.083.031-.186.065-.295.065-.08-.059-.155-.362-.15-.525.062-.096.22-.088.344-.119l.62-.168c.034-.127-.026-.271-.06-.357-.096-.034-.215.023-.292.041l-.246.028c-.127.044-.292.078-.429.09-.098-.067-.134-.246-.129-.421l.323-.075.504-.14c.062-.026.251-.021.271-.067.052-.098-.049-.308-.049-.372l-.106-.023c-.075.067-.266.054-.352.078-.297.08-.654.137-.944.235l-.199.034c-.044.031.023.47.054.543l.129.62.145.545v.093c.039.132.111.302.111.46.122.067.344-.034.458-.057.39-.085.801-.134 1.189-.261v-.225l-.044-.153c-.06-.05-.246.01-.321.028z" fill="#fff"/></svg>