<svg xmlns="http://www.w3.org/2000/svg" width="26.9" height="27.331" viewBox="0 0 26.9 27.331"><path d="M13.665 25.238c-6.381 0-11.573-5.191-11.573-11.573 0-.44.025-.874.073-1.301l10.639-2.523v3.966l14.096-3.389-.255-1.023c-1.289-5.18-7.111-9.395-12.98-9.395-7.535 0-13.665 6.13-13.665 13.665 0 7.535 6.13 13.666 13.665 13.666 5.752 0 10.921-3.636 12.865-9.047l-1.969-.707c-1.646 4.582-6.025 7.661-10.896 7.661zm0-23.145c5.069 0 9.215 3.364 10.618 6.802l-9.386 2.257v-3.958l-12.242 2.903c1.508-4.641 5.873-8.004 11.01-8.004zm1.232 21.935v-3.506h6.14v-2.093h-14.372v2.093h6.14v3.506h2.092zm6.14-9.434h-14.372v2.093h14.372v-2.093z" fill="#fff"/></svg>