<svg xmlns="http://www.w3.org/2000/svg" width="36.788" height="28.452" viewBox="0 0 36.788 28.452"><path d="M16.104 14.147c0-2.886 2.218-5.254 5.051-5.518v-2.331c-4.128.263-7.39 3.676-7.39 7.849s3.262 7.583 7.39 7.849v-2.334c-2.833-.258-5.051-2.629-5.051-5.515zm-5.988 0c0-2.886 2.221-5.254 5.051-5.518v-2.331c-4.125.263-7.39 3.676-7.39 7.849s3.264 7.583 7.39 7.849v-2.334c-2.83-.258-5.051-2.629-5.051-5.515zm9.636 0c0 4.173 3.264 7.583 7.39 7.849v-2.334c-2.833-.258-5.051-2.63-5.051-5.515 0-2.886 2.218-5.254 5.051-5.518v-2.331c-4.125.264-7.39 3.676-7.39 7.849zm-1.357-14.147c-10.157 0-18.395 6.368-18.395 14.227 0 7.856 8.238 14.225 18.395 14.225 10.16 0 18.393-6.368 18.393-14.225 0-7.859-8.233-14.227-18.393-14.227zm0 27.639c-9.58 0-17.344-6.005-17.344-13.412 0-7.41 7.764-13.417 17.344-13.417 9.58 0 17.346 6.007 17.346 13.417 0 7.408-7.766 13.412-17.346 13.412z" fill="#fff"/></svg>