<svg width="84" height="84" viewBox="0 0 84 84" xmlns="http://www.w3.org/2000/svg"><path d="M42 84C18.804 84 0 65.196 0 42S18.804 0 42 0s42 18.804 42 42-18.804 42-42 42zm0-2c22.091 0 40-17.909 40-40S64.091 2 42 2 2 19.909 2 42s17.909 40 40 40zm.27-43.59c-1.51 0-2.69 1.46-2.69 3.33s1.18 3.33 2.69 3.33 2.69-1.46 2.69-3.33-1.18-3.33-2.69-3.33zm0 4.66c-.28 0-.69-.53-.69-1.33s.42-1.33.69-1.33c.27 0 .69.53.69 1.33s-.42 1.33-.69 1.33zM59.8 64h-2.24V19a1 1 0 0 0-1-1H27.25a1 1 0 0 0-1 1v45H24a1 1 0 0 0 0 2h35.8a1 1 0 0 0 0-2zM29.03 20.35l16.75 5v32.9l-16.62 4.9-.13-42.8zM55.56 64H33.38l13.69-4a1 1 0 0 0 .72-1V24.65a1 1 0 0 0-.71-1l-12.25-3.64h20.73V64z" fill="#F26F21" fill-rule="evenodd"/></svg>