<svg width="84" height="84" viewBox="0 0 84 84" xmlns="http://www.w3.org/2000/svg"><path d="M42 84C18.804 84 0 65.196 0 42S18.804 0 42 0s42 18.804 42 42-18.804 42-42 42zm0-2c22.091 0 40-17.909 40-40S64.091 2 42 2 2 19.909 2 42s17.909 40 40 40zm26.42-27.636a1 1 0 0 0-1.4-.2l-2.56 1.93-5.47-7.31.23-.26a6.77 6.77 0 0 0 .32-8.54l-9.91-13.21-.06-.07-2.23-3a1.83 1.83 0 0 0-2.51-.36l-2.55 1.9-2.53-1.9a1.84 1.84 0 0 0-2.51.36l-2.27 3v.06l-9.92 13.2a6.77 6.77 0 0 0 .29 8.58l.26.29-5.44 7.24-2.56-1.93a1 1 0 1 0-1.2 1.6l6.67 5a1 1 0 0 0 1.2-1.6l-2.52-1.87 5.44-7.27.35.16a6.6 6.6 0 0 0 2.85.64 6.73 6.73 0 0 0 5.43-2.7l6.44-8.64 6.49 8.64a6.68 6.68 0 0 0 5.41 2.7 6.6 6.6 0 0 0 2.86-.64l.36-.17 5.47 7.31-2.51 1.88a1 1 0 1 0 1.2 1.6l6.67-5a1 1 0 0 0 .21-1.42zm-9.56-9.64a4.78 4.78 0 0 1-1.14 2.48l-.21.24a5.39 5.39 0 0 1-1 .75l-.35.17a4.63 4.63 0 0 1-2 .45 4.7 4.7 0 0 1-3.82-1.9l-7.3-9.72a1 1 0 0 0-1.6 0l-7.23 9.71a4.76 4.76 0 0 1-3.15 1.86 4.88 4.88 0 0 1-2.67-.41l-.18-.09-1.24-.91-.14-.17a4.77 4.77 0 0 1-.23-6l9.92-13.19v-.06l2.15-2.86 3 2.23a1 1 0 0 0 1.2 0l3-2.23 2.17 2.88.06.07 9.84 13.15a4.79 4.79 0 0 1 .92 3.54v.01z" fill="#F26F21" fill-rule="evenodd"/></svg>