<?xml version="1.0" encoding="UTF-8" standalone="no"?>
<svg width="648px" height="133px" viewBox="0 0 648 133" version="1.1" xmlns="http://www.w3.org/2000/svg" xmlns:xlink="http://www.w3.org/1999/xlink">
    <!-- Generator: Sketch 41.2 (35397) - http://www.bohemiancoding.com/sketch -->
    <title>Group 34</title>
    <desc>Created with Sketch.</desc>
    <defs>
        <polygon id="path-1" points="110.503424 133.014186 110.503424 0.0465116279 0.000161977594 0.0465116279 0.000161977594 133.014186"></polygon>
    </defs>
    <g id="Page-1" stroke="none" stroke-width="1" fill="none" fill-rule="evenodd">
        <g id="Group-34">
            <g id="Page-1-Copy-2">
                <path d="M75.3748642,29.1007093 C74.9392415,29.1007093 74.498383,29.1373372 74.0648547,29.210593 C72.000883,29.5590814 70.1966094,30.6882674 68.9829396,32.3930349 C67.7692698,34.0967558 67.2938547,36.1709419 67.6415151,38.2325698 C68.2792415,42.0157093 71.5254679,44.7617558 75.3581094,44.7617558 C75.7947792,44.7617558 76.2356377,44.7240814 76.669166,44.6508256 C80.9301,43.9329186 83.8108642,39.8850116 83.0914585,35.6288488 C82.4537321,31.8457093 79.2075057,29.1007093 75.3748642,29.1007093 Z" id="Fill-1" fill="#14DD7B"></path>
                <mask id="mask-2" fill="white">
                    <use xlink:href="#path-1"></use>
                </mask>
                <g id="Clip-4"></g>
                <path d="M100.491232,21.6846047 C100.488091,21.6804186 100.485996,21.675186 100.482855,21.671 C92.7034302,9.6832093 81.2337792,2.15460465 68.1881377,0.470767442 C65.9964113,0.189255814 63.8141094,0.0458837209 61.7019679,0.0458837209 C50.5726472,0.0458837209 40.8130245,4.0665814 34.2095717,11.368093 C33.8304962,11.6223953 33.4786472,11.9216977 33.1665906,12.2544884 L19.941883,26.168907 C0.284411321,47.010186 -4.8729,81.0061163 4.61550566,127.213791 L4.73697736,127.808209 L4.82808113,127.796698 C5.37889245,130.814837 7.93817547,133.014605 11.0336094,133.014605 C14.5541943,133.014605 17.4182038,130.152395 17.4182038,126.634023 C17.4182038,126.533558 17.4087792,126.436233 17.3962132,126.345186 L17.450666,126.339953 L17.2946377,125.612628 C9.54034528,89.6973953 11.3980245,62.0925116 22.8058925,43.4196047 C23.6300151,42.4735581 25.0342698,41.2606512 25.5212038,43.2532093 C25.5693736,43.446814 25.6416283,43.6048372 25.7306377,43.7398372 C27.4637038,53.0171628 32.2984868,61.7398372 39.465317,68.2794884 C43.9273075,72.3483256 48.3714962,76.1126279 52.6701283,79.7513488 L52.7811283,79.8455349 C70.4395528,94.7865814 84.3868075,106.344256 85.3460151,126.869488 L85.3753358,127.250419 L85.5418358,127.250419 C86.0685623,130.389953 88.6435528,132.770767 91.7546943,132.770767 C95.0679396,132.770767 97.7727792,130.364837 98.0481849,126.952163 L98.0335245,126.019721 C96.6219396,100.137395 78.531034,84.8646047 61.0349208,70.0648372 C57.0242604,66.675186 52.4795434,62.848093 48.0814302,58.8378605 C38.3636943,49.9634419 35.0839585,36.2112326 40.1082792,25.3840233 C43.8728547,17.2746047 51.5391849,12.8112326 61.6967321,12.8112326 C63.2622509,12.8112326 64.896883,12.9221628 66.5545528,13.1366977 C78.4252698,14.6635581 85.7271849,22.3993721 89.7619302,28.6187907 C89.7629774,28.6198372 89.7629774,28.6208837 89.7640245,28.6219302 C97.185317,40.0613488 99.6021849,55.7904186 96.1046377,68.6237907 C95.8690245,69.4934419 95.4763358,69.7048372 95.0668925,69.6190233 C90.3944208,65.2697209 85.4496849,62.5173953 80.3415906,61.4677442 C79.9153925,61.3798372 79.4797698,61.3358837 79.0483358,61.3358837 C76.0345811,61.3358837 73.4051377,63.4822791 72.7977792,66.4386744 C72.0877981,69.8858837 74.3182698,73.2682093 77.7697415,73.9777442 C84.3334019,75.3266977 90.0656094,82.6857674 91.7180434,85.3721628 C92.868883,87.2684419 94.8804962,88.5294884 97.1067792,88.5294884 L97.1811283,88.5294884 C99.3655245,88.5294884 101.375043,87.3511163 102.556251,85.5134419 C113.886628,67.8891395 113.01643,41.0011163 100.491232,21.6846047 L100.491232,21.6846047 Z" id="Fill-3" fill="#14DD7B" mask="url(#mask-2)"></path>
            </g>
            <path d="M277.614561,36.1904762 C273.988351,36.1904762 271.319058,39.1259048 271.319058,42.7475238 L271.319058,89.9280952 C271.319058,91.5780952 270.646488,106.052 256.188865,106.052 C256.158437,106.052 256.001049,106.05619 255.969572,106.057238 C255.939143,106.05619 255.853105,106.052 255.822677,106.052 C241.362955,106.052 240.890792,91.5780952 240.890792,89.9280952 L240.890792,42.7475238 C240.890792,39.1259048 237.696874,36.1904762 234.070664,36.1904762 C230.444454,36.1904762 227.250535,39.1259048 227.250535,42.7475238 L227.250535,89.9280952 C227.250535,113.055333 245.817024,119.166095 255.505803,119.166095 C255.536231,119.166095 255.688373,119.161905 255.71985,119.160857 C255.750278,119.161905 255.825824,119.166095 255.856253,119.166095 C265.542934,119.166095 283.910064,113.055333 283.910064,89.9280952 L283.910064,42.7475238 C283.910064,39.1259048 281.240771,36.1904762 277.614561,36.1904762" id="Fill-1-Copy-18" fill="#FFFFFF"></path>
            <path d="M327.440203,106.221391 C320.896027,106.221391 314.387526,104.280153 310.324828,98.8692006 C309.532644,97.8142482 308.542152,94.6839625 308.482344,93.4111053 C308.422537,92.1633911 308.22213,90.8978672 308.22213,89.6480577 L308.22213,66.4768196 L308.22213,62.7064387 C308.22213,61.1591053 309.521102,60.0182482 310.425556,58.7747244 C314.336113,53.407772 320.510952,49.4739625 327.310096,49.4729149 C340.715321,49.4687244 349.008597,63.0825339 349.94243,75.0746292 C350.996927,88.5962482 343.085578,106.221391 327.440203,106.221391 M309.919709,41.4166242 C315.593905,38.1472748 321.047454,36.3588196 327.179989,36.3588196 C330.380203,36.3588196 333.833286,36.8564387 336.883458,37.8233911 C365.064229,46.7564387 370.686113,86.1615815 352.888725,107.007105 C348.73789,111.868058 343.370974,115.724343 337.275877,117.744153 C330.633072,119.944153 323.072173,119.810058 316.308704,118.207201 C313.162767,117.461668 310.137347,116.243083 307.43833,114.461994 C307.032001,114.655132 307.056977,115.336548 307.056977,115.336548 L306.963114,115.262319 C306.712165,117.341303 304.941411,118.952381 302.794088,118.952381 L299.651308,118.952381 C297.331995,118.952381 295.45182,117.06922 295.45182,114.754039 L295.45182,85.4364374 C295.45182,85.0694567 295.498916,84.7134733 295.587394,84.374199 C295.586109,74.0995534 295.631124,64.0181729 295.631124,53.4674863 L295.631124,32.0876768 C295.631124,27.8060577 295.353072,20.7335815 295.489475,16.4540577 C295.717162,9.35539105 305.708837,7.36827504 308.119304,14.2865339 C308.204723,21.9079503 308.22213,23.0687244 308.22213,25.718153 L308.22213,40.8279775 C308.532936,41.3758703 309.052879,41.7132026 309.919709,41.4166242 Z" id="Combined-Shape-Copy-23" fill="#FFFFFF"></path>
            <path d="M589.985704,70.5419048 C592.503917,57.9704762 602.056668,48.7241905 613.424289,48.7241905 C625.222036,48.7241905 631.621261,59.0180952 633.363711,70.5419048 L589.985704,70.5419048 Z M647.590793,76.6055238 C647.590793,52.1781905 633.541467,35.1428571 613.424289,35.1428571 C592.569752,35.1428571 575.601713,53.766381 575.601713,76.6421905 C575.601713,99.518 592.569752,118.136286 613.424289,118.136286 C625.396501,118.136286 636.396539,112.143905 643.604445,101.690762 C645.690337,98.6652381 644.812529,94.6015238 641.644737,92.6110476 C638.475848,90.6195238 634.218477,91.457619 632.132584,94.4831429 C627.512019,101.184762 620.692544,104.980286 613.424289,104.980286 C602.056668,104.980286 592.503917,95.6847619 589.985704,83.1133333 L640.724135,83.1133333 C644.516268,83.1133333 647.590793,80.2271429 647.590793,76.6055238 L647.590793,76.6055238 Z" id="Fill-10-Copy-21" fill="#FFFFFF"></path>
            <path d="M374.14561,42.7475238 L374.14561,112.609048 C374.14561,116.229619 376.814904,119.166095 380.441113,119.166095 C384.067323,119.166095 386.736617,116.229619 386.736617,112.609048 L386.736617,42.7475238 C386.736617,39.1259048 384.067323,36.1904762 380.441113,36.1904762 C376.814904,36.1904762 374.14561,39.1259048 374.14561,42.7475238 Z" id="Fill-7-Copy-18" fill="#FFFFFF"></path>
            <path d="M373.09636,18.8020952 C373.09636,23.0858095 376.574625,26.557619 380.863961,26.557619 C385.153298,26.557619 388.630514,23.0858095 388.630514,18.8020952 C388.630514,14.5194286 385.153298,11.047619 380.863961,11.047619 C376.574625,11.047619 373.09636,14.5194286 373.09636,18.8020952 Z" id="Fill-12-Copy-39" fill="#FFFFFF"></path>
            <path d="M490.723308,36.4540779 C487.242944,35.438935 483.596798,37.4461731 482.58532,40.9221731 L469.060481,87.4385541 C468.34804,87.974935 467.449881,87.7025541 466.537033,84.9221731 C466.360759,84.3868398 466.182387,84.0023636 466.001916,83.728935 L451.87061,40.7074112 C450.9735,37.968935 448.430117,36.1544588 445.501659,36.195316 C442.617269,36.2518874 440.106413,38.1826493 439.316327,40.9536017 L426.0538,87.4280779 C425.33926,87.9780779 424.435856,87.7182684 423.517762,84.9221731 C423.494678,84.8530303 423.472644,84.7996017 423.44956,84.7356969 L408.98774,40.7074112 C407.857697,37.2670303 404.14335,35.3928398 400.702858,36.5200779 C397.25607,37.6494112 395.377911,41.3527446 396.509004,44.7941731 L419.455063,114.655697 C420.340631,117.352268 422.860931,119.16884 425.693907,119.16884 C425.736926,119.16884 425.782044,119.16884 425.825063,119.167792 C428.709453,119.111221 431.22031,117.180459 432.010395,114.409506 L444.219475,71.6236969 L444.219475,71.6236969 C444.219475,71.6236969 446.176327,65.4511255 448.203479,71.6226493 L462.338982,114.655697 C463.236091,117.387887 465.895941,119.223316 468.690096,119.16884 C471.569239,119.118554 474.082194,117.201411 474.884871,114.440935 L495.19941,44.5783636 C496.209839,41.101316 494.20577,37.462935 490.723308,36.4540779" id="Fill-14-Copy-19" fill="#FFFFFF"></path>
            <path d="M551.680982,70.5419048 L513.382195,70.5419048 C512.528526,69.4942857 511.528922,69.8431429 511.70997,68.5755238 C514.732923,56.97 523.900536,48.28 534.730499,48.28 C545.665799,48.28 551.960784,57.4299048 554.210168,67.8369524 C554.7182,69.9887619 552.574153,70.5419048 551.680982,70.5419048 M534.730499,35.1428571 C513.874865,35.1428571 496.907923,53.766381 496.907923,76.6421905 C496.907923,99.518 513.874865,118.136286 534.730499,118.136286 C546.702711,118.136286 557.702749,112.143905 564.909557,101.690762 C566.99545,98.6652381 566.118739,94.6015238 562.94985,92.6110476 C559.780961,90.6195238 555.524687,91.457619 553.438794,94.4831429 C548.818229,101.184762 541.997657,105.028476 534.730499,105.028476 C523.977344,105.028476 514.858011,96.6349524 511.770319,85.1572381 C511.70997,84.104381 512.117053,83.1133333 513.769528,83.1133333 L562.029248,83.1133333 C565.822478,83.1133333 568.897003,80.2271429 568.897003,76.6055238 C568.897003,52.1781905 554.847677,35.1428571 534.730499,35.1428571" id="Fill-17-Copy-22" fill="#FFFFFF"></path>
            <path d="M197.87152,18.8020952 C197.87152,23.0858095 201.349786,26.557619 205.639122,26.557619 C209.928458,26.557619 213.405675,23.0858095 213.405675,18.8020952 C213.405675,14.5194286 209.928458,11.047619 205.639122,11.047619 C201.349786,11.047619 197.87152,14.5194286 197.87152,18.8020952 Z" id="Fill-12-Copy-40" fill="#FFFFFF"></path>
            <path d="M201.285039,53.1046359 C200.078573,47.8192131 194.199143,47.8892381 194.199143,47.8892381 L193.924879,47.7142857 L173.738758,47.7142857 C170.262591,47.7142857 167.443255,44.8993333 167.443255,41.4285714 C167.443255,37.9578095 170.262591,35.1428571 173.738758,35.1428571 L201.676781,35.1428571 L207.27521,35.1428571 C209.100906,35.3377143 213.876045,36.4125714 213.876045,42.3452381 L213.876045,89.5373333 C213.876045,102.565524 207.240585,113.026 196.461634,116.837238 C193.561506,117.862857 190.620457,118.362571 187.596516,118.362571 C177.660114,118.362571 167.455103,112.966286 159.453519,103.09981 C157.170349,100.285905 157.63202,96.1572381 160.451356,93.8786667 C163.269643,91.6000952 167.458251,92.0317143 169.74142,94.8477143 C177.909836,104.920571 186.824268,106.426 192.343326,104.476381 C197.886516,102.515238 201.285039,97.0707619 201.285039,89.5373333 L201.285039,53.1046359 Z" id="Combined-Shape-Copy-24" fill="#FFFFFF"></path>
        </g>
    </g>
</svg>