<svg width="48" height="49" viewBox="0 0 48 49" xmlns="http://www.w3.org/2000/svg"><defs><linearGradient x1="7.692%" y1="7.692%" x2="78.699%" y2="78.7%" id="a"><stop stop-color="#A459FF" offset=".13%"/><stop stop-color="#512DA8" offset="100%"/></linearGradient></defs><g transform="translate(-11 -84) translate(11 84)" fill="none"><circle fill="url(#a)" fill-rule="nonzero" cx="24.018" cy="24.667" r="23.915"/><g stroke="#fff" stroke-width=".767" stroke-linecap="round" stroke-linejoin="round"><path d="M35.526 30.329c0 6.142-5.152 11.124-11.51 11.124-6.355 0-11.507-4.982-11.507-11.124 0-6.139 11.507-22.356 11.507-22.356s11.51 16.217 11.51 22.356z"/><path d="M23.954 27.845c1.469 0 2.161.494 2.965 1.064.819.579 1.744 1.237 3.517 1.237 1.389 0 2.247-.603 2.935-1.09v-.002c.025.209.036.415.036.619 0 4.853-4.21 8.8-9.388 8.8s-9.39-3.947-9.39-8.8c0-.188.01-.368.031-.553.669.463 1.499 1.025 2.811 1.025 1.77 0 2.697-.659 3.514-1.237.805-.57 1.498-1.063 2.969-1.063z"/></g></g></svg>