<svg width="84" height="84" viewBox="0 0 84 84" xmlns="http://www.w3.org/2000/svg"><path d="M42 84C18.804 84 0 65.196 0 42S18.804 0 42 0s42 18.804 42 42-18.804 42-42 42zm0-2c22.091 0 40-17.909 40-40S64.091 2 42 2 2 19.909 2 42s17.909 40 40 40zm20.3-53.83h-6.85a.66.66 0 0 1-.61-.41l-1.47-3.55a3.57 3.57 0 0 0-3.3-2.21H33.93a3.57 3.57 0 0 0-3.31 2.21l-1.46 3.55a.66.66 0 0 1-.61.41H21.7a4.71 4.71 0 0 0-4.7 4.7v24.12a4.71 4.71 0 0 0 4.7 4.7h40.6a4.71 4.71 0 0 0 4.7-4.7V32.87a4.71 4.71 0 0 0-4.7-4.7zM65 56.99a2.7 2.7 0 0 1-2.7 2.7H21.7a2.7 2.7 0 0 1-2.7-2.7V32.87a2.7 2.7 0 0 1 2.7-2.7h6.85A2.65 2.65 0 0 0 31 28.52l1.46-3.55a1.57 1.57 0 0 1 1.46-1h16.15a1.57 1.57 0 0 1 1.46 1L53 28.52a2.65 2.65 0 0 0 2.46 1.64h6.84a2.7 2.7 0 0 1 2.7 2.7v24.13zm-23-21.7c-5.434 0-9.84 4.406-9.84 9.84s4.406 9.84 9.84 9.84 9.84-4.406 9.84-9.84c-.006-5.432-4.408-9.834-9.84-9.84zm0 17.67a7.84 7.84 0 1 1 7.84-7.84A7.85 7.85 0 0 1 42 52.96zM26.69 35.21h-2.63a1 1 0 0 0 0 2h2.63a1 1 0 1 0 0-2z" fill="#F26F21" fill-rule="evenodd"/></svg>