<svg width="85" height="84" viewBox="0 0 85 84" xmlns="http://www.w3.org/2000/svg"><path d="M42.333 84c-23.196 0-42-18.804-42-42s18.804-42 42-42 42 18.804 42 42-18.804 42-42 42zm0-2c22.092 0 40-17.909 40-40s-17.908-40-40-40c-22.091 0-40 17.909-40 40s17.909 40 40 40zm27.781-61.4a1 1 0 0 1 .21.76c-.12.99-3.11 24.31-16.17 32.53a22.27 22.27 0 0 1-12 3.64 20.25 20.25 0 0 1-4.33-.47 19 19 0 0 1-6.81-2.87 1.016 1.016 0 1 1 1.24-1.61c.38.28 9.44 6.79 20.86-.39 10.71-6.78 14.32-25.35 14.98-30.07-5.16-.19-27.15-.85-35.44 4a15.85 15.85 0 0 0-7 8.63c-1.38 4.32-.68 9.17 2 14.07 12.32-16.3 23.25-16.07 23.7-16.07a1 1 0 1 1 0 2c-.14.01-10.89-.09-22.89 16.43-4.13 5.72-4.13 14.15-4.13 14.23a1 1 0 0 1-2 0c-.01-.33-.01-8.59 4.1-14.79a.93.93 0 0 1-.07-.07c-3.31-5.64-4.18-11.32-2.53-16.4a17.88 17.88 0 0 1 7.9-9.74c9.89-5.79 36.53-4.24 37.67-4.17a1 1 0 0 1 .71.36z" fill="#F26F21" fill-rule="evenodd"/></svg>