<svg width="84" height="84" viewBox="0 0 84 84" xmlns="http://www.w3.org/2000/svg"><path d="M42 84C18.804 84 0 65.196 0 42S18.804 0 42 0s42 18.804 42 42-18.804 42-42 42zm0-2c22.091 0 40-17.909 40-40S64.091 2 42 2 2 19.909 2 42s17.909 40 40 40zm.63-63.58a1 1 0 0 0-1.63 0c-.65.92-16 22.64-16 31.29C25.05 58.69 32.54 66 41.81 66s16.81-7.31 16.81-16.29c.01-8.65-15.34-30.37-15.99-31.29zM41.81 64c-8.012.107-14.607-6.278-14.76-14.29 0-6.95 11.6-24.29 14.81-29 3.21 4.67 14.81 22 14.81 29A14.57 14.57 0 0 1 41.81 64z" fill="#F26F21" fill-rule="evenodd"/></svg>