<svg width="85" height="84" viewBox="0 0 85 84" xmlns="http://www.w3.org/2000/svg"><path d="M42.75 84c-23.196 0-42-18.804-42-42s18.804-42 42-42 42 18.804 42 42-18.804 42-42 42zm0-2c22.091 0 40-17.909 40-40s-17.909-40-40-40-40 17.909-40 40 17.909 40 40 40zm16.02-41.7H56.4v-9.16C56.4 23.883 50.517 18 43.26 18c-7.257 0-13.14 5.883-13.14 13.14v9.16h-2.37a2 2 0 0 0-2 2v21.74a2 2 0 0 0 2 2h31a2 2 0 0 0 2-2V42.21a2 2 0 0 0-1.98-1.91zm-26.65-9.16c0-6.152 4.988-11.14 11.14-11.14S54.4 24.988 54.4 31.14v9.16H32.12v-9.16zm-4.33 32.9l-.04-21.74h30.98v21.79l-30.94-.05z" fill="#F26F21" fill-rule="evenodd"/></svg>