<?xml version="1.0" encoding="UTF-8"?>
<svg width="759px" height="406px" viewBox="0 0 759 406" version="1.1" xmlns="http://www.w3.org/2000/svg" xmlns:xlink="http://www.w3.org/1999/xlink">
    <!-- Generator: Sketch 43.2 (39069) - http://www.bohemiancoding.com/sketch -->
    <title>logo3</title>
    <desc>Created with Sketch.</desc>
    <defs></defs>
    <g id="Page-1" stroke="none" stroke-width="1" fill="none" fill-rule="evenodd">
        <g id="logo3" fill="#FFFFFF">
            <path d="M567.309091,185.846275 C573.373362,179.776471 581.316702,176.399608 589.516279,176.399608 C598.271036,176.399608 605.787315,179.43451 611.808879,185.162353 C618.214799,191.232157 621.673996,199.524706 621.673996,207.731765 C621.673996,216.836471 618.64186,224.359608 612.57759,230.386667 C606.427907,236.541961 598.78351,239.833333 589.687104,239.833333 C580.505285,239.833333 573.074419,236.712941 566.924736,230.172941 C561.073996,224.103137 558.084567,216.366275 558.084567,207.94549 C558.084567,199.567451 561.330233,191.787843 567.309091,185.846275 Z M589.815222,222.991765 C597.67315,222.991765 604.036364,216.366275 604.036364,208.159216 C604.036364,199.866667 597.630444,193.241176 589.815222,193.241176 C581.957294,193.241176 575.59408,199.866667 575.59408,208.159216 C575.59408,216.366275 582.085412,222.991765 589.815222,222.991765 Z" id="Shape"></path>
            <path d="M437.482452,185.846275 C443.546723,179.776471 451.490063,176.399608 459.689641,176.399608 C468.444397,176.399608 475.960677,179.43451 481.982241,185.162353 C488.388161,191.232157 491.847357,199.524706 491.847357,207.731765 C491.847357,216.836471 488.815222,224.359608 482.750951,230.386667 C476.601268,236.541961 468.956871,239.833333 459.860465,239.833333 C450.678647,239.833333 443.24778,236.712941 437.098097,230.172941 C431.247357,224.103137 428.257928,216.366275 428.257928,207.94549 C428.300634,199.567451 431.5463,191.787843 437.482452,185.846275 Z M460.03129,222.991765 C467.889218,222.991765 474.252431,216.366275 474.252431,208.159216 C474.252431,199.866667 467.846512,193.241176 460.03129,193.241176 C452.216068,193.241176 445.810148,199.866667 445.810148,208.159216 C445.767442,216.366275 452.30148,222.991765 460.03129,222.991765 Z" id="Shape"></path>
            <polygon id="Shape" points="244.749683 238.166275 262.387315 238.166275 262.387315 154.685098 244.749683 158.361176"></polygon>
            <rect id="Rectangle-path" x="217.887526" y="177.895686" width="17.594926" height="60.2705882"></rect>
            <ellipse id="Oval" cx="226.684989" cy="160.199216" rx="10.8046512" ry="10.8145098"></ellipse>
            <polygon id="Shape" points="298.986469 212.989412 287.669345 177.895686 268.024524 177.895686 290.103594 234.447451 281.562368 257.658039 299.370825 257.658039 330.802537 177.895686 311.755603 177.895686"></polygon>
            <path d="M137.002114,207.77451 C137.002114,201.106275 138.624947,194.86549 141.699789,189.308627 L141.699789,189.265882 L141.699789,189.265882 L141.699789,154.514118 L123.976744,158.190196 L123.976744,184.435686 C119.919662,179.263529 114.325159,176.784314 107.065116,176.784314 C99.4207188,176.784314 92.5877378,179.60549 86.9932347,185.076863 C80.7154334,191.146667 77.341649,198.883529 77.341649,207.518039 C77.341649,216.964706 80.9289641,225.043529 87.8900634,231.198824 C93.1429175,235.900784 99.4207188,238.251765 106.723467,238.251765 C113.898097,238.251765 119.27907,236.328235 124.531924,231.198824 L124.531924,237.952549 L141.699789,237.952549 L141.699789,226.539608 C138.624947,220.982745 137.002114,214.656471 137.002114,207.77451 Z M110.652431,222.265098 C101.556025,222.265098 95.0646934,215.853333 95.0646934,207.432549 C95.0646934,199.353725 101.556025,192.51451 109.969133,192.51451 C118.254123,192.51451 124.660042,199.011765 124.660042,207.646275 C124.702748,215.981569 118.296829,222.265098 110.652431,222.265098 Z" id="Shape"></path>
            <path d="M424.92685,191.146667 C424.15814,187.940784 422.919662,185.376078 420.997886,183.153333 C417.666808,179.220784 412.926427,177.382745 407.246512,176.912549 C402.634249,176.527843 398.662579,177.126275 394.819027,179.135294 C390.676533,181.315294 385.978858,186.444706 385.978858,186.444706 C385.978858,186.444706 381.281184,176.784314 369.579704,176.784314 C361.337421,176.784314 356.255391,180.289412 352.881607,185.97451 L352.881607,177.895686 L336.866808,177.895686 L336.866808,238.166275 L353.693023,238.166275 L353.693023,206.449412 C353.693023,199.866667 355.230444,193.283922 364.156025,193.283922 C371.843129,193.283922 372.441015,199.567451 372.441015,204.739608 L372.441015,238.166275 L389.82241,238.166275 L389.82241,206.235686 C389.82241,196.062353 394.263848,193.283922 400.328118,193.283922 C405.239323,193.283922 408.527696,195.506667 408.527696,204.739608 L408.527696,238.166275 L425.780973,238.166275 L425.780973,226.667843 C422.706131,221.02549 421.083298,214.656471 421.083298,207.86 C421.083298,201.961176 422.449894,196.276078 424.92685,191.146667 Z" id="Shape"></path>
            <polygon id="Shape" points="520.759408 154.685098 502.822833 158.361176 502.822833 178.194902 495.221142 178.194902 495.221142 195.634902 502.822833 195.634902 502.822833 238.166275 520.759408 238.166275 520.759408 195.634902 528.745455 195.634902 528.745455 178.194902 520.759408 178.194902"></polygon>
            <ellipse id="Oval" cx="545.315433" cy="160.199216" rx="10.8046512" ry="10.8145098"></ellipse>
            <path d="M554.112896,192.557255 L554.112896,177.895686 L536.51797,177.895686 L536.51797,238.166275 L554.112896,238.166275 L554.112896,223.803922 C551.97759,218.93098 550.86723,213.630588 550.86723,207.988235 C550.86723,202.559608 552.020296,197.344706 554.112896,192.557255 Z" id="Shape"></path>
            <path d="M662.116702,176.741569 C654.173362,176.741569 648.536152,179.904706 644.863425,185.931765 L645.076956,177.852941 L628.25074,177.852941 L628.25074,238.123529 L645.632135,238.123529 L645.632135,205.466275 C645.632135,197.387451 649.347569,193.241176 656.265962,193.241176 C663.098943,193.241176 664.8926,197.04549 664.8926,205.466275 L664.8926,238.123529 L682.615645,238.123529 L682.615645,198.413333 C682.658351,184.606667 674.586892,176.741569 662.116702,176.741569 Z" id="Shape"></path>
            <path d="M191.452431,231.412549 C186.199577,236.584706 180.818605,238.46549 173.643975,238.46549 C166.341226,238.46549 160.063425,236.11451 154.810571,231.412549 C147.849471,225.257255 144.262156,217.178431 144.262156,207.731765 C144.262156,199.097255 147.635941,191.360392 153.913742,185.290588 C159.508245,179.776471 166.341226,176.998039 173.985624,176.998039 C181.288372,176.998039 186.882875,179.477255 190.897252,184.649412 L190.897252,177.895686 L208.620296,177.895686 L208.620296,238.166275 L191.452431,238.166275 L191.452431,231.412549 Z M177.530233,222.436078 C185.17463,222.436078 191.537844,216.152549 191.537844,207.86 C191.537844,199.22549 185.131924,192.728235 176.846934,192.728235 C168.433827,192.728235 161.942495,199.567451 161.942495,207.646275 C161.942495,216.024314 168.476533,222.436078 177.530233,222.436078 Z" id="Shape"></path>
        </g>
    </g>
</svg>