<?xml version="1.0" encoding="UTF-8"?>
<svg width="596px" height="406px" viewBox="0 0 596 406" version="1.1" xmlns="http://www.w3.org/2000/svg" xmlns:xlink="http://www.w3.org/1999/xlink">
    <!-- Generator: Sketch 43.2 (39069) - http://www.bohemiancoding.com/sketch -->
    <title>logo5</title>
    <desc>Created with Sketch.</desc>
    <defs>
        <polygon id="path-1" points="0.190388252 25.0617092 16.1440638 25.0617092 16.1440638 0.536320577 0.190388252 0.536320577 0.190388252 25.0617092"></polygon>
        <polygon id="path-3" points="0 0.710678468 0 18.8291008 13.5035913 18.8291008 13.5035913 0.710678468 0 0.710678468"></polygon>
        <polygon id="path-5" points="154.458275 113.957979 0.242716084 113.957979 0.242716084 0.65160444 154.458275 0.65160444 154.458275 113.957979"></polygon>
        <polygon id="path-7" points="0.0253213986 13.7111418 48.018927 13.7111418 48.018927 0.385245124 0.0253213986 0.385245124 0.0253213986 13.7111418"></polygon>
        <polygon id="path-9" points="0.727870769 113.957979 145.389021 113.957979 145.389021 0.65160444 0.727870769 0.65160444 0.727870769 113.957979"></polygon>
    </defs>
    <g id="Page-1" stroke="none" stroke-width="1" fill="none" fill-rule="evenodd">
        <g id="logo5">
            <polygon id="Fill-1" points="129.235927 242.600273 467.077133 242.600273 467.077133 129.295092 129.235927 129.295092"></polygon>
            <path d="M137.894293,302.691449 C137.221843,302.691449 136.615084,302.791696 135.875747,302.959967 C135.875747,304.943422 135.842304,308.541568 135.842304,311.331771 C136.21257,311.398603 136.88502,311.433212 137.322173,311.433212 C140.08125,311.433212 141.931384,309.718275 141.931384,307.095149 C141.931384,304.540048 140.216217,302.691449 137.894293,302.691449 Z M146.540595,323.738511 C145.296024,323.738511 144.588936,323.570239 143.883043,323.100034 C142.772245,322.360117 141.595756,320.343246 140.922111,319.199955 C139.779065,317.216499 138.499857,315.098188 137.288729,313.31642 C137.086875,313.349836 136.918463,313.349836 136.783496,313.349836 C136.447868,313.349836 136.177932,313.31642 135.842304,313.31642 L135.842304,315.098188 C135.842304,316.005184 135.875747,316.913372 135.875747,317.821561 C135.909191,319.636745 135.942634,320.410077 136.21257,321.116579 C136.548198,321.990158 137.153761,322.426948 138.264559,322.528388 L138.264559,323.469993 L137.490584,323.436577 C136.615084,323.403161 135.405152,323.436577 133.823759,323.436577 C132.275809,323.436577 131.064682,323.403161 130.189182,323.436577 L129.382959,323.469993 L129.382959,322.528388 C130.22382,322.461557 130.627529,322.293286 131.030044,321.855303 C131.40031,321.419706 131.636802,320.813451 131.703689,320.041312 C131.804019,319.031683 131.838657,318.426622 131.838657,315.098188 L131.838657,309.449756 C131.838657,305.34799 131.703689,304.338361 131.468391,303.396757 C131.233093,302.489762 130.526005,302.119803 129.382959,301.984947 L129.382959,301.043343 C130.055409,301.110174 130.727859,301.077952 131.40031,301.077952 C133.150114,301.077952 133.688791,301.077952 135.775417,300.976512 C137.592108,300.908487 138.634824,300.876265 139.442243,300.876265 C141.729529,300.876265 143.109068,301.211615 144.253308,302.018363 C145.531322,302.926552 146.373378,304.674904 146.373378,306.423257 C146.373378,309.180045 144.555493,311.433212 141.460788,312.576503 C142.738802,314.19 143.748075,315.803496 144.925759,317.653289 C146.003112,319.368226 147.079272,320.848061 147.920133,321.688224 C148.391924,322.191845 148.694108,322.360117 149.333115,322.528388 L149.333115,323.469993 C148.45881,323.67168 147.583311,323.738511 146.540595,323.738511 Z" id="Fill-2" fill="#FFFFFF"></path>
            <path d="M163.80322,323.052894 C163.552394,323.469396 163.275292,323.552935 161.746453,323.552935 C160.801678,323.552935 159.884375,323.498038 158.9396,323.469396 C157.605449,323.441947 156.271298,323.385857 154.937147,323.385857 C153.602996,323.385857 152.268845,323.414499 150.934694,323.469396 L150.934694,322.692483 C152.185236,322.580302 152.741829,321.858286 152.851715,320.637423 C152.935323,319.803226 152.935323,318.914132 152.935323,317.4701 L152.935323,309.609077 C152.935323,308.137597 152.851715,307.470478 152.629555,306.888092 C152.379924,306.166076 151.879469,305.83192 150.934694,305.722126 L150.934694,304.944019 L163.941771,304.944019 C163.941771,305.748381 163.914299,306.582578 163.914299,307.388133 C163.914299,308.054058 163.886828,308.692535 163.941771,309.359654 L162.942053,309.359654 C162.747365,307.221054 161.830062,306.638668 158.522752,306.638668 C157.911217,306.638668 157.104993,306.664923 156.43732,306.693565 C156.382378,307.775992 156.354906,308.137597 156.354906,309.748707 L156.354906,312.970927 C156.771754,312.998375 157.104993,312.998375 157.605449,312.998375 C160.49591,312.998375 161.384548,312.581873 161.551765,311.081751 L162.552677,311.081751 C162.49654,311.525701 162.49654,312.442244 162.49654,313.831379 C162.49654,315.247962 162.525206,316.082159 162.552677,316.526109 L161.551765,316.526109 C161.468157,314.943641 160.71807,314.553395 157.85508,314.553395 C157.355818,314.553395 156.855362,314.580843 156.354906,314.580843 C156.354906,316.331582 156.382378,318.081128 156.382378,319.831868 C156.382378,320.997834 156.577066,321.385694 157.243544,321.553965 C157.660392,321.663759 158.300593,321.692401 159.161759,321.692401 C162.163301,321.692401 163.219155,321.025283 163.858162,318.748247 L164.942683,318.970222 C164.553306,320.914295 164.108987,322.525405 163.80322,323.052894 L163.80322,323.052894 Z M157.605449,303.137189 L156.298769,302.360276 L159.049485,298.305053 L162.246909,298.887439 L157.605449,303.137189 Z" id="Fill-4" fill="#FFFFFF"></path>
            <path d="M175.393254,315.220513 C175.116152,315.220513 174.976406,315.220513 174.615696,315.193065 L174.002966,313.776482 C176.616325,313.609403 178.061556,312.33245 178.061556,310.221299 C178.061556,307.999161 176.532717,306.4155 174.421008,306.4155 C174.086574,306.4155 173.809472,306.442948 173.363959,306.526487 C173.363959,308.249778 173.309016,309.971875 173.309016,311.692779 L173.309016,316.553558 C173.309016,320.192279 173.336487,320.803307 173.614784,321.525323 C173.864415,322.247339 174.36487,322.608944 175.309645,322.692483 L175.309645,323.469396 L174.643167,323.441947 C173.920552,323.414499 172.91964,323.414499 171.585489,323.414499 C170.278809,323.414499 169.250426,323.414499 168.556476,323.441947 L167.888803,323.469396 L167.888803,322.692483 C169.139346,322.580302 169.695939,321.858286 169.807019,320.637423 C169.890627,319.803226 169.890627,319.303185 169.890627,316.553558 L169.890627,309.609077 C169.890627,308.137597 169.807019,307.470478 169.584859,306.888092 C169.334034,306.166076 168.833578,305.83192 167.888803,305.722126 L167.888803,304.944019 C168.223237,304.971468 167.972412,304.971468 169.168012,304.971468 C169.639802,304.971468 170.307475,304.971468 171.196112,304.944019 C172.613872,304.887929 174.031631,304.80439 175.449391,304.80439 C179.395707,304.80439 181.758241,306.748462 181.758241,309.971875 C181.758241,312.998375 179.062468,315.220513 175.393254,315.220513" id="Fill-6" fill="#FFFFFF"></path>
            <path d="M200.652424,306.332319 C200.346656,306.74882 200.208105,307.303758 200.153162,308.416021 C200.097025,309.609435 200.068359,310.527171 200.068359,312.249269 C200.068359,312.887746 200.097025,314.80437 200.097025,316.7198 C200.097025,318.663873 199.791257,319.831032 198.985034,320.998192 C197.70702,322.858726 195.594116,323.802717 192.814734,323.802717 C191.063736,323.802717 189.729585,323.469754 188.479042,322.63675 C186.533355,321.386052 185.783269,319.747493 185.783269,316.803339 C185.783269,313.804288 185.838211,312.498692 185.838211,311.526059 C185.838211,310.109476 185.92182,308.637996 185.672189,307.248861 C185.504972,306.248779 184.977045,305.832278 183.808916,305.72129 L183.808916,304.943184 L184.449117,304.970632 C185.171733,304.999274 186.200116,304.999274 187.534267,304.999274 C188.868418,304.999274 189.896801,304.999274 190.619417,304.970632 L191.258424,304.943184 L191.258424,305.72129 C190.397257,305.832278 189.979215,306.055446 189.702113,306.526845 C189.452483,306.943347 189.340208,307.498285 189.312737,308.720341 C189.257794,310.471081 189.229129,312.193178 189.229129,313.942724 C189.229129,318.719963 189.340208,319.636506 190.201375,320.636587 C190.869048,321.414694 192.00851,321.942183 193.342662,321.942183 C195.20474,321.942183 197.011876,320.998192 197.567274,319.136465 C197.929179,317.94305 197.984122,317.081405 197.984122,313.942724 L197.984122,311.193097 C197.984122,308.025774 197.900513,307.054334 197.594745,306.581742 C197.290172,306.081701 196.87213,305.804829 196.149515,305.72129 L196.149515,304.943184 C197.261506,304.999274 197.650883,304.999274 199.039976,304.999274 C200.457736,304.999274 200.847112,304.999274 201.959103,304.943184 L201.959103,305.72129 C201.347568,305.804829 200.958192,305.971907 200.652424,306.332319" id="Fill-8" fill="#FFFFFF"></path>
            <path d="M211.767801,314.137848 C211.294817,314.137848 210.795555,314.164103 210.07294,314.220193 C210.044274,314.970851 210.044274,315.109287 210.044274,316.387434 L210.044274,318.025993 C210.044274,319.581012 210.100411,320.414016 210.295099,320.970147 C210.517258,321.664714 211.183737,321.997677 212.351865,321.997677 C214.7144,321.997677 216.047356,320.692081 216.047356,318.360149 C216.047356,315.776406 214.381161,314.137848 211.767801,314.137848 M211.684193,306.387812 C211.183737,306.387812 210.683281,306.442709 210.184019,306.442709 C210.155354,308.249539 210.100411,311.359578 210.07294,312.525544 C210.377513,312.552993 210.766889,312.581635 211.294817,312.581635 C214.019256,312.581635 215.575566,311.443117 215.575566,309.442954 C215.575566,307.52633 214.130335,306.387812 211.684193,306.387812 M217.743412,322.164755 C216.436733,323.163643 214.96403,323.497799 212.129706,323.497799 C210.628338,323.497799 209.099499,323.385618 207.598131,323.385618 C206.986596,323.385618 205.847133,323.385618 205.069575,323.441709 L204.736335,323.469157 L204.736335,322.692244 C206.041821,322.581257 206.542277,321.914138 206.653356,320.637184 C206.736965,319.802987 206.764436,319.302946 206.764436,316.553319 L206.764436,311.304681 C206.764436,308.720938 206.736965,307.609869 206.459863,306.887853 C206.181566,306.165837 205.68111,305.831681 204.736335,305.721887 L204.736335,304.94378 C206.014349,304.999871 206.764436,304.999871 208.5441,304.999871 C210.155354,304.999871 212.574025,304.915139 214.185278,304.915139 C216.7425,304.915139 219.077563,306.138389 219.077563,309.026452 C219.077563,311.165051 217.743412,312.610277 215.102582,313.276202 C218.04918,313.859782 219.605491,315.553237 219.605491,318.304058 C219.605491,319.970065 218.993955,321.220764 217.743412,322.164755" id="Fill-10" fill="#FFFFFF"></path>
            <path d="M235.303683,323.081536 C235.054052,323.469396 234.719618,323.552935 233.330525,323.552935 C232.635381,323.552935 231.912765,323.525486 231.217621,323.498038 C229.494094,323.441947 227.937783,323.385857 226.048234,323.385857 C224.630474,323.385857 223.6857,323.414499 222.795867,323.469396 L222.795867,322.692483 C223.491011,322.636392 223.852916,322.497956 224.158684,322.136352 C224.657946,321.553965 224.797691,320.831949 224.797691,318.803144 C224.797691,317.41401 224.825163,316.302941 224.825163,314.860102 L224.825163,311.887306 C224.825163,308.137597 224.797691,307.637556 224.519395,306.888092 C224.269764,306.166076 223.741837,305.83192 222.795867,305.722126 L222.795867,304.944019 L223.491011,304.971468 C224.242293,305.00011 225.270676,305.00011 226.65977,305.00011 C228.021392,305.00011 229.078441,305.00011 229.801056,304.971468 L230.495006,304.944019 L230.495006,305.722126 C229.078441,305.722126 228.466905,306.47159 228.299688,307.804634 C228.243551,308.276033 228.21608,308.721177 228.21608,311.887306 L228.21608,316.526109 C228.21608,320.386806 228.243551,320.859398 228.605456,321.248451 C228.911224,321.553965 229.494094,321.692401 230.689694,321.692401 C232.218533,321.692401 233.052228,321.525323 233.747372,321.137464 C234.52493,320.719768 235.108995,319.886765 235.387291,318.720799 L236.443146,318.997671 C236.137378,320.608781 235.609451,322.608944 235.303683,323.081536" id="Fill-12" fill="#FFFFFF"></path>
            <path d="M244.970843,323.442186 C244.276894,323.414738 243.24851,323.414738 241.941831,323.414738 C240.60768,323.414738 239.606768,323.414738 238.884152,323.442186 L238.217674,323.469635 L238.217674,322.692722 C239.523159,322.580541 240.023615,321.914615 240.134695,320.636468 C240.218303,319.803465 240.245775,319.303424 240.245775,316.553796 L240.245775,311.887545 C240.245775,311.164335 240.218303,310.414871 240.218303,309.609316 C240.218303,308.137836 240.162166,307.470717 239.941201,306.887137 C239.690376,306.165121 239.162449,305.832158 238.217674,305.721171 L238.217674,304.943064 L238.884152,304.970513 C239.606768,304.999155 240.60768,304.999155 241.941831,304.999155 C243.24851,304.999155 244.276894,304.999155 244.970843,304.970513 L245.638516,304.943064 L245.638516,305.721171 C244.442916,305.80471 243.83138,306.554174 243.720301,307.80368 C243.636692,308.610428 243.636692,309.387341 243.636692,311.887545 L243.636692,316.553796 C243.636692,320.192518 243.664164,320.803546 243.94246,321.525562 C244.193285,322.247578 244.693741,322.609183 245.638516,322.692722 L245.638516,323.469635 L244.970843,323.442186 Z" id="Fill-14" fill="#FFFFFF"></path>
            <path d="M257.833994,306.498919 C254.443077,306.498919 252.0256,309.332086 252.0256,313.30377 C252.0256,318.138293 254.887396,321.941706 258.529138,321.941706 C261.947527,321.941706 264.365004,319.053642 264.365004,315.025867 C264.365004,310.248628 261.502014,306.498919 257.833994,306.498919 M270.952151,328.469684 C268.784305,328.469684 266.477908,327.802565 264.281396,326.580509 C263.030853,325.885941 261.279855,324.691333 260.001841,323.636355 C259.055871,323.775984 258.695161,323.803433 257.806523,323.803433 C252.191622,323.803433 248.467466,320.137263 248.467466,314.609366 C248.467466,308.692415 252.49739,304.610937 258.389393,304.610937 C264.115373,304.610937 267.923138,308.275914 267.923138,313.776362 C267.923138,317.691956 265.921315,321.164793 262.753751,322.775903 C263.753469,323.275943 264.75438,323.830881 265.726627,324.414461 C268.562145,326.136559 270.507832,326.858574 272.341245,326.858574 C273.481902,326.858574 274.426677,326.607957 275.538669,326.053019 L275.899379,327.025652 C274.537757,327.969644 272.842895,328.469684 270.952151,328.469684" id="Fill-16" fill="#FFFFFF"></path>
            <path d="M287.181495,306.332319 C286.875728,306.74882 286.737177,307.303758 286.682234,308.416021 C286.626097,309.609435 286.598625,310.527171 286.598625,312.249269 C286.598625,312.887746 286.626097,314.80437 286.626097,316.7198 C286.626097,318.663873 286.320329,319.831032 285.514105,320.998192 C284.236091,322.858726 282.123188,323.802717 279.343806,323.802717 C277.592807,323.802717 276.258656,323.469754 275.008114,322.63675 C273.062427,321.386052 272.31234,319.747493 272.31234,316.803339 C272.31234,313.804288 272.367283,312.498692 272.367283,311.526059 C272.367283,310.109476 272.450891,308.637996 272.20126,307.248861 C272.034044,306.248779 271.506116,305.832278 270.339182,305.72129 L270.339182,304.943184 L270.978189,304.970632 C271.700804,304.999274 272.729188,304.999274 274.063339,304.999274 C275.39749,304.999274 276.425873,304.999274 277.148488,304.970632 L277.787495,304.943184 L277.787495,305.72129 C276.926329,305.832278 276.508287,306.055446 276.231185,306.526845 C275.981554,306.943347 275.86928,307.498285 275.841809,308.720341 C275.786866,310.471081 275.759395,312.193178 275.759395,313.942724 C275.759395,318.719963 275.86928,319.636506 276.731641,320.636587 C277.398119,321.414694 278.537582,321.942183 279.871733,321.942183 C281.733811,321.942183 283.540947,320.998192 284.096346,319.136465 C284.458251,317.94305 284.513193,317.081405 284.513193,313.942724 L284.513193,311.193097 C284.513193,308.025774 284.430779,307.054334 284.123817,306.581742 C283.819244,306.081701 283.401202,305.804829 282.678586,305.72129 L282.678586,304.943184 C283.790578,304.999274 284.179954,304.999274 285.569048,304.999274 C286.986807,304.999274 287.376183,304.999274 288.488175,304.943184 L288.488175,305.72129 C287.876639,305.804829 287.487263,305.971907 287.181495,306.332319" id="Fill-18" fill="#FFFFFF"></path>
            <path d="M304.133575,323.052894 C303.883944,323.469396 303.605647,323.552935 302.076808,323.552935 C301.132033,323.552935 300.21473,323.498038 299.269955,323.469396 C297.935804,323.441947 296.601653,323.385857 295.267502,323.385857 C293.933351,323.385857 292.5992,323.414499 291.265049,323.469396 L291.265049,322.692483 C292.515591,322.580302 293.072184,321.858286 293.18207,320.637423 C293.265678,319.803226 293.265678,318.914132 293.265678,317.4701 L293.265678,309.609077 C293.265678,308.137597 293.18207,307.470478 292.95991,306.888092 C292.710279,306.166076 292.209823,305.83192 291.265049,305.722126 L291.265049,304.944019 L304.27332,304.944019 C304.27332,305.748381 304.244654,306.582578 304.244654,307.388133 C304.244654,308.054058 304.217183,308.692535 304.27332,309.359654 L303.272408,309.359654 C303.07772,307.221054 302.160417,306.638668 298.853107,306.638668 C298.241572,306.638668 297.435348,306.664923 296.767675,306.693565 C296.712733,307.775992 296.685261,308.137597 296.685261,309.748707 L296.685261,312.970927 C297.102109,312.998375 297.435348,312.998375 297.935804,312.998375 C300.826265,312.998375 301.714903,312.581873 301.88212,311.081751 L302.883032,311.081751 C302.826895,311.525701 302.826895,312.442244 302.826895,313.831379 C302.826895,315.247962 302.855561,316.082159 302.883032,316.526109 L301.88212,316.526109 C301.798512,314.943641 301.048425,314.553395 298.185435,314.553395 C297.686173,314.553395 297.185717,314.580843 296.685261,314.580843 C296.685261,316.331582 296.712733,318.081128 296.712733,319.831868 C296.712733,320.997834 296.907421,321.385694 297.573899,321.553965 C297.990747,321.663759 298.630948,321.692401 299.492114,321.692401 C302.493656,321.692401 303.54951,321.025283 304.188517,318.748247 L305.274232,318.970222 C304.883661,320.914295 304.439342,322.525405 304.133575,323.052894" id="Fill-20" fill="#FFFFFF"></path>
            <path d="M329.848888,306.45703 C329.815445,304.035592 328.402463,303.095181 324.599476,303.095181 C323.826695,303.095181 323.086164,303.127403 322.245302,303.195428 C322.178415,305.515426 322.178415,307.130116 322.178415,310.793899 C322.985834,310.828509 323.389543,310.860731 323.960469,310.860731 C327.089811,310.860731 328.032197,310.323694 328.200608,308.507317 L329.411736,308.507317 C329.411736,309.448921 329.343655,310.425134 329.343655,311.365545 C329.343655,312.610277 329.411736,313.888424 329.411736,315.131962 L328.200608,315.131962 C327.96531,313.113898 327.190141,312.711717 323.658284,312.711717 C323.05272,312.711717 322.817422,312.711717 322.178415,312.743939 L322.178415,316.510356 C322.178415,317.24908 322.178415,318.057021 322.211859,318.931794 C322.278745,320.780394 322.413713,322.393891 324.599476,322.528746 L324.599476,323.469157 L323.793252,323.436935 C322.95239,323.402326 321.70782,323.402326 320.125232,323.402326 C318.510396,323.402326 317.300463,323.402326 316.424964,323.436935 L315.617545,323.469157 L315.617545,322.528746 C317.132052,322.393891 317.804502,321.519118 317.93947,320.040477 C318.0398,319.032041 318.0398,318.425787 318.0398,315.097353 L318.0398,306.692133 C318.0398,304.910365 317.93947,304.103617 317.670729,303.397115 C317.36735,302.522342 316.761786,302.120161 315.617545,301.985305 L315.617545,301.042508 L331.093459,301.042508 C331.026572,301.682178 331.026572,302.757445 331.026572,304.170448 C331.026572,305.515426 331.026572,305.717113 331.093459,306.45703 L329.848888,306.45703 Z" id="Fill-22" fill="#FFFFFF"></path>
            <path d="M341.310046,306.304393 C340.754647,306.304393 340.254191,306.387932 339.642656,306.527561 C339.642656,308.164926 339.615184,311.137722 339.615184,313.442206 C339.920952,313.498297 340.477545,313.526939 340.838256,313.526939 C343.117182,313.526939 344.646021,312.110355 344.646021,309.943114 C344.646021,307.831963 343.227067,306.304393 341.310046,306.304393 M348.452591,323.692445 C347.424208,323.692445 346.841338,323.552816 346.257274,323.163762 C345.33997,322.552734 344.367724,320.886727 343.812326,319.942736 C342.867551,318.304178 341.810502,316.553438 340.80959,315.081958 C340.642373,315.109406 340.503822,315.109406 340.392742,315.109406 C340.11564,315.109406 339.893481,315.081958 339.615184,315.081958 L339.615184,316.553438 C339.615184,317.304096 339.642656,318.053561 339.642656,318.804218 C339.671321,320.303147 339.697598,320.942818 339.920952,321.525204 C340.198054,322.24722 340.69851,322.610018 341.615814,322.692364 L341.615814,323.469277 L340.976807,323.441828 C340.254191,323.41438 339.253279,323.441828 337.947794,323.441828 C336.668586,323.441828 335.668868,323.41438 334.945058,323.441828 L334.27858,323.469277 L334.27858,322.692364 C334.97253,322.637467 335.306963,322.497837 335.640203,322.137426 C335.94597,321.775821 336.141853,321.274587 336.196796,320.637303 C336.27921,319.803107 336.307875,319.303066 336.307875,316.553438 L336.307875,311.887187 C336.307875,308.499082 336.196796,307.666079 336.002107,306.887972 C335.807419,306.138508 335.223355,305.8318 334.27858,305.722006 L334.27858,304.9439 C334.833979,304.99999 335.390572,304.971348 335.94597,304.971348 C337.392396,304.971348 337.83552,304.971348 339.559047,304.887809 C341.060415,304.832912 341.921582,304.805464 342.58806,304.805464 C344.47761,304.805464 345.618267,305.082336 346.563042,305.748261 C347.618896,306.498919 348.31404,307.944144 348.31404,309.386983 C348.31404,311.665212 346.812672,313.526939 344.256644,314.47093 C345.312499,315.80278 346.146194,317.137018 347.11844,318.664589 C348.008272,320.081172 348.899299,321.303229 349.593249,321.997796 C349.982625,322.414298 350.232256,322.552734 350.760183,322.692364 L350.760183,323.469277 C350.037568,323.636355 349.314952,323.692445 348.452591,323.692445" id="Fill-24" fill="#FFFFFF"></path>
            <path d="M359.506098,309.832127 C358.783483,311.720109 357.783766,314.164222 357.365724,315.525908 L361.479257,315.525908 L359.506098,309.832127 Z M368.510722,323.441828 C367.816773,323.41438 366.815861,323.41438 365.537847,323.41438 C364.231167,323.41438 363.230255,323.41438 362.536305,323.441828 L361.896104,323.469277 L361.896104,322.692364 C362.785936,322.636273 363.313863,322.163681 363.313863,321.386768 C363.313863,321.108702 363.230255,320.719649 362.953153,319.886646 C362.618719,318.859116 362.39656,318.164548 362.064515,317.219364 L356.726717,317.219364 L356.170124,318.831667 C355.753276,320.081172 355.532311,320.997715 355.532311,321.469114 C355.532311,322.275862 355.893022,322.636273 356.782854,322.692364 L356.782854,323.469277 C355.725805,323.441828 355.336429,323.41438 354.003472,323.41438 C352.696792,323.41438 352.30861,323.441828 351.251561,323.469277 L351.251561,322.692364 C351.668409,322.636273 351.808154,322.581376 352.113922,322.30331 C352.640655,321.830718 353.169777,320.859279 354.003472,318.748128 L356.644303,312.026816 C357.365724,310.22118 358.450244,307.304474 359.200331,304.9439 L361.08988,304.9439 C361.340705,305.804352 361.923575,307.166038 362.314146,308.164926 L366.231796,318.191997 C366.898275,319.886646 367.371259,320.886727 367.733164,321.525204 C368.12254,322.192323 368.510722,322.525286 369.178395,322.692364 L369.178395,323.469277 L368.510722,323.441828 Z" id="Fill-26" fill="#FFFFFF"></path>
            <path d="M388.295454,306.554294 C387.988491,307.054334 387.933549,307.526927 387.877412,308.970958 C387.793803,311.471162 387.767526,315.359308 387.767526,317.219841 L387.767526,321.469591 C387.767526,322.109261 387.84994,323.081894 387.84994,323.469754 L385.960391,323.469754 C384.153255,321.10918 380.401627,316.525274 380.401627,316.525274 C379.957308,315.970336 376.481588,311.693137 374.732978,309.554538 C374.732978,310.138118 374.703118,309.776513 374.703118,311.580956 L374.703118,313.387786 C374.703118,315.470295 374.732978,317.525355 374.815392,319.609057 C374.871529,320.775024 374.982609,321.358603 375.259711,321.886093 C375.536813,322.442224 375.954855,322.664199 376.761079,322.692841 L376.761079,323.469754 C375.787638,323.414857 374.786726,323.414857 373.81448,323.414857 C372.813568,323.414857 371.841322,323.414857 370.84041,323.469754 L370.84041,322.692841 C372.675017,322.63675 372.731154,321.10918 372.787291,319.665148 C372.813568,318.497988 372.842234,317.525355 372.842234,315.748361 L372.842234,309.887501 C372.842234,307.583017 372.731154,307.026886 372.313112,306.414664 C372.03601,305.971907 371.674105,305.804829 370.84041,305.72129 L370.84041,304.943184 C371.757714,304.999274 372.092147,304.999274 373.259082,304.999274 C374.398545,304.999274 374.732978,304.999274 375.649087,304.943184 C375.982326,305.555406 376.510254,306.110343 378.428469,308.443469 C381.152908,311.749228 383.596662,314.553753 385.904254,317.44301 L385.904254,311.387623 C385.904254,308.610547 385.849311,307.91598 385.709566,307.193964 C385.516072,306.30487 384.98695,305.86092 383.958567,305.72129 L383.958567,304.943184 C385.09803,304.999274 385.487406,304.999274 386.905166,304.999274 C388.321731,304.999274 388.712301,304.999274 389.851764,304.943184 L389.851764,305.72129 C389.101677,305.748739 388.683636,305.887175 388.295454,306.554294" id="Fill-28" fill="#FFFFFF"></path>
            <g id="Group-32" transform="translate(392.158042, 304.074259)">
                <mask id="mask-2" fill="white">
                    <use xlink:href="#path-1"></use>
                </mask>
                <g id="Clip-31"></g>
                <path d="M15.5325281,18.7287346 C13.7253924,19.4507505 12.1416106,19.7288162 9.94509874,19.7288162 L9.69546797,20.8398853 C9.83401902,20.8124367 10.1123155,20.8398853 10.2245897,20.8398853 C11.2792498,20.8398853 11.9743938,21.5893497 11.9743938,22.5058922 C11.9743938,24.0060145 10.7787938,25.0621866 8.8892442,25.0621866 C8.33504,25.0621866 7.83458406,24.9500056 7.22185399,24.7005819 L7.61123021,23.6181548 C7.9731351,23.7565909 8.30517986,23.8401299 8.6121421,23.8401299 C9.38970014,23.8401299 9.91882182,23.4498833 9.91882182,22.7565093 C9.91882182,22.2015715 9.63933091,21.8674154 9.22367776,21.8674154 C9.00032392,21.8674154 8.8056358,21.9509544 8.6121421,22.0893905 L7.99941203,21.9235059 L8.55600503,19.6727257 C6.10986238,19.4507505 4.33139245,18.646389 2.83002462,17.0901762 C1.10769175,15.3406302 0.190388252,12.951414 0.190388252,10.1468894 C0.190388252,4.14640012 4.05429035,0.536320577 10.4180834,0.536320577 C12.3351043,0.536320577 14.1983771,0.814386208 15.8096302,1.34187552 C15.7546876,1.98035239 15.7546876,2.61882927 15.7546876,3.22985761 C15.7546876,3.70244984 15.7821589,4.70133797 15.8096302,5.34100826 L14.7263043,5.34100826 C14.280791,3.36948713 12.6970092,2.31450852 10.1684526,2.31450852 C6.25080224,2.31450852 3.85960224,4.92450652 3.85960224,9.25779538 C3.85960224,14.2570097 6.66645538,17.8957312 10.5291631,17.8957312 C12.8654204,17.8957312 14.4492022,16.729765 15.0882092,14.5064333 L16.1440638,14.7296019 C15.8932386,15.6735929 15.6436078,17.2572543 15.5325281,18.7287346" id="Fill-30" fill="#FFFFFF" mask="url(#mask-2)"></path>
            </g>
            <path d="M417.968908,309.832127 C417.247487,311.720109 416.246575,314.164222 415.828533,315.525908 L419.942066,315.525908 L417.968908,309.832127 Z M426.974726,323.441828 C426.279582,323.41438 425.27867,323.41438 424.000656,323.41438 C422.693977,323.41438 421.693065,323.41438 420.999115,323.441828 L420.360108,323.469277 L420.360108,322.692364 C421.248746,322.636273 421.776673,322.163681 421.776673,321.386768 C421.776673,321.108702 421.693065,320.719649 421.415963,319.886646 C421.082723,318.859116 420.85937,318.164548 420.52613,317.219364 L415.190721,317.219364 L414.634128,318.831667 C414.216086,320.081172 413.995121,320.997715 413.995121,321.469114 C413.995121,322.275862 414.357025,322.636273 415.245663,322.692364 L415.245663,323.469277 C414.189809,323.441828 413.800432,323.41438 412.466281,323.41438 C411.159602,323.41438 410.77142,323.441828 409.714371,323.469277 L409.714371,322.692364 C410.132413,322.636273 410.270964,322.581376 410.576732,322.30331 C411.104659,321.830718 411.631392,320.859279 412.466281,318.748128 L415.107112,312.026816 C415.828533,310.22118 416.913053,307.304474 417.66314,304.9439 L419.55269,304.9439 C419.803515,305.804352 420.386385,307.166038 420.776956,308.164926 L424.6958,318.191997 C425.362279,319.886646 425.835263,320.886727 426.195974,321.525204 C426.58535,322.192323 426.974726,322.525286 427.641204,322.692364 L427.641204,323.469277 L426.974726,323.441828 Z" id="Fill-33" fill="#FFFFFF"></path>
            <path d="M436.056509,323.442186 C435.362559,323.414738 434.334176,323.414738 433.02869,323.414738 C431.694539,323.414738 430.693627,323.414738 429.969818,323.442186 L429.304534,323.469635 L429.304534,322.692722 C430.610019,322.580541 431.110475,321.914615 431.221555,320.636468 C431.303969,319.803465 431.332634,319.303424 431.332634,316.553796 L431.332634,311.887545 C431.332634,311.164335 431.303969,310.414871 431.303969,309.609316 C431.303969,308.137836 431.249026,307.470717 431.026867,306.887137 C430.776041,306.165121 430.249309,305.832158 429.304534,305.721171 L429.304534,304.943064 L429.969818,304.970513 C430.693627,304.999155 431.694539,304.999155 433.02869,304.999155 C434.334176,304.999155 435.362559,304.999155 436.056509,304.970513 L436.725376,304.943064 L436.725376,305.721171 C435.529776,305.80471 434.91824,306.554174 434.805966,307.80368 C434.723552,308.610428 434.723552,309.387341 434.723552,311.887545 L434.723552,316.553796 C434.723552,320.192518 434.751023,320.803546 435.02932,321.525562 C435.280145,322.247578 435.779406,322.609183 436.725376,322.692722 L436.725376,323.469635 L436.056509,323.442186 Z" id="Fill-35" fill="#FFFFFF"></path>
            <path d="M444.696122,323.802836 C443.08248,323.802836 441.91674,323.580861 440.02719,322.857652 C439.943582,321.803866 439.7477,320.192756 439.52554,318.859712 L440.582589,318.691441 C441.249067,320.942221 442.722964,322.109381 444.863339,322.109381 C446.835302,322.109381 448.170648,321.080657 448.170648,319.525638 C448.170648,318.276132 447.309481,317.414487 446.057744,316.637574 L443.138617,314.775847 C441.139182,313.498893 439.971053,312.165849 439.971053,309.721736 C439.971053,306.610503 442.333588,304.61034 446.002802,304.61034 C447.781272,304.61034 449.253974,304.943303 450.560653,305.610422 C450.533182,306.276347 450.533182,306.498323 450.533182,307.359968 C450.533182,308.360049 450.533182,308.636922 450.560653,309.415028 L449.503604,309.415028 C449.114228,307.416058 447.863686,306.303796 445.946665,306.303796 C444.223137,306.303796 442.972595,307.387416 442.972595,308.914987 C442.972595,310.249225 443.889898,311.137126 445.3626,312.081117 L447.725135,313.608687 C449.976589,315.081361 451.254603,316.497944 451.254603,318.720083 C451.254603,321.747776 448.587495,323.802836 444.696122,323.802836" id="Fill-37" fill="#FFFFFF"></path>
            <path d="M467.042256,323.052894 C466.791431,323.469396 466.514329,323.552935 464.98549,323.552935 C464.040715,323.552935 463.123411,323.498038 462.178637,323.469396 C460.843291,323.441947 459.50914,323.385857 458.174989,323.385857 C456.842032,323.385857 455.507881,323.414499 454.17373,323.469396 L454.17373,322.692483 C455.423079,322.580302 455.979672,321.858286 456.091946,320.637423 C456.17436,319.803226 456.17436,318.914132 456.17436,317.4701 L456.17436,309.609077 C456.17436,308.137597 456.091946,307.470478 455.868592,306.888092 C455.618961,306.166076 455.1197,305.83192 454.17373,305.722126 L454.17373,304.944019 L467.180807,304.944019 C467.180807,305.748381 467.153336,306.582578 467.153336,307.388133 C467.153336,308.054058 467.12467,308.692535 467.180807,309.359654 L466.179895,309.359654 C465.986402,307.221054 465.069098,306.638668 461.761789,306.638668 C461.149059,306.638668 460.34403,306.664923 459.676357,306.693565 C459.62022,307.775992 459.593943,308.137597 459.593943,309.748707 L459.593943,312.970927 C460.009596,312.998375 460.34403,312.998375 460.843291,312.998375 C463.733753,312.998375 464.624779,312.581873 464.790802,311.081751 L465.791714,311.081751 C465.735577,311.525701 465.735577,312.442244 465.735577,313.831379 C465.735577,315.247962 465.764242,316.082159 465.791714,316.526109 L464.790802,316.526109 C464.707193,314.943641 463.957107,314.553395 461.094116,314.553395 C460.59366,314.553395 460.093204,314.580843 459.593943,314.580843 C459.593943,316.331582 459.62022,318.081128 459.62022,319.831868 C459.62022,320.997834 459.814908,321.385694 460.482581,321.553965 C460.899428,321.663759 461.538435,321.692401 462.399602,321.692401 C465.402337,321.692401 466.459386,321.025283 467.097199,318.748247 L468.181719,318.970222 C467.792343,320.914295 467.348024,322.525405 467.042256,323.052894" id="Fill-39" fill="#FFFFFF"></path>
            <g id="Group-43" transform="translate(127.000000, 257.531084)">
                <mask id="mask-4" fill="white">
                    <use xlink:href="#path-3"></use>
                </mask>
                <g id="Clip-42"></g>
                <path d="M11.906671,18.3970847 C11.6630123,18.7216935 11.2569144,18.8291008 10.2834738,18.8291008 C8.95768364,18.8291008 7.65817035,18.749142 6.33238014,18.7216935 C5.19530601,18.694245 4.32936196,18.6679898 3.73454797,18.6679898 C2.92235217,18.6679898 0.946805315,18.694245 0.378268252,18.7216935 L-0.000358321679,18.749142 L0.108332587,18.1798832 C0.919333986,18.0999244 1.40784587,17.8564678 1.78647245,17.3421061 C2.21884727,16.8014892 2.48997734,16.0448643 2.86860392,14.5292276 C3.21975916,13.0422328 3.38219832,12.1495586 3.95073538,9.36532205 L4.38430462,7.22791628 C4.81667944,5.06425538 4.9791186,3.7932687 4.9791186,3.11779597 C4.9791186,1.92796149 4.54554937,1.44104828 3.38219832,1.30619242 L3.49088923,0.710678468 C3.65332839,0.738127007 3.78829622,0.738127007 3.8695158,0.738127007 C4.87042769,0.738127007 5.84506266,0.764382131 6.84597455,0.764382131 C8.4154235,0.764382131 9.44380671,0.738127007 9.90484727,0.738127007 C9.98487245,0.738127007 10.1473116,0.738127007 10.3372221,0.710678468 L10.2285312,1.30619242 C9.39005846,1.35989608 8.93021231,1.57590414 8.52411441,2.11652101 C7.84808084,2.98174669 7.46945427,4.14532605 6.46734797,9.36532205 L6.11499832,11.1769256 C5.6826235,13.3942902 5.52018434,14.1509151 5.3852165,15.15219 C5.33027385,15.4767989 5.30399692,15.8276628 5.30399692,15.9899672 C5.30399692,17.0449458 5.84506266,17.3695546 7.57695077,17.3695546 C10.6358235,17.3695546 11.7717032,16.7465921 12.7726151,14.5292276 L13.5035913,14.8001327 C12.8538347,16.5854811 12.2315494,17.9650686 11.906671,18.3970847" id="Fill-41" fill="#FFFFFF" mask="url(#mask-4)"></path>
            </g>
            <path d="M143.991136,276.577387 C143.45007,276.577387 143.097721,276.280226 143.097721,275.793313 C143.097721,275.549856 143.17894,275.116647 143.315103,274.522326 C143.666258,273.087842 144.153575,271.141383 144.424705,270.113852 C144.803332,268.70801 144.965771,267.734183 144.965771,267.354678 C144.965771,267.00262 144.803332,266.841509 144.505925,266.841509 C144.262266,266.841509 144.018608,266.922661 143.45007,267.084966 L143.26016,267.13867 L143.17894,266.382045 C144.66717,265.813979 146.129122,265.461922 146.860098,265.461922 C147.266196,265.461922 147.427441,265.597971 147.427441,265.92258 C147.427441,266.247189 147.292473,267.112414 146.805156,269.00517 L146.400252,270.600766 C145.723024,273.223891 145.560585,274.142821 145.560585,274.57603 C145.560585,274.981791 145.777967,275.225248 146.18287,275.225248 C146.426529,275.225248 146.913847,275.116647 147.6711,274.846935 L147.726043,275.60356 C146.291561,276.171626 144.748389,276.577387 143.991136,276.577387 M146.941318,262.757644 C146.102845,262.757644 145.560585,262.244476 145.560585,261.459209 C145.560585,260.486576 146.26409,259.80991 147.238725,259.80991 C148.050921,259.80991 148.564515,260.296823 148.564515,261.08209 C148.564515,262.054723 147.888482,262.757644 146.941318,262.757644" id="Fill-44" fill="#FFFFFF"></path>
            <path d="M158.86925,266.625024 C158.381932,266.625024 157.787118,266.814777 157.029865,267.220538 C156.243946,267.626299 155.676603,268.058315 155.378002,268.464076 C155.026847,268.950989 154.72944,269.788766 154.323342,271.574115 C153.917244,273.250862 153.727333,274.305841 153.727333,274.684153 C153.727333,275.198515 154.323342,275.495675 155.405473,275.495675 C156.515076,275.495675 157.46224,274.981314 158.165745,273.981232 C159.247876,272.440534 160.060072,269.978519 160.060072,268.220619 C160.060072,267.194283 159.653974,266.625024 158.86925,266.625024 M158.896721,275.305923 C157.840866,276.224852 156.596296,276.604358 154.674497,276.604358 C152.563982,276.604358 151.29194,276.2523 151.29194,275.711684 C151.29194,275.495675 151.319412,275.22477 151.589347,274.08864 L152.997552,267.949714 C153.457398,265.975806 153.808553,264.407659 154.29587,262.190295 C154.567001,260.891859 154.674497,260.188938 154.674497,259.838074 C154.674497,259.512272 154.513252,259.323713 154.214651,259.323713 C154.025935,259.323713 153.429926,259.458568 153.023829,259.593424 L152.997552,258.809351 L153.321236,258.70075 C154.783188,258.21503 156.001482,257.944125 156.568824,257.944125 C156.921174,257.944125 157.137361,258.10643 157.137361,258.40359 C157.137361,258.70075 157.002394,259.377416 156.542547,261.378773 L155.730352,264.948276 C155.460416,266.111855 155.378002,266.543872 155.297977,266.922184 C157.002394,265.922103 158.490623,265.462638 159.84269,265.462638 C161.494553,265.462638 162.305554,266.300415 162.305554,268.004611 C162.305554,270.519136 160.872268,273.601726 158.896721,275.305923" id="Fill-46" fill="#FFFFFF"></path>
            <path d="M170.992347,266.543991 C169.694028,266.543991 168.313295,268.329339 167.637262,270.952465 L167.907197,270.952465 C170.42381,270.952465 172.318137,269.627775 172.318137,267.89613 C172.318137,267.139505 171.723323,266.543991 170.992347,266.543991 M168.205799,271.952546 C168.015888,271.952546 167.772229,271.952546 167.41988,271.926291 C167.33866,272.412011 167.312383,272.817772 167.312383,273.224727 C167.312383,274.603121 167.799701,275.33349 168.746864,275.33349 C169.612808,275.33349 170.69494,274.872832 172.290666,273.872751 L172.588073,274.792874 C170.586249,276.036412 169.071743,276.604477 167.69101,276.604477 C166.01287,276.604477 165.093178,275.604396 165.093178,273.791599 C165.093178,269.329421 168.124579,265.462757 171.614632,265.462757 C173.320243,265.462757 174.321155,266.246831 174.321155,267.597776 C174.321155,270.087239 171.66838,271.952546 168.205799,271.952546" id="Fill-48" fill="#FFFFFF"></path>
            <path d="M185.173047,268.950631 L184.279631,268.870672 C184.33338,268.54487 184.360851,268.166558 184.360851,267.8145 C184.360851,267.32878 183.928476,266.976723 183.251248,266.976723 C182.84515,266.976723 182.440247,267.22018 182.087897,267.625941 C181.059514,268.788327 180.653416,270.627379 180.058602,273.63001 L179.543813,276.253136 C178.516624,276.306839 178.245494,276.334288 177.18964,276.469144 C177.46077,275.44042 177.649486,274.630092 177.866868,273.711162 L178.461682,271.195444 C178.86778,269.492441 179.05769,268.436269 179.05769,267.869397 C179.05769,267.193925 178.895251,266.895571 178.570373,266.895571 C178.407933,266.895571 178.164275,266.949275 177.893145,267.030427 L177.217111,267.246435 L177.135891,266.436106 C178.461682,265.894296 179.977382,265.46228 180.653416,265.46228 C180.924546,265.46228 181.086985,265.569687 181.140733,265.840592 C181.221953,266.165201 181.275701,266.543514 181.303173,267.002978 C182.520272,266.002897 183.603598,265.434831 184.360851,265.434831 C184.87564,265.434831 185.524202,265.705736 186.147682,266.165201 C185.714112,267.139028 185.389234,268.031702 185.173047,268.950631" id="Fill-50" fill="#FFFFFF"></path>
            <path d="M194.345126,267.112176 L192.099644,267.057279 L190.96257,272.601883 C190.665163,274.035175 190.637691,274.440936 190.637691,274.656944 C190.637691,275.035256 190.827602,275.252458 191.178757,275.252458 C191.368667,275.252458 191.774765,275.143857 192.424522,274.954104 L192.694458,274.872952 L192.775677,275.658219 C191.368667,276.225091 189.906715,276.604596 189.12199,276.604596 C188.553453,276.604596 188.202298,276.334885 188.202298,275.81933 C188.202298,275.361058 188.309795,274.684392 188.525982,273.845422 C188.770835,272.899044 188.959551,272.11497 189.175739,271.059992 L190.015406,267.057279 L188.580925,267.084727 L188.770835,266.219501 C190.61022,265.894893 191.2337,264.434153 191.747294,262.866006 L193.046807,262.595101 L192.369579,265.786292 L194.616256,265.760037 L194.345126,267.112176 Z" id="Fill-52" fill="#FFFFFF"></path>
            <path d="M202.43591,266.543991 C201.137591,266.543991 199.756858,268.329339 199.07963,270.952465 L199.350761,270.952465 C201.867373,270.952465 203.7617,269.627775 203.7617,267.89613 C203.7617,267.139505 203.166886,266.543991 202.43591,266.543991 L202.43591,266.543991 Z M199.649362,271.952546 C199.459451,271.952546 199.215793,271.952546 198.863443,271.926291 C198.782223,272.412011 198.755947,272.817772 198.755947,273.224727 C198.755947,274.603121 199.243264,275.33349 200.190428,275.33349 C201.055177,275.33349 202.138503,274.872832 203.734229,273.872751 L204.031636,274.792874 C202.029812,276.036412 200.515306,276.604477 199.134573,276.604477 C197.456433,276.604477 196.536741,275.604396 196.536741,273.791599 C196.536741,269.329421 199.568142,265.462757 203.058196,265.462757 C204.762612,265.462757 205.764719,266.246831 205.764719,267.597776 C205.764719,270.087239 203.111944,271.952546 199.649362,271.952546 L199.649362,271.952546 Z M202.652098,263.784816 L201.786154,263.083088 L205.087491,259.350087 L207.522884,259.945601 L202.652098,263.784816 Z" id="Fill-54" fill="#FFFFFF"></path>
            <path d="M254.291029,262.189937 L253.506305,262.189937 C253.533776,261.892776 253.561247,261.784176 253.561247,261.594423 C253.561247,260.107428 252.586612,259.59426 249.880089,259.59426 C248.987868,259.59426 248.12073,259.59426 247.228509,259.675412 C246.659972,261.919032 246.281345,263.866684 245.821499,266.273802 L246.822411,266.273802 C248.554299,266.273802 249.285275,266.246353 249.907561,266.138946 C250.908472,265.949193 251.503286,265.353679 251.801888,264.272445 L252.53167,264.272445 C252.153043,265.868041 251.693197,268.139109 251.503286,269.518697 L250.773505,269.518697 C250.800976,269.328944 250.827253,269.167833 250.827253,269.059232 C250.827253,267.895652 250.096277,267.51734 247.877071,267.51734 C246.551281,267.51734 246.063963,267.543595 245.57784,267.572237 C245.441678,268.24771 245.57784,267.653389 244.955555,270.763428 C244.658148,272.277871 244.549457,273.224249 244.549457,273.711162 C244.549457,274.65754 245.03558,274.900997 246.849882,274.900997 C250.258716,274.900997 251.31457,274.36038 252.370425,272.034415 L253.046458,272.304126 C252.45045,274.089475 251.801888,275.521573 251.423261,275.982231 C251.152131,276.280584 250.800976,276.360543 249.663902,276.360543 C248.716738,276.360543 247.742103,276.334288 246.79494,276.306839 C245.550369,276.280584 244.278327,276.253136 243.033756,276.253136 C241.761714,276.253136 240.517144,276.280584 239.245102,276.280584 L239.353793,275.711326 C240.164794,275.631367 240.652112,275.38791 241.030738,274.873548 C241.464307,274.331738 241.735437,273.575113 242.114064,272.06067 C242.465219,270.546227 242.57391,269.924458 243.196196,266.895571 L243.62857,264.759359 C244.06214,262.650595 244.224579,261.324711 244.224579,260.648045 C244.224579,259.45821 243.79101,258.972491 242.627658,258.836441 L242.736349,258.240927 L255.049477,258.240927 C254.750875,259.45821 254.48094,260.91895 254.291029,262.189937 L254.291029,262.189937 Z M249.149113,256.429324 L248.283169,255.726403 L251.584506,251.994595 L254.04737,252.590109 L249.149113,256.429324 Z" id="Fill-56" fill="#FFFFFF"></path>
            <path d="M262.896244,277.442135 C261.976551,277.091271 260.866949,276.711765 259.729874,276.38835 C257.863018,276.847814 256.5647,278.227402 256.5647,279.795549 C256.5647,281.256288 257.80927,282.228921 259.757346,282.228921 C262.111519,282.228921 264.275782,280.633326 264.275782,278.902875 C264.275782,278.253657 263.870879,277.821641 262.896244,277.442135 L262.896244,277.442135 Z M262.490146,266.490168 C261.029388,266.490168 259.838565,268.03206 259.838565,269.869918 C259.838565,271.142099 260.569542,272.007324 261.624202,272.007324 C263.058683,272.007324 264.222034,270.519136 264.222034,268.681277 C264.222034,267.327945 263.546,266.490168 262.490146,266.490168 L262.490146,266.490168 Z M267.658339,267.084488 L265.818954,267.05704 C266.143832,267.626299 266.252523,268.058315 266.252523,268.681277 C266.252523,271.168354 264.168286,273.088558 261.461763,273.088558 C260.948168,273.088558 260.569542,273.034854 260.001004,272.87255 C259.323777,273.278311 259.107589,273.46687 259.107589,273.71152 C259.107589,274.007487 259.404996,274.143537 260.595818,274.521849 L262.761276,275.198515 C264.925539,275.873988 265.981393,276.523206 265.981393,278.091352 C265.981393,280.957935 263.139902,283.202748 259.513687,283.202748 C256.537228,283.202748 254.724121,281.795712 254.724121,279.498388 C254.724121,277.388431 256.076188,276.38835 258.295393,275.820284 C256.943326,275.333371 256.644725,275.117363 256.644725,274.657898 C256.644725,274.062384 257.429449,273.332015 259.053841,272.440534 C258.215368,271.84502 257.80927,271.059753 257.80927,269.978519 C257.80927,267.409097 259.864842,265.462638 262.571365,265.462638 C263.27487,265.462638 263.789659,265.54379 264.384473,265.759798 L267.95694,265.759798 L267.658339,267.084488 Z" id="Fill-58" fill="#FFFFFF"></path>
            <path d="M276.58234,266.598291 C275.500209,266.598291 274.418077,267.409813 273.49719,268.924257 C272.468807,270.573556 271.737831,272.764665 271.737831,274.197956 C271.737831,275.035733 272.143929,275.495198 272.821157,275.495198 C273.822069,275.495198 275.581428,274.603717 276.257462,273.927051 C276.636088,273.548739 276.85347,273.008122 277.123406,271.980592 C277.555781,270.330099 277.963073,268.788207 278.205537,267.002859 C277.610723,266.733147 277.042186,266.598291 276.58234,266.598291 M277.826911,276.60388 C277.339593,276.60388 277.178349,276.30672 276.933495,274.980836 C274.931672,276.118161 273.470914,276.631329 272.036432,276.631329 C270.412041,276.631329 269.466072,275.792358 269.466072,274.305364 C269.466072,272.872073 270.168382,270.844461 271.251708,269.167713 C272.712466,266.895452 274.525574,265.462161 277.285845,265.462161 C278.504139,265.462161 279.613742,265.678169 280.777093,265.976522 L280.64093,266.408538 C279.66749,269.518577 278.963985,272.953225 278.963985,274.116804 C278.963985,274.847174 279.126424,275.251741 279.451302,275.251741 C279.66749,275.251741 280.236027,275.090631 280.91206,274.847174 L280.99328,275.684951 C279.613742,276.198119 278.286757,276.60388 277.826911,276.60388" id="Fill-60" fill="#FFFFFF"></path>
            <path d="M289.815279,260.702823 C288.923058,264.299775 288.029643,268.302488 287.163699,272.115448 C286.892569,273.358986 286.757601,274.170508 286.757601,274.576269 C286.757601,274.980836 286.947511,275.170589 287.353609,275.170589 C287.623545,275.170589 288.110862,275.061989 288.841839,274.847174 L288.895587,275.603799 C287.514854,276.144416 285.836714,276.60388 285.106932,276.60388 C284.593338,276.60388 284.294737,276.30672 284.294737,275.793552 C284.294737,275.414046 284.375956,274.927133 284.782054,273.22413 C285.620527,269.654626 286.541413,265.840473 287.27239,262.433274 C287.597268,260.865127 287.758513,260.081054 287.758513,259.837597 C287.758513,259.512988 287.597268,259.350684 287.298667,259.350684 C287.028731,259.350684 286.541413,259.459284 286.107844,259.620395 L286.054096,258.810067 C287.433634,258.323154 288.949335,257.944841 289.707783,257.944841 C290.086409,257.944841 290.275125,258.105952 290.275125,258.404306 C290.275125,258.674018 290.166434,259.295787 289.815279,260.702823" id="Fill-62" fill="#FFFFFF"></path>
            <path d="M293.573476,276.577387 C293.032411,276.577387 292.680061,276.280226 292.680061,275.793313 C292.680061,275.549856 292.762475,275.116647 292.897443,274.522326 C293.249792,273.087842 293.735916,271.141383 294.007046,270.113852 C294.385672,268.70801 294.548111,267.734183 294.548111,267.354678 C294.548111,267.00262 294.385672,266.841509 294.088265,266.841509 C293.844606,266.841509 293.600948,266.922661 293.032411,267.084966 L292.843695,267.13867 L292.762475,266.382045 C294.24951,265.813979 295.711462,265.461922 296.442439,265.461922 C296.848537,265.461922 297.009781,265.597971 297.009781,265.92258 C297.009781,266.247189 296.874813,267.112414 296.387496,269.00517 L295.982592,270.600766 C295.305364,273.223891 295.142925,274.142821 295.142925,274.57603 C295.142925,274.981791 295.360307,275.225248 295.765211,275.225248 C296.010064,275.225248 296.496187,275.116647 297.25344,274.846935 L297.308383,275.60356 C295.873902,276.171626 294.331924,276.577387 293.573476,276.577387 M296.523658,262.757644 C295.685185,262.757644 295.142925,262.244476 295.142925,261.459209 C295.142925,260.486576 295.84643,259.80991 296.821065,259.80991 C297.633261,259.80991 298.146855,260.296823 298.146855,261.08209 C298.146855,262.054723 297.470822,262.757644 296.523658,262.757644" id="Fill-64" fill="#FFFFFF"></path>
            <path d="M307.178473,267.112176 L304.93299,267.057279 L303.795916,272.601883 C303.498509,274.035175 303.471038,274.440936 303.471038,274.656944 C303.471038,275.035256 303.660948,275.252458 304.012103,275.252458 C304.202014,275.252458 304.608112,275.143857 305.256674,274.954104 L305.527804,274.872952 L305.609024,275.658219 C304.202014,276.225091 302.740062,276.604596 301.956531,276.604596 C301.3868,276.604596 301.035645,276.334885 301.035645,275.81933 C301.035645,275.361058 301.144336,274.684392 301.360523,273.845422 C301.604182,272.899044 301.792898,272.11497 302.01028,271.059992 L302.848752,267.057279 L301.414271,267.084727 L301.604182,266.219501 C303.444761,265.894893 304.067046,264.434153 304.580641,262.866006 L305.880154,262.595101 L305.202926,265.786292 L307.448408,265.760037 L307.178473,267.112176 Z" id="Fill-66" fill="#FFFFFF"></path>
            <path d="M315.269257,266.543991 C313.970938,266.543991 312.590205,268.329339 311.912977,270.952465 L312.184107,270.952465 C314.70072,270.952465 316.595047,269.627775 316.595047,267.89613 C316.595047,267.139505 315.999039,266.543991 315.269257,266.543991 L315.269257,266.543991 Z M312.481514,271.952546 C312.292798,271.952546 312.049139,271.952546 311.69679,271.926291 C311.61557,272.412011 311.589293,272.817772 311.589293,273.224727 C311.589293,274.603121 312.076611,275.33349 313.023774,275.33349 C313.888524,275.33349 314.97185,274.872832 316.567576,273.872751 L316.866177,274.792874 C314.863159,276.036412 313.347458,276.604477 311.96792,276.604477 C310.28978,276.604477 309.370088,275.604396 309.370088,273.791599 C309.370088,269.329421 312.401489,265.462757 315.891542,265.462757 C317.595959,265.462757 318.598065,266.246831 318.598065,267.597776 C318.598065,270.087239 315.94529,271.952546 312.481514,271.952546 L312.481514,271.952546 Z M315.485444,263.784816 L314.6195,263.083088 L317.920837,259.350087 L320.35623,259.945601 L315.485444,263.784816 Z" id="Fill-68" fill="#FFFFFF"></path>
            <path d="M366.755304,262.163085 L365.97058,262.163085 C365.996857,261.893373 366.025523,261.676172 366.025523,261.541316 C366.025523,260.999505 365.835612,260.567489 365.509539,260.242881 C364.995945,259.755967 364.048781,259.567408 361.993209,259.567408 C361.423478,259.567408 360.666225,259.593663 359.990191,259.621111 C359.502874,261.838476 359.069304,263.974688 358.583181,266.273205 C359.096776,266.273205 359.611564,266.300654 360.125159,266.300654 C363.129089,266.300654 363.723903,266.029749 364.293634,264.273042 L365.023416,264.273042 C364.591041,266.029749 364.239886,267.761393 363.995033,269.546742 L363.23778,269.546742 C363.264057,269.356989 363.291528,269.194684 363.291528,269.086084 C363.291528,268.626619 363.101618,268.193409 362.776739,267.949953 C362.316893,267.597896 361.775827,267.517937 360.15263,267.517937 C359.286686,267.517937 359.043027,267.544192 358.339523,267.57164 L357.987173,269.383244 C357.473578,271.980114 357.282474,273.197397 357.282474,273.954022 C357.282474,275.062705 357.770985,275.575873 358.879394,275.711922 L358.771897,276.279988 L358.339523,276.252539 C358.123335,276.252539 356.931318,276.225091 355.902935,276.225091 C354.820804,276.225091 352.81898,276.225091 352.46663,276.252539 L352.00559,276.279988 L352.114281,275.711922 C352.927671,275.63077 353.413794,275.387313 353.793615,274.872952 C354.22599,274.332335 354.523397,273.57571 354.875746,272.061267 C355.254373,270.519375 355.389341,269.707853 355.957878,266.896168 L356.390253,264.758762 C356.823822,262.62255 356.985067,261.324114 356.985067,260.648642 C356.985067,259.458807 356.552692,258.971894 355.389341,258.837038 L355.498032,258.241524 L367.512557,258.241524 C367.241427,259.458807 366.972686,260.86465 366.755304,262.163085" id="Fill-70" fill="#FFFFFF"></path>
            <path d="M375.974682,268.950631 L375.081267,268.870672 C375.13621,268.54487 375.162486,268.166558 375.162486,267.8145 C375.162486,267.32878 374.730112,266.976723 374.054078,266.976723 C373.646786,266.976723 373.241882,267.22018 372.889533,267.625941 C371.862344,268.788327 371.455051,270.627379 370.860237,273.63001 L370.345449,276.253136 C369.317065,276.306839 369.04713,276.334288 367.991275,276.469144 C368.262405,275.44042 368.451121,274.630092 368.668503,273.711162 L369.263317,271.195444 C369.669415,269.492441 369.859326,268.436269 369.859326,267.869397 C369.859326,267.193925 369.695692,266.895571 369.372008,266.895571 C369.209569,266.895571 368.96591,266.949275 368.69478,267.030427 L368.018747,267.246435 L367.936333,266.436106 C369.263317,265.894296 370.777823,265.46228 371.455051,265.46228 C371.726182,265.46228 371.888621,265.569687 371.942369,265.840592 C372.023589,266.165201 372.077337,266.543514 372.104808,267.002978 C373.321907,266.002897 374.405233,265.434831 375.162486,265.434831 C375.677275,265.434831 376.325837,265.705736 376.948123,266.165201 C376.515748,267.139028 376.192064,268.031702 375.974682,268.950631" id="Fill-72" fill="#FFFFFF"></path>
            <path d="M385.406187,266.598291 C384.322861,266.598291 383.241924,267.409813 382.321037,268.924257 C381.293848,270.573556 380.561677,272.764665 380.561677,274.197956 C380.561677,275.035733 380.967775,275.495198 381.645003,275.495198 C382.645915,275.495198 384.405275,274.603717 385.081308,273.927051 C385.459935,273.548739 385.677317,273.008122 385.947252,271.980592 C386.380822,270.330099 386.785725,268.788207 387.029384,267.002859 C386.433375,266.733147 385.866033,266.598291 385.406187,266.598291 M386.650757,276.60388 C386.164634,276.60388 386.001001,276.30672 385.757342,274.980836 C383.755518,276.118161 382.29476,276.631329 380.859084,276.631329 C379.235887,276.631329 378.288724,275.792358 378.288724,274.305364 C378.288724,272.872073 378.992229,270.844461 380.07436,269.167713 C381.536312,266.895452 383.34942,265.462161 386.109691,265.462161 C387.326791,265.462161 388.436394,265.678169 389.600939,265.976522 L389.465971,266.408538 C388.491336,269.518577 387.787831,272.953225 387.787831,274.116804 C387.787831,274.847174 387.949076,275.251741 388.273954,275.251741 C388.491336,275.251741 389.058679,275.090631 389.735907,274.847174 L389.815932,275.684951 C388.436394,276.198119 387.110603,276.60388 386.650757,276.60388" id="Fill-74" fill="#FFFFFF"></path>
            <path d="M399.559415,267.112176 L397.312738,267.057279 L396.175664,272.601883 C395.879451,274.035175 395.85198,274.440936 395.85198,274.656944 C395.85198,275.035256 396.040696,275.252458 396.393046,275.252458 C396.582956,275.252458 396.989054,275.143857 397.638811,274.954104 L397.907552,274.872952 L397.989966,275.658219 C396.582956,276.225091 395.121004,276.604596 394.336279,276.604596 C393.767742,276.604596 393.415393,276.334885 393.415393,275.81933 C393.415393,275.361058 393.524084,274.684392 393.741465,273.845422 C393.98393,272.899044 394.17384,272.11497 394.390028,271.059992 L395.229695,267.057279 L393.795214,267.084727 L393.98393,266.219501 C395.824509,265.894893 396.447989,264.434153 396.960389,262.866006 L398.259902,262.595101 L397.583868,265.786292 L399.829351,265.760037 L399.559415,267.112176 Z" id="Fill-76" fill="#FFFFFF"></path>
            <path d="M407.649721,266.543991 C406.351403,266.543991 404.97067,268.329339 404.293442,270.952465 L404.564572,270.952465 C407.081184,270.952465 408.975512,269.627775 408.975512,267.89613 C408.975512,267.139505 408.380698,266.543991 407.649721,266.543991 M404.863173,271.952546 C404.673263,271.952546 404.429604,271.952546 404.078449,271.926291 C403.996035,272.412011 403.969758,272.817772 403.969758,273.224727 C403.969758,274.603121 404.457075,275.33349 405.404239,275.33349 C406.270183,275.33349 407.352314,274.872832 408.949235,273.872751 L409.246642,274.792874 C407.244818,276.036412 405.729117,276.604477 404.348384,276.604477 C402.670244,276.604477 401.750552,275.604396 401.750552,273.791599 C401.750552,269.329421 404.781954,265.462757 408.272007,265.462757 C409.976423,265.462757 410.97853,266.246831 410.97853,267.597776 C410.97853,270.087239 408.325755,271.952546 404.863173,271.952546" id="Fill-78" fill="#FFFFFF"></path>
            <path d="M421.829824,268.950631 L420.937603,268.870672 C420.991351,268.54487 421.017628,268.166558 421.017628,267.8145 C421.017628,267.32878 420.585253,266.976723 419.90922,266.976723 C419.503122,266.976723 419.097024,267.22018 418.745869,267.625941 C417.717486,268.788327 417.311388,270.627379 416.715379,273.63001 L416.201785,276.253136 C415.173402,276.306839 414.903466,276.334288 413.846417,276.469144 C414.118742,275.44042 414.307458,274.630092 414.523645,273.711162 L415.119653,271.195444 C415.525751,269.492441 415.715662,268.436269 415.715662,267.869397 C415.715662,267.193925 415.552028,266.895571 415.228344,266.895571 C415.064711,266.895571 414.822246,266.949275 414.551116,267.030427 L413.875083,267.246435 L413.792669,266.436106 C415.119653,265.894296 416.63416,265.46228 417.311388,265.46228 C417.581323,265.46228 417.743763,265.569687 417.798705,265.840592 C417.87873,266.165201 417.933673,266.543514 417.961144,267.002978 C419.178244,266.002897 420.260375,265.434831 421.017628,265.434831 C421.533611,265.434831 422.182174,265.705736 422.804459,266.165201 C422.37089,267.139028 422.047206,268.031702 421.829824,268.950631" id="Fill-80" fill="#FFFFFF"></path>
            <path d="M432.621398,276.604119 C432.080332,276.604119 431.755454,276.280704 431.755454,275.792597 C431.755454,275.467988 431.86295,274.873668 432.187829,273.521529 L432.457764,272.385398 C433.271155,269.004454 433.459871,267.869517 433.459871,267.408859 C433.459871,267.003098 433.271155,266.78709 432.892528,266.78709 C432.431488,266.78709 431.67304,267.057995 430.862039,267.543714 C429.996095,268.031821 429.346338,268.598693 429.02146,269.085606 C428.777801,269.492561 428.589085,270.194289 428.264206,271.628773 C427.830637,273.601488 427.560702,274.95482 427.344514,276.225807 C426.28866,276.306959 426.018724,276.334407 424.962869,276.469263 C425.503935,274.441652 425.910033,272.76371 426.316131,270.898403 C426.722229,269.059351 426.884668,268.192932 426.884668,267.707212 C426.884668,267.08425 426.694757,266.78709 426.28866,266.78709 C426.072472,266.78709 425.612626,266.89569 424.962869,267.111698 L424.909121,266.355073 C426.208634,265.840712 427.615644,265.462399 428.264206,265.462399 C428.860215,265.462399 429.048931,265.813263 429.048931,267.08425 L429.048931,267.301451 C431.105697,266.137872 433.216212,265.462399 434.678164,265.462399 C435.570385,265.462399 435.922735,265.678407 435.922735,266.219024 C435.922735,266.78709 435.760296,267.679764 435.191759,269.86968 C434.868075,271.114411 434.569474,272.440295 434.460783,273.034616 C434.298343,273.818689 434.217124,274.305602 434.217124,274.602763 C434.217124,275.008524 434.434506,275.224532 434.813132,275.224532 C435.056791,275.224532 435.570385,275.117124 436.220142,274.873668 L436.301362,275.658935 C434.868075,276.17091 433.242489,276.604119 432.621398,276.604119" id="Fill-82" fill="#FFFFFF"></path>
            <path d="M441.06274,276.577387 C440.521674,276.577387 440.169325,276.280226 440.169325,275.793313 C440.169325,275.549856 440.24935,275.116647 440.386707,274.522326 C440.737862,273.087842 441.225179,271.141383 441.495115,270.113852 C441.874936,268.70801 442.036181,267.734183 442.036181,267.354678 C442.036181,267.00262 441.874936,266.841509 441.577529,266.841509 C441.33387,266.841509 441.089017,266.922661 440.521674,267.084966 L440.332958,267.13867 L440.24935,266.382045 C441.738774,265.813979 443.200726,265.461922 443.930508,265.461922 C444.336606,265.461922 444.499045,265.597971 444.499045,265.92258 C444.499045,266.247189 444.364077,267.112414 443.875565,269.00517 L443.470662,270.600766 C442.793434,273.223891 442.632189,274.142821 442.632189,274.57603 C442.632189,274.981791 442.848377,275.225248 443.254474,275.225248 C443.498133,275.225248 443.984256,275.116647 444.742704,274.846935 L444.796452,275.60356 C443.363165,276.171626 441.819993,276.577387 441.06274,276.577387 M444.012922,262.757644 C443.173255,262.757644 442.632189,262.244476 442.632189,261.459209 C442.632189,260.486576 443.335694,259.80991 444.310329,259.80991 C445.120136,259.80991 445.634925,260.296823 445.634925,261.08209 C445.634925,262.054723 444.960086,262.757644 444.012922,262.757644" id="Fill-84" fill="#FFFFFF"></path>
            <path d="M454.667737,267.112176 L452.42106,267.057279 L451.28518,272.601883 C450.986578,274.035175 450.960302,274.440936 450.960302,274.656944 C450.960302,275.035256 451.150212,275.252458 451.501367,275.252458 C451.691278,275.252458 452.096181,275.143857 452.745938,274.954104 L453.015874,274.872952 L453.098288,275.658219 C451.691278,276.225091 450.229325,276.604596 449.444601,276.604596 C448.874869,276.604596 448.524909,276.334885 448.524909,275.81933 C448.524909,275.361058 448.632405,274.684392 448.848592,273.845422 C449.092251,272.899044 449.280967,272.11497 449.498349,271.059992 L450.338016,267.057279 L448.903535,267.084727 L449.092251,266.219501 C450.93283,265.894893 451.55631,264.434153 452.06871,262.866006 L453.368223,262.595101 L452.69219,265.786292 L454.937672,265.760037 L454.667737,267.112176 Z" id="Fill-86" fill="#FFFFFF"></path>
            <path d="M462.758043,266.543991 C461.45853,266.543991 460.078991,268.329339 459.402957,270.952465 L459.672893,270.952465 C462.189506,270.952465 464.083833,269.627775 464.083833,267.89613 C464.083833,267.139505 463.489019,266.543991 462.758043,266.543991 L462.758043,266.543991 Z M459.971495,271.952546 C459.781584,271.952546 459.537925,271.952546 459.18677,271.926291 C459.104356,272.412011 459.078079,272.817772 459.078079,273.224727 C459.078079,274.603121 459.564202,275.33349 460.511366,275.33349 C461.378504,275.33349 462.460636,274.872832 464.057556,273.872751 L464.354963,274.792874 C462.351945,276.036412 460.837439,276.604477 459.455511,276.604477 C457.778566,276.604477 456.858874,275.604396 456.858874,273.791599 C456.858874,269.329421 459.890275,265.462757 463.380328,265.462757 C465.084745,265.462757 466.085657,266.246831 466.085657,267.597776 C466.085657,270.087239 463.434076,271.952546 459.971495,271.952546 L459.971495,271.952546 Z M462.975425,263.784816 L462.108286,263.083088 L465.410818,259.350087 L467.846211,259.945601 L462.975425,263.784816 Z" id="Fill-88" fill="#FFFFFF"></path>
            <path d="M336.091568,271.56767 C337.90587,271.56767 339.376184,270.098577 339.376184,268.28578 C339.376184,266.472983 337.90587,265.002696 336.091568,265.002696 C334.277266,265.002696 332.806953,266.472983 332.806953,268.28578 C332.806953,270.098577 334.277266,271.56767 336.091568,271.56767" id="Fill-90" fill="#FFFFFF"></path>
            <path d="M223.330364,271.56767 C225.144666,271.56767 226.614979,270.098577 226.614979,268.28578 C226.614979,266.472983 225.144666,265.002696 223.330364,265.002696 C221.516062,265.002696 220.045749,266.472983 220.045749,268.28578 C220.045749,270.098577 221.516062,271.56767 223.330364,271.56767" id="Fill-92" fill="#FFFFFF"></path>
            <polygon id="Fill-94" fill="#FFFFFF" points="128.760554 289.173282 466.272103 289.173282 466.272103 287.884394 128.760554 287.884394"></polygon>
            <g id="Group-99" transform="translate(128.994406, 128.642294)">
                <mask id="mask-6" fill="white">
                    <use xlink:href="#path-5"></use>
                </mask>
                <g id="Clip-98"></g>
            </g>
            <path d="M215.588943,212.070576 C214.797053,212.268683 214.040994,212.843909 214.298985,213.359464 C215.07296,214.391768 216.62091,213.101686 217.910868,213.101686 C216.362918,213.617241 214.556977,213.359464 213.267019,214.649545 C214.298985,215.422878 215.330952,214.906129 216.362918,214.906129 C216.362918,215.422878 216.878902,215.422878 217.136893,215.680655 C215.846935,216.196211 214.814969,217.227321 214.556977,218.000654 C214.040994,219.290735 212.749841,219.80629 211.977061,220.8374 L211.977061,221.611927 C209.39595,223.931925 206.558043,225.479784 204.492916,228.316531 C204.752102,228.316531 204.752102,228.574308 204.752102,228.832086 C204.236118,229.605418 203.202957,229.863196 202.944966,230.636529 C202.944966,230.894306 202.944966,231.153277 203.202957,231.153277 C206.300051,230.120974 208.621976,227.799782 211.461078,226.768672 C213.525011,226.253116 215.07296,224.964229 216.878902,224.448673 C218.170054,224.190896 219.716809,223.674147 221.007962,223.41637 C221.007962,223.674147 221.007962,223.931925 221.265953,223.931925 L223.329886,223.931925 C223.071895,224.448673 222.039928,224.190896 222.29792,224.448673 C223.071895,225.222006 224.619844,224.964229 225.653005,224.448673 C226.42698,223.931925 227.200955,223.931925 228.232921,223.931925 C228.490913,223.931925 228.490913,223.41637 228.490913,223.158592 C229.264888,223.41637 229.780871,223.41637 230.554846,223.41637 C236.747839,222.127482 242.68284,220.8374 248.35985,218.000654 C241.650874,212.843909 233.134762,211.038272 225.137022,208.718274 C225.910997,208.718274 226.683777,209.491607 227.458946,208.718274 C226.168988,207.687164 224.619844,208.202719 223.329886,207.429386 C223.587878,207.429386 224.103861,207.687164 224.363047,207.170415 C222.29792,206.139305 220.233987,206.139305 218.170054,205.62375 C219.460012,205.365972 220.233987,204.334862 220.233987,203.04478 C220.233987,202.787003 219.716809,202.787003 219.460012,202.787003 C216.362918,204.334862 214.298985,207.170415 213.009027,210.52391 C214.814969,211.555021 216.878902,210.781688 218.684843,211.038272 C217.910868,211.812798 216.62091,211.812798 215.588943,212.070576" id="Fill-100" fill="#FEFEFE"></path>
            <path d="M205.009615,202.013431 C202.375951,204.800055 199.590597,207.429147 196.236706,209.23359 C193.913587,213.87478 191.333671,218.000415 187.97978,222.385021 C187.97978,222.642798 188.237772,222.900576 188.237772,222.900576 C194.430765,215.938194 200.107775,210.006923 208.105515,205.107956 C208.621498,204.850178 207.33154,205.881288 208.364701,205.623511 C211.718592,204.850178 212.750558,201.497876 214.298508,198.918907 C216.363635,195.566605 219.975517,194.277717 222.555434,191.44097 C222.555434,191.698748 222.555434,191.956525 222.298636,192.214303 C222.555434,192.472081 222.81462,192.472081 223.071417,192.472081 C224.104578,191.698748 225.394536,191.956525 226.16851,190.925415 C224.104578,190.152082 221.524662,189.894305 219.459534,190.667638 C214.04171,193.245413 209.396667,197.372241 205.009615,202.013431" id="Fill-102" fill="#FEFEFE"></path>
            <path d="M208.880326,206.912876 C209.110846,206.452218 209.396309,206.397321 209.6543,205.881766 C209.6543,205.622795 209.6543,205.366211 209.396309,205.366211 C208.364342,205.622795 207.590368,206.655099 207.332376,207.686209 C207.332376,207.943986 207.590368,207.943986 207.848359,207.943986 C208.364342,207.686209 208.622334,207.429625 208.880326,206.912876" id="Fill-104" fill="#FEFEFE"></path>
            <path d="M229.522879,226.511013 C228.490913,227.026569 226.683777,227.026569 226.42698,228.31665 C226.168988,228.832205 227.200955,228.574427 227.716938,228.574427 C229.522879,227.799901 231.588006,228.574427 233.134762,227.026569 C232.619973,226.511013 231.844804,226.768791 231.330015,225.995458 C230.812837,225.737681 230.038862,226.253236 229.522879,226.511013" id="Fill-106" fill="#FEFEFE"></path>
            <g id="Group-110" transform="translate(235.690909, 228.889131)">
                <mask id="mask-8" fill="white">
                    <use xlink:href="#path-7"></use>
                </mask>
                <g id="Clip-109"></g>
            </g>
            <path d="M128.373447,243.272404 C128.88943,215.1651 128.88943,187.32025 128.88943,159.207077 L128.88943,129.03636 C136.502604,129.03636 142.072266,128.778582 149.790334,128.778582 C194.430048,128.778582 238.811771,128.520804 283.452681,128.778582 C280.355587,130.325247 276.743704,131.615329 274.420585,134.452076 C272.356653,137.031045 270.29272,139.608821 269.518745,142.703345 C266.16366,144.766759 264.099727,147.861283 262.292591,150.955808 C259.971861,155.33922 256.616776,159.207077 257.132759,164.107238 C257.648742,168.232873 258.681903,172.10073 259.455878,176.484142 C259.712675,178.032001 259.971861,179.320889 260.48665,180.868748 C261.002633,182.415413 260.48665,184.22105 261.261819,185.509938 C261.777802,186.28327 261.519811,187.314381 262.551777,187.831129 L262.551777,188.86224 C262.809769,189.120017 262.809769,189.377795 263.325752,189.377795 L263.325752,190.408905 C265.389685,192.987874 267.970795,195.309066 269.260753,198.145813 C269.776737,199.692478 266.679643,198.919146 265.389685,198.40359 C262.809769,197.113509 261.261819,195.051288 259.196692,193.245652 C259.196692,193.245652 258.9387,193.50343 258.9387,193.762401 C259.971861,195.566844 263.841735,197.888035 261.777802,199.176923 C260.745836,199.692478 259.455878,198.40359 258.422717,199.434701 C258.164725,199.950256 258.422717,200.465811 258.422717,200.981366 C256.874767,199.950256 255.326818,200.465811 253.778868,199.950256 C252.745707,199.692478 252.487716,197.629064 251.197757,197.629064 C247.843867,196.855732 244.746773,196.082399 241.392882,195.824621 C236.747839,195.309066 232.361981,194.535733 227.716938,195.309066 C223.587878,195.566844 220.491978,198.661368 217.910868,201.755892 L217.910868,202.529225 C219.718004,202.787003 220.491978,201.239144 222.039928,200.724782 C224.619844,200.208034 226.942963,199.176923 229.522879,198.661368 C233.393948,197.888035 237.00583,196.855732 240.618907,197.113509 C241.392882,197.113509 242.424848,196.855732 243.198823,197.113509 C238.55378,196.855732 234.425914,198.40359 230.038862,199.692478 C226.977601,200.592313 223.845869,200.724782 221.007962,202.271448 C227.716938,202.01367 234.425914,203.04478 240.876899,205.108194 C243.198823,205.881527 245.262756,206.912637 247.327883,208.202719 C248.35985,208.976051 248.875833,209.749384 249.907799,210.264939 C251.197757,211.038272 253.003699,211.038272 254.294851,210.52391 L255.584809,210.52391 C259.455878,209.491607 263.583743,208.460496 266.16366,205.62375 C266.16366,205.881527 266.422846,205.881527 266.679643,205.881527 C265.905668,207.943748 265.905668,210.264939 264.357718,212.070576 C264.357718,212.328353 264.099727,212.843909 264.61571,213.101686 L265.131693,213.101686 C264.873702,213.101686 264.61571,213.101686 264.61571,213.359464 C264.61571,213.875019 265.389685,213.359464 265.648871,213.875019 C264.357718,214.132797 263.06776,214.391768 262.292591,215.422878 C262.292591,215.680655 262.809769,215.680655 263.06776,215.680655 C262.551777,216.196211 261.777802,215.938433 261.519811,216.453988 C261.519811,216.453988 261.777802,216.711766 262.035794,216.711766 C261.777802,216.711766 261.519811,216.711766 261.519811,216.969543 L261.519811,217.742876 C260.745836,217.742876 260.48665,218.259625 259.971861,218.517402 C261.002633,219.290735 261.777802,218.517402 262.809769,218.517402 C259.971861,219.548513 257.648742,221.095178 254.810834,221.868511 C254.294851,221.868511 254.810834,222.643037 254.294851,222.643037 C255.068826,223.158592 255.584809,222.385259 256.358784,222.385259 C252.745707,224.448673 249.133825,226.253116 245.262756,228.574308 C245.262756,228.574308 244.746773,229.089863 244.746773,229.605418 L243.714806,229.605418 C243.198823,229.863196 243.456815,230.636529 242.940832,231.153277 C244.23079,231.92661 245.778739,230.120974 246.553909,231.153277 C246.8119,231.153277 246.036731,231.411055 245.521942,231.411055 C245.262756,231.411055 245.262756,231.92661 245.004764,231.92661 L244.23079,231.92661 C243.714806,232.442165 243.198823,232.699943 243.198823,233.473276 C242.68284,233.473276 242.166857,233.473276 241.908865,233.988831 C247.585875,233.215498 253.520876,233.731053 258.9387,230.894306 C263.06776,228.832086 266.938829,225.995339 270.29272,222.385259 C270.29272,222.385259 270.550711,222.643037 270.550711,222.900814 C269.776737,225.479784 268.228787,227.28542 266.16366,228.832086 C264.61571,229.605418 263.583743,230.894306 262.292591,231.411055 C261.519811,231.92661 260.745836,232.442165 259.971861,232.95772 C250.423783,236.310022 239.069763,234.763357 230.812837,241.20899 C230.812837,240.952406 230.554846,240.952406 230.296854,240.952406 C229.780871,241.466767 229.006896,241.725738 228.748904,242.241294 C228.748904,242.756849 229.522879,242.499071 229.780871,242.499071 C231.330015,241.466767 232.877964,240.693435 234.683906,240.177879 C232.619973,241.20899 230.554846,242.756849 228.490913,243.272404 C224.103861,244.045737 219.975995,243.787959 215.588943,243.272404 C218.170054,241.725738 220.74997,239.920102 223.587878,238.373436 C222.813903,237.856688 222.039928,237.856688 221.265953,237.856688 C219.975995,238.115659 218.426851,237.341133 217.136893,237.856688 C213.267019,239.662324 208.105992,239.146769 206.04206,243.272404" id="Fill-97" fill="#FFFFFF"></path>
            <path d="M262.292949,238.630737 L262.292949,239.146292 C266.164018,237.599626 269.001926,234.247324 272.872994,232.957243 C273.130986,232.957243 273.646969,233.472798 274.162952,233.216214 C276.486071,231.1528 279.065987,228.831608 282.419878,229.347163 C282.419878,229.604941 282.419878,229.863912 282.67787,229.863912 C282.935861,229.863912 283.193853,229.863912 283.193853,229.604941 C282.161886,230.379467 281.12992,231.1528 280.097954,231.926133 C279.839962,232.18391 280.097954,232.441688 280.355945,232.441688 C281.645903,231.926133 282.419878,230.895022 283.709836,230.379467 C283.453039,230.637245 283.453039,231.1528 283.193853,231.410578 C278.292012,235.020657 274.678935,239.146292 270.809061,243.530897 L262.810127,243.530897 C262.810127,243.271926 262.810127,243.015342 262.552135,243.015342 C253.521235,243.788675 244.747131,243.530897 235.71623,243.530897 C240.877257,242.756371 246.037089,241.209706 251.198116,240.694151 C253.262049,240.694151 255.327176,240.951928 257.6491,240.436373 C259.241243,240.083122 260.745,239.146292 262.292949,238.630737 Z" id="Fill-108" fill="#FFFFFF"></path>
            <g id="Group-113" transform="translate(321.688112, 128.642294)">
                <mask id="mask-10" fill="white">
                    <use xlink:href="#path-9"></use>
                </mask>
                <g id="Clip-112"></g>
                <path d="M37.6266428,98.6426488 C38.2477337,96.778535 38.9166008,94.7747917 37.8846344,92.9691552 C36.3366848,90.6479635 39.4337785,89.8746308 40.4645505,88.3279653 C41.2385253,87.037884 39.9485673,86.2645513 39.6917701,84.9756634 C39.4337785,84.4601082 38.4006176,84.7166924 37.8846344,83.944553 C39.6917701,83.1700269 42.5284834,81.6233614 41.2385253,79.3021698 C40.4645505,78.0132818 39.1745924,75.9498678 40.7237365,74.6609799 C42.5284834,73.6286762 45.366391,73.8864537 46.1415603,72.0820107 C47.4315183,68.9874863 44.5936106,66.4085171 43.045661,63.8307413 C42.2716862,62.2828824 41.2385253,61.251772 40.2065589,59.7039131 C39.1745924,57.8994701 37.8846344,56.3516112 37.3686512,54.2893905 C36.5946764,52.2259765 37.6266428,50.4215334 37.6266428,48.3581194 C37.8846344,44.4902622 36.852668,40.6224051 35.8207015,36.754548 C35.0467267,34.9489115 34.7875407,32.8854975 34.0147603,31.0810544 C33.7567687,30.0487507 33.4975827,29.0176403 32.7236078,27.98653 C32.4668106,27.4697814 32.4668106,26.6964487 32.7236078,26.1808935 C33.7567687,25.4075608 34.7875407,24.6342281 35.8207015,23.6019243 C36.5946764,22.3130364 36.0786931,20.5073999 34.7875407,19.7340672 C32.9815994,18.9607345 33.239591,21.5397037 31.949633,22.0552588 L31.1768526,22.0552588 C30.9176666,21.2819261 31.4324554,21.0241485 31.949633,20.5073999 C31.949633,20.2496224 31.949633,19.7340672 31.6916414,19.7340672 C30.659675,19.7340672 29.6277085,19.4762896 29.3697169,18.9607345 C26.7898008,15.3506549 23.1755295,13.5450184 19.3056554,11.998353 C20.3376218,12.2561305 21.3707827,12.5139081 22.4027491,12.5139081 C24.2098848,12.7716857 26.2726232,12.7716857 27.8205729,11.998353 C29.1117253,11.4827978 29.3697169,9.41938374 29.8857001,8.13049583 C30.4016834,7.09938551 29.6277085,5.55152661 29.1117253,4.77819387 C27.8205729,2.71477982 25.75664,1.4246985 23.6927071,0.393588176 L146.001034,0.393588176 C146.259026,38.5589911 145.743043,76.7232005 145.486246,114.888603 C97.2322596,115.661936 48.9806624,114.888603 0.727870769,114.888603 C2.27582042,109.730665 5.11372811,104.830504 9.75877147,101.478202 C10.7907379,100.962647 12.0806959,100.704869 13.370654,100.447092 C17.7577057,100.447092 22.1447575,101.737173 26.5306148,102.252728 C27.0477924,102.252728 27.5637757,102.510506 28.0797589,102.768283 C29.6277085,103.026061 31.4324554,103.026061 32.9815994,102.510506 C34.7875407,101.994951 36.852668,100.962647 37.6266428,98.6426488" id="Fill-111" fill="#FFFFFF" mask="url(#mask-10)"></path>
            </g>
            <path d="M349.508804,176.484381 C347.985937,176.104875 346.670897,176.484381 345.122947,176.484381 C343.059014,177.001129 341.251878,177.257714 339.445937,178.031046 C340.993887,177.001129 342.541836,175.968826 344.348972,175.453271 C345.63893,175.195493 346.928888,174.42216 348.218846,174.42216 C349.76799,174.163189 351.31594,173.647634 352.605898,174.163189 C353.895856,174.679938 355.959789,174.679938 356.218975,175.453271 C356.734958,177.001129 355.445,178.547795 353.895856,179.578905 C353.637864,180.09446 354.669831,180.352238 354.669831,180.867793 C354.411839,181.383348 353.637864,181.642319 353.120687,181.642319 C352.605898,181.900097 352.089915,182.67343 351.573931,183.188985 C352.089915,183.188985 351.573931,183.963511 352.089915,183.963511 C351.057948,185.252399 352.605898,187.831368 351.057948,188.34573 C349.252007,188.862478 347.188074,188.862478 345.122947,188.34573 C346.153719,188.089146 347.444871,188.604701 348.218846,187.57359 L348.218846,186.541287 C348.218846,186.283509 347.960855,186.283509 347.702863,186.283509 C347.444871,186.541287 347.188074,186.541287 347.188074,186.541287 C347.188074,186.025732 346.670897,185.510176 346.412905,185.510176 C344.863761,185.767954 343.573803,184.993428 342.541836,183.963511 C343.315811,183.70454 344.09098,183.446762 344.863761,183.70454 C345.63893,183.70454 345.380938,182.415652 346.153719,181.900097 L346.928888,181.900097 C348.478032,179.836683 351.573931,179.321128 352.089915,177.257714 C352.089915,176.742158 350.540771,176.742158 349.508804,176.484381" id="Fill-114" fill="#FFFFFF"></path>
            <text id="MINISTRE-DU-TRAVAIL" font-family="OpenSans-Light, Open Sans" font-size="31.2" font-weight="300" letter-spacing="1.03999996" fill="#FFFFFF">
                <tspan x="127" y="109">MINISTRE DU TRAVAI</tspan>
                <tspan x="454.601015" y="109">L</tspan>
            </text>
        </g>
    </g>
</svg>