<?xml version="1.0" encoding="UTF-8"?>
<svg width="759px" height="406px" viewBox="0 0 759 406" version="1.1" xmlns="http://www.w3.org/2000/svg" xmlns:xlink="http://www.w3.org/1999/xlink">
    <!-- Generator: Sketch 43.2 (39069) - http://www.bohemiancoding.com/sketch -->
    <title>logo1</title>
    <desc>Created with Sketch.</desc>
    <defs></defs>
    <g id="Page-1" stroke="none" stroke-width="1" fill="none" fill-rule="evenodd">
        <g id="logo1">
            <g id="Group" transform="translate(69.000000, 155.000000)">
                <path d="M0.689271277,95.8074 L0.689271277,0.1892 L96.5460691,0.1892 L96.5460691,95.8074 L0.689271277,95.8074 Z M49.4164202,61.9808 L26.9154628,22.6972 L25.7190372,22.6972 L23.1868298,62.382 L23.0542713,63.3136 L22.9217128,64.3812 L22.9217128,65.1802 L22.6565957,65.9792 L22.6565957,66.6456 L22.3880798,67.176 L22.2555213,67.7098 L21.9904043,68.2436 L21.7218883,68.6414 L21.4567713,69.0426 L21.0556968,69.3078 L20.6580213,69.573 L20.2569468,69.7056 L19.7267128,69.9742 L19.0605213,70.1068 L18.5268883,70.2394 L18.5268883,71.5722 L19.9918298,71.5722 L20.6580213,71.4396 L21.4567713,71.3036 L22.9217128,71.3036 L23.7204628,71.171 L25.1854043,71.171 L25.8515957,71.3036 L27.4490957,71.3036 L28.2478457,71.4396 L28.9106383,71.5722 L30.3755798,71.5722 L30.3755798,70.2394 L29.9779043,70.2394 L29.5768298,70.1068 L29.1791543,69.9742 L28.7780798,69.8416 L28.3804043,69.573 L27.9793298,69.3078 L27.7142128,69.0426 L27.3165372,68.6414 L27.1805798,68.1076 L26.9154628,67.7098 L26.6503457,67.176 L26.5177872,66.6456 L26.3818298,65.9792 L26.2492713,65.1802 L26.1167128,64.3812 L26.1167128,59.3186 L26.2492713,58.2544 L26.2492713,57.4554 L26.3818298,56.789 L27.5816543,35.216 L27.8467713,35.216 L47.8189202,69.9742 L64.9903457,35.3486 L65.2588617,35.3486 L66.7204043,59.7198 L66.7204043,61.3178 L66.8563617,61.9808 L66.8563617,66.9108 L66.7204043,67.312 L66.7204043,67.7098 L66.5878457,68.1076 L66.3227287,68.5088 L66.1901702,68.774 L66.0576117,69.1752 L65.7890957,69.3078 L65.3914202,69.573 L65.1229043,69.8416 L64.7252287,69.9742 L64.3275532,70.1068 L63.7939202,70.2394 L63.3928457,70.2394 L63.3928457,71.5722 L64.7252287,71.5722 L65.3914202,71.4396 L66.1901702,71.3036 L67.6551117,71.3036 L68.4538617,71.171 L70.0513617,71.171 L70.9826702,71.3036 L72.5801702,71.3036 L73.3789202,71.4396 L74.1776702,71.5722 L75.6426117,71.5722 L75.6426117,70.2394 L75.1089787,70.1068 L74.7113032,70.1068 L74.1776702,69.9742 L73.9125532,69.8416 L73.5114787,69.7056 L73.2463617,69.4404 L72.9812447,69.1752 L72.8452872,68.9066 L72.5801702,68.5088 L72.4476117,68.1076 L72.3150532,67.5772 L72.1824947,66.9108 L72.0465372,65.4454 L71.9139787,63.5788 L70.0513617,22.6972 L68.7189787,22.6972 L49.4164202,61.9808 Z" id="Combined-Shape" fill="#F8F8F8"></path>
                <path d="M96.5426702,95.8074 L96.5426702,0.1892 L192.532027,0.1892 L192.532027,95.8074 L96.5426702,95.8074 Z M118.911069,67.0434 L121.171362,69.3078 L127.296245,63.181 L127.031128,62.9158 L126.766011,62.6472 L126.497495,62.382 L126.232378,61.9808 L126.099819,61.7156 L125.698745,61.3178 L125.566186,61.0492 L125.301069,60.6514 L118.911069,67.0434 Z M123.302495,71.4396 L125.433628,73.7006 L131.956186,67.176 L131.558511,67.0434 L131.289995,66.7782 L130.892319,66.5096 L130.627202,66.377 L130.358686,66.1118 L130.093569,65.8466 L129.692495,65.578 L129.427378,65.3128 L123.302495,71.4396 Z M163.644468,73.568 L165.904761,71.4396 L159.647319,65.3128 L159.514761,65.578 L159.249644,65.8466 L158.848569,66.1118 L158.583452,66.2444 L158.182378,66.5096 L157.917261,66.7782 L157.652144,66.9108 L157.251069,67.176 L163.644468,73.568 Z M161.911011,63.181 L168.035894,69.1752 L170.167027,67.176 L163.777027,60.6514 L163.644468,61.0492 L163.375952,61.3178 L163.110835,61.583 L162.978277,61.8482 L162.709761,62.2494 L162.179527,62.7798 L161.911011,63.181 Z M170.167027,29.0892 L168.035894,26.9574 L161.911011,32.9516 L162.179527,33.3494 L162.709761,33.8832 L162.842319,34.281 L163.110835,34.5496 L163.375952,34.8148 L163.644468,35.08 L163.777027,35.3486 L170.167027,29.0892 Z M165.904761,24.693 L163.644468,22.5646 L157.251069,28.9566 L157.652144,29.0892 L157.917261,29.3544 L158.182378,29.623 L158.450894,29.7556 L158.848569,30.0208 L159.117085,30.286 L159.382202,30.5546 L159.647319,30.8198 L165.904761,24.693 Z M125.433628,22.5646 L123.302495,24.693 L129.427378,30.8198 L129.692495,30.5546 L130.093569,30.286 L130.627202,29.7556 L130.892319,29.623 L131.289995,29.3544 L131.558511,29.0892 L131.956186,28.9566 L125.433628,22.5646 Z M121.171362,26.9574 L118.911069,29.0892 L125.301069,35.3486 L125.566186,35.08 L125.698745,34.8148 L126.099819,34.5496 L126.232378,34.281 L126.497495,33.8832 L126.766011,33.618 L127.031128,33.3494 L127.296245,32.9516 L121.171362,26.9574 Z M121.837553,44.4028 L102.269878,48 L121.837553,51.5938 L121.704995,51.0634 L121.572436,50.6622 L121.572436,49.8632 L121.439878,49.3294 L121.439878,46.7998 L121.572436,46.2694 L121.572436,45.3344 L121.704995,44.804 L121.837553,44.4028 Z M140.878394,70.7732 L144.471069,90.3504 L148.199702,70.7732 L147.666069,70.7732 L147.268394,70.9058 L145.936011,70.9058 L145.402378,71.0384 L143.672319,71.0384 L143.138686,70.9058 L141.809702,70.9058 L141.408628,70.7732 L140.878394,70.7732 Z M167.369702,51.5938 L187.073335,48 L167.369702,44.4028 L167.369702,44.804 L167.502261,45.3344 L167.638218,45.7356 L167.638218,50.2644 L167.502261,50.6622 L167.369702,51.0634 L167.369702,51.5938 Z M148.199702,25.492 L144.603628,5.6496 L140.878394,25.492 L141.408628,25.3594 L141.809702,25.3594 L142.207378,25.2268 L142.741011,25.2268 L143.138686,25.0942 L145.936011,25.0942 L146.333686,25.2268 L146.867319,25.2268 L147.268394,25.3594 L147.666069,25.3594 L148.199702,25.492 Z" id="Combined-Shape" fill="#FFFFFF"></path>
                <polyline id="Fill-16" fill="#FFFFFF" points="255.504117 59.985 234.070426 22.6972 231.939293 22.6972 228.479176 61.8482 228.343218 62.9158 227.945543 65.3128 227.680426 66.6456 227.41191 67.176 227.146793 67.7098 227.014234 68.1076 226.61316 68.6414 226.348043 68.9066 225.946968 69.3078 225.549293 69.573 225.148218 69.8416 224.617984 69.9742 224.084351 70.1068 224.084351 71.7048 224.750543 71.7048 225.549293 71.5722 227.945543 71.5722 228.744293 71.4396 231.806734 71.4396 232.605484 71.5722 235.001734 71.5722 235.800484 71.7048 236.599234 71.7048 236.599234 70.1068 236.065601 69.9742 235.535367 69.8416 235.134293 69.7056 234.736617 69.4404 234.335543 69.1752 234.070426 68.9066 233.669351 68.6414 233.404234 68.2436 233.271676 67.8424 233.139117 67.4446 232.870601 67.0434 232.738043 66.5096 232.605484 65.9792 232.605484 61.0492 232.738043 60.5188 232.738043 59.985 232.870601 59.7198 234.070426 39.211 253.906617 71.8374 269.6165 39.8774 271.479117 60.6514 271.611676 61.0492 271.611676 61.9808 271.747633 62.5146 271.747633 66.6456 271.611676 67.0434 271.611676 67.4446 271.479117 67.7098 271.214 68.1076 271.081441 68.5088 270.945484 68.774 270.680367 69.0426 270.41525 69.3078 270.150133 69.573 269.881617 69.7056 269.483941 69.8416 269.082867 70.1068 268.685191 70.1068 268.685191 71.7048 269.6165 71.7048 270.547809 71.5722 273.076617 71.5722 274.007926 71.4396 277.736559 71.4396 278.667867 71.5722 281.332633 71.5722 282.131383 71.7048 283.19525 71.7048 283.19525 70.1068 282.661617 70.1068 282.131383 69.8416 281.730309 69.7056 281.332633 69.573 280.931559 69.1752 280.666441 68.9066 280.397926 68.5088 280.265367 67.975 280.00025 67.5772 279.867691 67.0434 279.735133 66.5096 279.599176 65.9792 279.334059 64.779 279.2015 63.4462 276.0065 22.6972 274.007926 22.6972 255.504117 59.985"></polyline>
                <polyline id="Fill-17" fill="#FFFFFF" points="387.039548 33.2168 387.437223 31.6188 387.573181 31.085 387.838298 30.5546 388.103415 30.1534 388.504489 29.623 388.769606 29.3544 389.170681 28.824 389.568356 28.5554 390.101989 28.2902 390.499665 28.025 391.033298 27.889 391.699489 27.7564 392.229723 27.6238 416.195622 27.6238 383.576032 71.4396 418.856989 71.4396 419.920856 71.5722 422.051989 71.5722 422.983298 71.7048 423.918005 71.8374 424.716755 71.97 425.515505 72.2386 426.446814 72.5038 428.309431 62.9158 425.780622 62.6472 425.515505 63.181 425.114431 63.8474 424.981872 64.1126 424.716755 64.3812 424.584197 64.6464 424.315681 64.9116 424.050564 65.0442 423.782048 65.1802 423.516931 65.4454 423.251814 65.7106 422.850739 65.8466 422.585622 65.9792 422.184548 66.1118 421.654314 66.2444 420.855564 66.5096 419.788298 66.6456 418.591872 66.9108 417.259489 67.0434 415.794548 67.176 403.014548 67.176 401.151931 67.0434 399.285915 67.0434 397.423298 66.9108 395.560681 66.9108 429.240739 23.7614 388.103415 23.7614 387.705739 23.6288 386.240798 23.6288 385.839723 23.4962 385.30609 23.4962 384.908415 23.3636 384.374782 23.2276 384.374782 32.9516 387.039548 33.2168"></polyline>
                <polyline id="Fill-18" fill="#FFFFFF" points="635.729511 25.3594 634.930761 24.9582 634.132011 24.5604 633.200702 24.4278 632.534511 24.1592 631.603202 23.7614 630.804452 23.6288 629.873144 23.3636 629.074394 23.2276 628.275644 23.095 627.344335 22.9624 626.545585 22.9624 625.610878 22.8298 623.880819 22.6972 621.352011 22.6972 620.420702 22.8298 619.754511 22.9624 618.955761 22.9624 618.157011 23.095 617.358261 23.3636 616.559511 23.4962 615.893319 23.7614 615.094569 24.0266 614.428378 24.4278 613.762186 24.693 613.099394 25.0942 612.433202 25.492 611.767011 25.8932 611.233378 26.291 610.169511 27.3586 609.635878 27.889 609.238202 28.4228 608.704569 28.9566 608.306894 29.623 607.905819 30.286 607.508144 30.9524 607.239628 31.4862 606.841952 32.2852 606.709394 32.9516 606.440878 33.7506 606.043202 36.1476 605.907245 36.9466 605.907245 37.8782 606.043202 39.4762 606.175761 40.9416 606.573436 42.2744 606.974511 43.4712 607.508144 44.5354 608.170936 45.603 608.837128 46.5346 609.635878 47.3336 610.434628 48 611.365936 48.6664 612.433202 49.1968 613.497069 49.7306 614.428378 50.2644 615.495644 50.6622 616.692069 51.0634 617.755936 51.4612 620.023027 52.2602 622.150761 52.9266 623.082069 53.3278 624.149335 53.7256 625.080644 54.1268 625.879394 54.6572 626.678144 55.191 627.476894 55.7248 628.007128 56.3912 628.540761 57.0542 629.074394 57.9892 629.339511 58.7882 629.604628 59.7198 629.604628 61.8482 629.472069 62.382 629.339511 62.7798 629.339511 63.181 629.206952 63.7148 629.074394 64.1126 628.805878 64.5138 628.673319 64.9116 628.408202 65.1802 628.275644 65.7106 628.007128 65.9792 627.742011 66.377 627.476894 66.6456 627.075819 66.9108 626.144511 67.8424 625.746835 67.975 625.345761 68.2436 625.080644 68.5088 624.679569 68.6414 624.281894 68.9066 623.748261 69.0426 623.350585 69.1752 622.949511 69.3078 622.551835 69.3078 622.018202 69.4404 621.620527 69.573 619.356835 69.573 618.422128 69.4404 617.623378 69.3078 616.692069 69.0426 616.025878 68.774 615.227128 68.3762 614.428378 67.975 613.629628 67.4446 612.300644 66.377 611.767011 65.7106 611.100819 65.1802 610.968261 64.6464 610.703144 64.3812 610.434628 63.98 610.302069 63.5788 610.036952 63.181 609.768436 62.382 609.635878 61.9808 607.239628 61.9808 607.905819 69.3078 608.306894 69.573 608.837128 69.8416 609.503319 70.2394 610.169511 70.5046 610.835702 70.7732 611.634452 71.0384 612.433202 71.3036 613.231952 71.5722 614.163261 71.7048 614.962011 71.8374 615.893319 72.1026 616.692069 72.2386 617.623378 72.3712 618.558085 72.5038 621.885644 72.5038 622.551835 72.3712 623.350585 72.3712 624.013378 72.2386 624.679569 72.1026 625.478319 71.8374 626.144511 71.5722 626.943261 71.3036 627.609452 71.0384 628.275644 70.7732 628.805878 70.372 629.604628 70.1068 630.138261 69.7056 630.804452 69.3078 631.338085 68.9066 631.871718 68.3762 632.401952 67.8424 632.803027 67.4446 633.333261 66.7782 633.734335 66.2444 634.132011 65.7106 634.533085 65.1802 634.930761 64.3812 635.464394 63.0484 635.729511 62.382 635.865468 61.7156 636.263144 59.3186 636.263144 58.5196 636.130585 56.789 635.998027 55.3236 635.729511 53.8582 634.665644 51.4612 633.999452 50.5296 633.333261 49.598 632.534511 48.799 631.735761 48 630.804452 47.5988 629.740585 47.0684 628.805878 46.5346 627.742011 46.0008 626.545585 45.603 625.478319 45.2018 624.414452 44.804 622.150761 44.1376 620.023027 43.3386 619.088319 43.0734 618.024452 42.5396 617.093144 42.1418 616.290995 41.608 614.696894 40.2752 614.163261 39.6088 613.099394 37.7456 612.830878 36.678 612.565761 35.4812 612.565761 33.3494 612.698319 32.9516 612.830878 32.5504 612.830878 32.02 612.963436 31.6188 613.099394 31.221 613.364511 30.9524 613.497069 30.5546 613.762186 30.1534 614.030702 29.7556 614.295819 29.3544 614.428378 29.0892 614.696894 28.688 615.094569 28.4228 615.359686 28.1576 616.692069 27.09 617.490819 26.6922 618.157011 26.291 618.690644 26.1584 619.088319 26.0258 619.489394 25.8932 619.887069 25.8932 620.288144 25.7606 620.685819 25.6246 622.551835 25.6246 623.483144 25.7606 624.414452 25.8932 625.345761 26.0258 626.144511 26.291 627.075819 26.5596 627.874569 26.9574 628.540761 27.3586 629.339511 27.889 630.005702 28.2902 630.539335 28.9566 631.205527 29.623 631.735761 30.286 632.269394 31.085 632.670468 32.02 633.068144 32.9516 635.729511 32.9516 635.729511 25.3594"></polyline>
                <path d="M339.77734,57.588 L342.306149,63.98 L342.438707,64.5138 L342.707223,65.0442 L342.839782,65.578 L342.97234,65.9792 L342.97234,66.377 L343.104899,66.9108 L343.104899,67.176 L343.237457,67.5772 L343.237457,67.8424 L343.104899,68.1076 L343.104899,68.3762 L342.97234,68.6414 L342.97234,68.9066 L342.839782,69.0426 L342.707223,69.3078 L342.571266,69.4404 L342.438707,69.573 L342.17359,69.7056 L342.041032,69.8416 L341.908473,69.9742 L341.639957,70.1068 L340.973766,70.1068 L340.973766,71.7048 L341.772516,71.7048 L342.571266,71.5722 L345.236032,71.5722 L346.16734,71.4396 L349.627457,71.4396 L350.426207,71.5722 L353.090973,71.5722 L354.022282,71.7048 L354.821032,71.7048 L354.821032,70.1068 L354.419957,70.1068 L354.022282,69.8416 L353.621207,69.7056 L353.223532,69.573 L352.958415,69.1752 L352.689899,68.9066 L352.292223,68.3762 L352.023707,67.975 L351.75859,67.4446 L351.493473,66.7782 L351.224957,66.1118 L350.827282,65.3128 L350.16109,63.4462 L349.36234,61.3178 L334.053532,22.6972 L333.38734,22.6972 L318.476207,59.7198 L318.075133,61.1852 L317.408941,62.6472 L317.011266,63.5788 L316.746149,64.3812 L316.212516,65.1802 L315.811441,65.9792 L315.413766,66.7782 L314.880133,67.4446 L314.482457,68.1076 L313.948824,68.6414 L313.683707,69.0426 L313.282633,69.4404 L313.017516,69.573 L312.752399,69.8416 L312.483883,69.9742 L312.218766,70.1068 L311.953649,70.1068 L311.953649,71.7048 L312.616441,71.7048 L313.415191,71.5722 L315.678883,71.5722 L316.345074,71.4396 L319.274957,71.4396 L319.941149,71.5722 L322.20484,71.5722 L323.00359,71.7048 L323.669782,71.7048 L323.669782,70.1068 L323.136149,70.1068 L322.871032,69.9742 L322.602516,69.8416 L322.337399,69.7056 L322.20484,69.573 L321.936324,69.4404 L321.803766,69.1752 L321.671207,69.0426 L321.538649,68.774 L321.538649,68.5088 L321.40609,68.3762 L321.270133,67.975 L321.270133,65.578 L321.40609,65.0442 L321.538649,64.6464 L321.538649,64.1126 L321.671207,63.7148 L323.669782,57.588 L339.77734,57.588 Z M324.998766,54.392 L331.653883,36.1476 L338.577516,54.392 L324.998766,54.392 L324.998766,54.392 Z" id="Fill-19" fill="#FFFFFF"></path>
                <path d="M483.691697,57.588 L486.356463,63.98 L486.356463,64.5138 L486.62158,65.0442 L486.62158,65.578 L486.886697,65.9792 L486.886697,66.377 L487.022654,66.9108 L487.022654,67.176 L487.155213,67.5772 L487.022654,67.8424 L487.022654,68.3762 L486.886697,68.6414 L486.886697,68.9066 L486.754138,69.0426 L486.62158,69.3078 L486.489021,69.4404 L486.356463,69.573 L486.087947,69.7056 L485.955388,69.8416 L485.82283,69.9742 L485.557713,70.1068 L484.891521,70.1068 L484.891521,71.7048 L485.690271,71.7048 L486.62158,71.5722 L489.150388,71.5722 L490.081697,71.4396 L493.545213,71.4396 L494.343963,71.5722 L497.00533,71.5722 L497.936638,71.7048 L498.735388,71.7048 L498.735388,70.1068 L498.337713,70.1068 L497.936638,69.8416 L497.538963,69.7056 L497.137888,69.573 L496.872771,69.1752 L496.607654,68.9066 L496.20658,68.3762 L495.941463,67.975 L495.676346,67.4446 L495.40783,66.7782 L495.142713,66.1118 L494.741638,65.3128 L493.946287,63.4462 L493.144138,61.3178 L477.967888,22.6972 L477.301697,22.6972 L462.523122,59.7198 L461.992888,61.1852 L461.194138,62.6472 L460.929021,63.5788 L460.527947,64.3812 L459.994314,65.1802 L459.596638,65.9792 L459.195564,66.7782 L458.797888,67.4446 L458.264255,68.1076 L457.730622,68.6414 L457.200388,69.1752 L456.534197,69.8416 L456.26908,69.9742 L456.000564,70.1068 L455.735447,70.1068 L455.735447,71.7048 L456.534197,71.7048 L457.200388,71.5722 L459.46408,71.5722 L460.26283,71.4396 L463.189314,71.4396 L463.988064,71.5722 L466.119197,71.5722 L466.917947,71.7048 L467.584138,71.7048 L467.584138,70.1068 L467.050505,70.1068 L466.785388,69.9742 L466.520271,69.8416 L466.251755,69.7056 L466.119197,69.573 L465.85408,69.4404 L465.721521,69.1752 L465.585564,69.0426 L465.453005,68.774 L465.453005,68.5088 L465.320447,68.3762 L465.187888,67.975 L465.187888,65.9792 L465.320447,65.578 L465.320447,65.0442 L465.453005,64.6464 L465.585564,64.1126 L465.721521,63.7148 L467.584138,57.588 L483.691697,57.588 Z M468.916521,54.392 L475.571638,36.1476 L482.62783,54.392 L468.916521,54.392 L468.916521,54.392 Z" id="Fill-20" fill="#FFFFFF"></path>
                <path d="M543.604745,28.025 L543.604745,27.6238 L543.737303,27.3586 L543.737303,27.09 L543.869862,26.9574 L544.00242,26.6922 L544.267537,26.5596 L544.536053,26.4236 L544.80117,26.291 L545.334803,26.1584 L546.000995,26.0258 L546.799745,26.0258 L547.462537,25.8932 L548.128729,26.0258 L548.79492,26.0258 L549.461112,26.1584 L549.991346,26.291 L550.657537,26.4236 L551.19117,26.5596 L551.724803,26.6922 L552.122479,26.9574 L552.656112,27.226 L553.189745,27.4912 L553.58742,27.7564 L553.988495,28.025 L554.38617,28.4228 L554.654686,28.824 L555.052362,29.2218 L555.317479,29.623 L555.718553,30.0208 L555.98367,30.422 L556.517303,31.4862 L556.78242,31.884 L557.050936,32.9516 L557.316053,33.482 L557.316053,34.0158 L557.448612,34.5496 L557.58117,35.08 L557.713729,35.7464 L557.713729,36.814 L557.849686,38.0108 L557.849686,38.6772 L557.713729,39.211 L557.713729,39.7414 L557.58117,40.4078 L557.316053,41.4754 L557.050936,42.0058 L556.78242,42.407 L556.649862,42.9408 L556.384745,43.3386 L556.116229,43.8724 L555.718553,44.4028 L555.317479,44.804 L555.052362,45.2018 L554.654686,45.4704 L553.855936,46.2694 L553.454862,46.5346 L552.921229,46.7998 L552.523553,47.201 L551.98992,47.4662 L551.592245,47.7314 L551.058612,47.8674 L550.524979,48 L549.991346,48.1326 L549.461112,48.2652 L548.393846,48.5304 L547.731053,48.6664 L547.19742,48.6664 L546.531229,48.799 L545.334803,48.799 L545.066287,48.6664 L544.403495,48.6664 L544.00242,48.5304 L543.336229,48.5304 L543.604745,28.025 Z M532.418846,71.7048 L533.350154,71.7048 L534.284862,71.5722 L536.946229,71.5722 L537.877537,71.4396 L541.60617,71.4396 L542.537479,71.5722 L545.334803,71.5722 L546.266112,71.7048 L547.19742,71.7048 L547.19742,70.1068 L546.531229,69.9742 L546.000995,69.7056 L545.467362,69.573 L545.066287,69.3078 L544.668612,69.0426 L544.403495,68.6414 L544.134979,68.3762 L543.869862,67.975 L543.737303,67.7098 L543.604745,67.312 L543.468787,66.9108 L543.336229,66.377 L543.336229,50.6622 L543.869862,50.6622 L544.267537,50.7948 L544.536053,50.9274 L544.80117,51.0634 L545.066287,51.3286 L545.334803,51.4612 L546.531229,52.6614 L546.932303,53.1918 L547.462537,53.593 L559.046112,67.0434 L559.311229,67.4446 L559.579745,67.7098 L559.712303,67.975 L559.844862,68.3762 L559.97742,68.6414 L560.109979,68.9066 L560.109979,69.573 L559.97742,69.7056 L559.579745,70.1068 L559.311229,70.1068 L559.311229,71.7048 L560.109979,71.7048 L561.044686,71.5722 L563.573495,71.5722 L564.372245,71.4396 L567.96492,71.4396 L568.76367,71.5722 L571.428436,71.5722 L572.227186,71.7048 L573.158495,71.7048 L573.158495,70.1068 L572.75742,70.1068 L572.359745,69.8416 L571.95867,69.7056 L571.693553,69.573 L570.096053,68.5088 L569.429862,67.8424 L568.76367,67.312 L568.233436,66.7782 L567.699803,66.2444 L553.855936,50.1284 L554.919803,49.7306 L556.116229,49.3294 L557.316053,48.9316 L558.37992,48.3978 L559.447186,47.8674 L560.511053,47.201 L561.044686,46.7998 L561.442362,46.5346 L561.975995,46.1368 L562.774745,45.3344 L563.17242,44.804 L563.573495,44.4028 L563.97117,43.8724 L564.236287,43.4712 L564.637362,42.9408 L565.035037,42.407 L565.170995,42.0058 L565.436112,41.3428 L565.701229,40.809 L565.969745,39.7414 L566.102303,39.075 L566.234862,38.5446 L566.36742,37.8782 L566.36742,36.5454 L566.102303,35.216 L565.969745,34.5496 L565.833787,33.7506 L565.701229,33.2168 L565.436112,32.5504 L565.170995,31.884 L564.902479,31.221 L564.504803,30.6872 L564.103729,30.1534 L563.706053,29.623 L563.304979,29.0892 L562.774745,28.5554 L562.241112,28.025 L561.707479,27.4912 L561.044686,27.09 L560.511053,26.5596 L559.844862,26.1584 L559.046112,25.8932 L558.37992,25.492 L557.58117,25.0942 L556.78242,24.8256 L555.851112,24.5604 L554.919803,24.2952 L553.988495,24.1592 L553.057186,23.894 L552.122479,23.7614 L551.058612,23.6288 L549.991346,23.4962 L543.071112,23.4962 L541.871287,23.6288 L539.077362,23.6288 L538.41117,23.7614 L537.61242,23.6288 L534.947654,23.6288 L534.148904,23.4962 L531.620096,23.4962 L531.620096,25.0942 L532.153729,25.0942 L532.81992,25.3594 L533.217596,25.492 L533.751229,25.7606 L534.148904,26.0258 L534.682537,26.5596 L534.947654,26.9574 L535.083612,27.226 L535.21617,27.6238 L535.348729,28.025 L535.348729,28.5554 L535.481287,29.623 L535.481287,35.216 L535.613846,37.3444 L535.613846,39.6088 L535.746404,41.8732 L535.882362,44.005 L535.882362,66.9108 L535.746404,67.312 L535.613846,67.7098 L535.481287,67.975 L535.348729,68.2436 L535.21617,68.5088 L534.947654,68.774 L534.815096,69.0426 L534.549979,69.1752 L534.284862,69.4404 L533.883787,69.573 L533.61867,69.7056 L533.217596,69.8416 L532.81992,69.9742 L532.418846,70.1068 L532.418846,71.7048 L532.418846,71.7048 Z" id="Fill-21" fill="#FFFFFF"></path>
            </g>
        </g>
    </g>
</svg>