<?xml version="1.0" encoding="UTF-8"?>
<svg width="651px" height="406px" viewBox="0 0 651 406" version="1.1" xmlns="http://www.w3.org/2000/svg" xmlns:xlink="http://www.w3.org/1999/xlink">
    <!-- Generator: Sketch 43.2 (39069) - http://www.bohemiancoding.com/sketch -->
    <title>logo4</title>
    <desc>Created with Sketch.</desc>
    <defs>
        <polygon id="path-1" points="89 287.771208 562.807311 287.771208 562.807311 52 89 52"></polygon>
    </defs>
    <g id="Page-1" stroke="none" stroke-width="1" fill="none" fill-rule="evenodd">
        <g id="logo4">
            <polygon id="Fill-1" fill="#FFFFFF" points="197.649232 155.719253 220.028561 145.625898 223.373997 153.753594 199.3664 159.48403"></polygon>
            <path d="M136.14,166.594181 C135.208893,161.084236 128.885317,156.883167 121.632973,156.883167 C108.520268,156.883167 103.595693,166.214184 103.595693,175.922852 C103.595693,185.16708 108.520268,194.481678 121.632973,194.481678 C130.558035,194.481678 135.578528,189.363458 136.694453,182.061432 L150.827166,182.061432 C149.346284,195.882034 137.903957,204.74392 121.632973,204.74392 C101.087785,204.74392 88.9997661,191.924913 88.9997661,175.922852 C88.9997661,159.454005 101.087785,146.630307 121.632973,146.630307 C136.231239,146.630307 148.501737,153.782211 150.270373,166.594181 L136.14,166.594181" id="Fill-2" fill="#FFFFFF"></path>
            <path d="M154.430879,163.260066 L166.984452,163.260066 L166.984452,170.721596 L167.16693,170.721596 C169.588277,165.664363 176.096671,162.174027 182.509146,162.174027 C183.440253,162.174027 184.556179,162.331186 185.389028,162.558715 L185.389028,172.811575 C184.181864,172.581701 182.233089,172.426887 180.649271,172.426887 C170.982599,172.426887 167.632484,178.244113 167.632484,185.323301 L167.632484,203.420032 L154.430879,203.420032 L154.430879,163.260066" id="Fill-5" fill="#FFFFFF"></path>
            <path d="M219.238992,179.023339 C218.029488,173.433643 215.147266,170.478117 208.727772,170.478117 C200.361843,170.478117 197.945175,175.922383 197.758018,179.023339 L219.238992,179.023339 Z M197.758018,186.018084 C198.134672,193.005791 202.228737,196.20292 209.56764,196.20292 C214.873549,196.20292 219.143074,193.477268 219.982942,190.995565 L231.603068,190.995565 C227.883317,200.469667 219.982942,204.504194 209.102087,204.504194 C193.951707,204.504194 184.556413,195.804158 184.556413,183.379222 C184.556413,171.336627 194.50616,162.174497 209.102087,162.174497 C225.466649,162.174497 233.369365,173.672899 232.442936,186.018084 L197.758018,186.018084 L197.758018,186.018084 Z" id="Fill-7" fill="#FFFFFF"></path>
            <path d="M260.540621,170.479055 C251.891616,170.479055 248.915816,176.699733 248.915816,183.298062 C248.915816,189.591455 252.35951,196.203858 260.540621,196.203858 C269.276186,196.203858 271.882351,189.826021 271.882351,183.225347 C271.882351,176.699733 269.093708,170.479055 260.540621,170.479055 M272.069508,198.296183 L271.882351,198.296183 C268.812972,202.645028 263.422843,204.505132 257.281745,204.505132 C242.784076,204.505132 235.71655,194.104496 235.71655,182.98609 C235.71655,172.191383 242.870637,162.175435 257.005688,162.175435 C262.683572,162.175435 268.258518,164.190353 271.323219,168.156856 L271.2273,168.156856 L271.414458,168.156856 L271.414458,147.949035 L284.620742,147.949035 L284.620742,203.419094 L272.069508,203.419094 L272.069508,198.296183" id="Fill-9" fill="#FFFFFF"></path>
            <mask id="mask-2" fill="white">
                <use xlink:href="#path-1"></use>
            </mask>
            <g id="Clip-12"></g>
            <path d="M289.58345,203.419094 L302.789734,203.419094 L302.789734,163.259128 L289.58345,163.259128 L289.58345,203.419094 Z M289.581111,157.043141 L302.787395,157.043141 L302.787395,147.953726 L289.581111,147.953726 L289.581111,157.043141 Z" id="Fill-11" fill="#FFFFFF" mask="url(#mask-2)"></path>
            <polygon id="Fill-13" fill="#FFFFFF" mask="url(#mask-2)" points="312.808496 203.37781 312.808496 173.724035 306.957492 173.724035 306.957492 163.260066 312.808496 163.260066 312.808496 151.224508 326.010101 151.224508 326.010101 163.260066 334.453233 163.260066 334.453233 173.724035 326.010101 173.724035 326.010101 203.373119"></polygon>
            <path d="M113.855653,253.745365 C105.208988,253.745365 102.228509,259.961352 102.228509,266.559681 C102.228509,272.853075 105.667523,279.456094 113.855653,279.456094 C122.591218,279.456094 125.197383,273.08764 125.197383,266.486966 C125.197383,259.961352 122.404061,253.745365 113.855653,253.745365 M125.379861,281.55311 L125.197383,281.55311 C122.128004,285.911338 116.737875,287.771443 110.599117,287.771443 C96.0920903,287.771443 89.0292433,277.361424 89.0292433,266.247709 C89.0292433,255.450657 96.1856689,245.434708 110.320721,245.434708 C115.991586,245.434708 121.573551,247.449626 124.635911,251.418475 L124.547012,251.418475 L124.727151,251.418475 L124.727151,231.215345 L137.931095,231.215345 L137.931095,286.685404 L125.379861,286.685404 L125.379861,281.55311" id="Fill-14" fill="#FFFFFF" mask="url(#mask-2)"></path>
            <path d="M188.025372,286.685404 L175.471799,286.685404 L175.471799,281.086325 L175.193403,281.086325 C171.845627,285.599366 166.083523,287.766752 160.499219,287.766752 C146.460085,287.766752 142.927492,281.163732 142.927492,271.213461 L142.927492,246.516056 L156.136115,246.516056 L156.136115,269.203235 C156.136115,275.803909 158.456865,279.071407 164.595623,279.071407 C171.754388,279.071407 174.821428,275.726502 174.821428,267.573004 L174.821428,246.516056 L188.025372,246.516056 L188.025372,286.685404" id="Fill-15" fill="#FFFFFF" mask="url(#mask-2)"></path>
            <polygon id="Fill-16" fill="#FFFFFF" mask="url(#mask-2)" points="214.988416 231.214172 229.495443 231.214172 257.201736 268.437378 257.386553 268.437378 257.386553 231.214172 271.056052 231.214172 271.056052 286.684232 256.455446 286.684232 228.842732 249.547815 228.650896 249.547815 228.650896 286.684232 214.988416 286.684232"></polygon>
            <path d="M299.237957,279.45586 C308.256598,279.45586 310.951662,273.009999 310.951662,266.641544 C310.951662,260.195683 308.256598,253.745131 299.237957,253.745131 C290.310556,253.745131 287.613152,260.195683 287.613152,266.641544 C287.613152,273.009999 290.310556,279.45586 299.237957,279.45586 M299.237957,245.434474 C314.395356,245.434474 324.148588,253.822538 324.148588,266.641544 C324.148588,279.378453 314.395356,287.766517 299.237957,287.766517 C284.169459,287.766517 274.413887,279.378453 274.413887,266.641544 C274.413887,253.822538 284.169459,245.434474 299.237957,245.434474" id="Fill-17" fill="#FFFFFF" mask="url(#mask-2)"></path>
            <path d="M327.146847,246.520512 L339.70042,246.520512 L339.70042,253.979696 L339.880559,253.979696 C342.297227,248.9295 348.8103,245.434474 355.225115,245.434474 C356.146864,245.434474 357.265129,245.586941 358.100318,245.823853 L358.100318,256.076712 C356.893154,255.839801 354.951397,255.682642 353.372258,255.682642 C343.691549,255.682642 340.353131,261.511596 340.353131,268.579056 L340.353131,286.68517 L327.146847,286.68517 L327.146847,246.520512" id="Fill-18" fill="#FFFFFF" mask="url(#mask-2)"></path>
            <path d="M382.786828,253.745365 C374.142502,253.745365 371.166702,259.961352 371.166702,266.559681 C371.166702,272.853075 374.608056,279.456094 382.786828,279.456094 C391.529412,279.456094 394.130897,273.08764 394.130897,266.486966 C394.130897,259.961352 391.332896,253.745365 382.786828,253.745365 M394.315715,281.55311 L394.130897,281.55311 C391.059179,285.911338 385.664371,287.771443 379.53731,287.771443 C365.030283,287.771443 357.965097,277.361424 357.965097,266.247709 C357.965097,255.450657 365.119183,245.434708 379.256574,245.434708 C384.929779,245.434708 390.509404,247.449626 393.574105,251.418475 L393.482865,251.418475 L393.665344,251.418475 L393.665344,231.215345 L406.871628,231.215345 L406.871628,286.685404 L394.315715,286.685404 L394.315715,281.55311" id="Fill-19" fill="#FFFFFF" mask="url(#mask-2)"></path>
            <polygon id="Fill-20" fill="#FFFFFF" mask="url(#mask-2)" points="511.660976 163.207523 494.641363 52 479.584561 163.240362 428.656732 163.240362 471.560194 186.572597 457.572528 229.268217 494.992282 199.6637 543.049587 266.723642 518.747217 186.572597 562.806375 163.207523"></polygon>
        </g>
    </g>
</svg>