<?xml version="1.0" encoding="UTF-8"?>
<svg width="759px" height="406px" viewBox="0 0 759 406" version="1.1" xmlns="http://www.w3.org/2000/svg" xmlns:xlink="http://www.w3.org/1999/xlink">
    <!-- Generator: Sketch 43.2 (39069) - http://www.bohemiancoding.com/sketch -->
    <title>logo2</title>
    <desc>Created with Sketch.</desc>
    <defs>
        <path d="M571.443,206.857 C589.289,206.857 596.165,201.27 598.988,188.363 L603.221,168.258 C603.503,166.912 602.623,166.505 601.504,166.505 L592.874,166.505 L590.503,178.073 L589.146,184.229 L588.015,189.58 C586.434,196.865 581.281,200.148 572.54,200.148 C562.924,200.148 560.351,196.946 561.854,189.58 C561.854,189.58 562.226,187.74 562.353,187.187 L564.341,178.073 L566.719,166.505 L558.087,166.505 C556.97,166.505 555.916,166.912 555.631,168.258 L551.39,188.363 C548.493,202.54 556.205,206.857 571.443,206.857 Z M268.323,228.663 C267.032,234.216 271.78,236.898 281.432,242.379 C291.977,248.364 294.386,248.821 293.418,251.978 C292.639,254.52 289.873,254.626 285.121,254.626 L266.328,254.626 C264.195,254.626 262.956,255.429 262.583,257.175 L261.831,260.698 L285.521,260.698 C296.37,260.698 303.167,260.082 305.634,254.02 C306.831,251.064 306.821,248.007 303.894,244.987 C302.403,243.449 300.203,242.1 297.167,240.533 C283.625,233.533 280.088,232.721 280.945,229.33 C281.428,227.423 282.869,227.352 287.962,227.352 L303.848,227.352 C305.99,227.352 307.231,226.549 307.602,224.804 L308.384,221.125 L288.281,221.125 C276.894,221.125 270.057,221.187 268.323,228.663 Z M372.815,228.663 C371.532,234.216 376.278,236.898 385.92,242.379 C396.479,248.364 398.888,248.821 397.91,251.978 C397.129,254.52 394.363,254.626 389.613,254.626 L370.825,254.626 C368.69,254.626 367.447,255.429 367.077,257.175 L366.33,260.698 L390.021,260.698 C400.866,260.698 407.66,260.082 410.126,254.02 C411.337,251.064 411.323,248.007 408.396,244.987 C406.896,243.449 404.702,242.1 401.66,240.533 C388.119,233.533 384.586,232.721 385.442,229.33 C385.92,227.423 387.361,227.352 392.458,227.352 L408.353,227.352 C410.483,227.352 411.729,226.549 412.096,224.804 L412.884,221.125 L392.778,221.125 C381.391,221.125 374.557,221.187 372.815,228.663 Z M637.635,228.663 C636.351,234.216 641.1,236.898 650.731,242.379 C661.292,248.364 663.704,248.821 662.723,251.978 C661.949,254.52 659.184,254.626 654.438,254.626 L635.644,254.626 C633.506,254.626 632.266,255.429 631.894,257.175 L631.147,260.698 L654.844,260.698 C665.682,260.698 672.477,260.082 674.944,254.02 C676.15,251.064 676.136,248.007 673.209,244.987 C671.719,243.449 669.515,242.1 666.476,240.533 C652.939,233.533 649.398,232.721 650.26,229.33 C650.731,227.423 652.185,227.352 657.278,227.352 L673.17,227.352 C675.301,227.352 676.543,226.549 676.912,224.804 L677.702,221.125 L657.601,221.125 C646.211,221.125 639.374,221.187 637.635,228.663 Z M481.267,199.297 C482.468,196.338 482.457,193.277 479.527,190.263 C478.035,188.723 475.839,187.377 472.794,185.799 C459.253,178.796 455.72,177.996 456.571,174.603 C457.054,172.701 458.499,172.622 463.599,172.622 L479.48,172.622 C481.621,172.622 482.861,171.821 483.236,170.081 L484.016,166.385 L463.913,166.385 C452.523,166.385 445.688,166.452 443.944,173.936 C442.664,179.482 447.413,182.174 457.054,187.653 C467.604,193.64 470.013,194.094 469.048,197.258 C468.263,199.8 465.499,199.901 460.755,199.901 L441.966,199.901 C439.823,199.901 438.58,200.704 438.208,202.448 L437.466,205.978 L461.157,205.978 C471.996,205.978 478.802,205.363 481.267,199.297 Z M430.785,199.297 C431.982,196.338 431.974,193.277 429.052,190.263 C427.552,188.723 425.355,187.377 422.315,185.799 C408.769,178.796 405.238,177.996 406.098,174.603 C406.573,172.701 408.012,172.622 413.119,172.622 L428.999,172.622 C431.14,172.622 432.383,171.821 432.748,170.081 L433.54,166.385 L413.43,166.385 C402.042,166.385 395.208,166.452 393.472,173.936 C392.183,179.482 396.936,182.174 406.573,187.653 C417.123,193.64 419.537,194.094 418.566,197.258 C417.793,199.8 415.021,199.901 410.266,199.901 L391.487,199.901 C389.345,199.901 388.107,200.704 387.728,202.448 L386.981,205.978 L410.679,205.978 C421.522,205.978 428.317,205.363 430.785,199.297 Z M651.163,166.505 C649.022,166.505 647.817,167.173 647.499,168.648 L646.649,172.634 L663.641,172.634 L656.558,205.978 L664.176,205.978 C666.317,205.978 667.565,205.175 667.99,203.171 L674.485,172.634 L688.663,172.634 C690.674,172.634 691.378,171.821 691.727,170.215 L692.507,166.505 L651.163,166.505 Z M280.988,177.479 C279.92,177.479 279.113,178.145 278.973,178.817 L273.193,205.978 L298.753,205.978 C313.066,205.978 322.989,201.113 326.086,185.988 C328.396,174.73 323.062,166.505 308.478,166.505 L277.567,166.505 C277.567,166.505 277.501,166.784 277.439,167.018 C276.741,169.672 277.108,172.603 281.995,172.603 L304.465,172.603 C315.274,172.603 316.817,177.547 314.658,186.258 C312.537,194.807 308.837,199.21 300.722,199.884 L285.333,199.884 L290.086,177.479 L280.988,177.479 Z M645.108,202.283 C645.477,200.555 644.813,199.884 643.08,199.884 L619.932,199.884 L626.745,167.842 C626.881,167.173 626.352,166.505 625.422,166.505 L616.189,166.505 L607.801,205.978 L644.32,205.978 L645.108,202.283 Z M576.184,221.233 L566.409,221.233 L547.486,236.616 L535.105,221.233 L525.338,221.233 C523.735,221.233 522.854,222.167 522.521,223.773 L514.67,260.698 L522.967,260.698 C524.71,260.698 525.679,259.896 525.992,258.425 L531.87,230.788 L541.405,243.234 C541.687,243.766 542.483,244.436 543.681,244.436 L547.973,244.436 C549.176,244.436 550.25,243.766 550.767,243.234 L565.583,230.788 L559.706,258.425 C559.395,259.896 560.024,260.698 561.771,260.698 L570.062,260.698 L577.92,223.773 C578.252,222.167 577.79,221.233 576.184,221.233 Z M472.804,223.773 C473.172,222.027 474.282,221.233 476.153,221.233 L512.14,221.233 L511.162,225.891 C510.837,227.361 509.639,227.361 508.436,227.361 L482.881,227.361 L480.628,237.937 L504.048,237.937 C504.711,237.937 505.027,238.343 504.918,238.874 L504.024,243.074 C503.905,243.616 503.423,244.016 502.753,244.016 L479.342,244.016 L477.093,254.604 L503.575,254.604 C505.583,254.604 506.013,255.141 505.665,256.75 L504.825,260.698 L464.96,260.698 L472.804,223.773 Z M591.179,223.773 L583.332,260.698 L623.21,260.698 L624.04,256.75 C624.384,255.141 623.96,254.604 621.959,254.604 L595.469,254.604 L597.72,244.016 L621.129,244.016 C621.801,244.016 622.289,243.616 622.396,243.074 L623.296,238.874 C623.409,238.343 623.08,237.937 622.425,237.937 L599.009,237.937 L601.254,227.361 L626.811,227.361 C628.02,227.361 629.217,227.361 629.527,225.891 L630.517,221.233 L594.533,221.233 C592.655,221.233 591.559,222.027 591.179,223.773 Z M352.07,222.565 L348.243,240.533 C341.559,242.413 324.236,245.849 326.94,233.14 L329.472,221.233 L320.367,221.233 C319.294,221.233 318.485,221.892 318.34,222.565 L316.044,233.407 C311.664,254.013 332.998,251.196 346.805,247.323 L343.961,260.698 L351.581,260.698 C353.726,260.698 354.965,259.896 355.397,257.895 L363.179,221.233 L353.953,221.233 C353.017,221.233 352.205,221.892 352.07,222.565 Z M465.962,224.937 C465.623,226.549 464.917,227.352 462.909,227.352 L448.729,227.352 L442.243,257.895 C441.802,259.896 440.566,260.698 438.428,260.698 L430.808,260.698 L437.887,227.352 L420.897,227.352 L421.748,223.373 C422.062,221.9 423.274,221.236 425.417,221.236 L466.755,221.236 L465.962,224.937 Z M347.07,183.096 L345.943,188.408 L369.003,188.408 C371.399,188.408 371.809,186.287 371.991,185.47 C372.119,184.921 372.499,183.096 372.499,183.096 C374.003,175.795 371.581,172.622 362.337,172.622 C353.591,172.622 348.689,175.406 347.07,183.096 Z M334.05,205.978 C332.974,205.978 332.128,205.574 332.41,204.234 L336.648,184.305 C339.933,169.433 348.536,165.972 363.61,165.972 C376.188,165.972 385.522,169.184 382.41,184.305 L378.166,204.234 C377.884,205.574 376.865,205.978 375.792,205.978 L367.631,205.978 L370.002,194.501 L344.584,194.501 L342.208,205.978 L334.05,205.978 Z M505.62,183.096 L504.491,188.408 L527.556,188.408 C529.947,188.408 530.357,186.287 530.539,185.47 C530.676,184.921 531.052,183.096 531.052,183.096 C532.549,175.795 530.131,172.622 520.885,172.622 C512.14,172.622 507.244,175.406 505.62,183.096 Z M492.601,205.978 C491.522,205.978 490.68,205.574 490.959,204.234 L495.193,184.305 C498.48,169.433 507.084,165.972 522.162,165.972 C534.744,165.972 544.081,169.184 540.955,184.305 L536.721,204.234 C536.438,205.574 535.416,205.978 534.344,205.978 L526.18,205.978 L528.555,194.501 L503.141,194.501 L500.759,205.978 L492.601,205.978 Z" id="path-1"></path>
        <polygon id="path-3" points="65 105 65 281.25069 260 281.25069 260 105 65 105"></polygon>
    </defs>
    <g id="Page-1" stroke="none" stroke-width="1" fill="none" fill-rule="evenodd">
        <g id="logo2">
            <mask id="mask-2" fill="white">
                <use xlink:href="#path-1"></use>
            </mask>
            <use id="Clip-2" fill="#FFFFFF" xlink:href="#path-1"></use>
            <path d="M571.443,206.857 C589.289,206.857 596.165,201.27 598.988,188.363 L603.221,168.258 C603.503,166.912 602.623,166.505 601.504,166.505 L592.874,166.505 L590.503,178.073 L589.146,184.229 L588.015,189.58 C586.434,196.865 581.281,200.148 572.54,200.148 C562.924,200.148 560.351,196.946 561.854,189.58 C561.854,189.58 562.226,187.74 562.353,187.187 L564.341,178.073 L566.719,166.505 L558.087,166.505 C556.97,166.505 555.916,166.912 555.631,168.258 L551.39,188.363 C548.493,202.54 556.205,206.857 571.443,206.857 Z M268.323,228.663 C267.032,234.216 271.78,236.898 281.432,242.379 C291.977,248.364 294.386,248.821 293.418,251.978 C292.639,254.52 289.873,254.626 285.121,254.626 L266.328,254.626 C264.195,254.626 262.956,255.429 262.583,257.175 L261.831,260.698 L285.521,260.698 C296.37,260.698 303.167,260.082 305.634,254.02 C306.831,251.064 306.821,248.007 303.894,244.987 C302.403,243.449 300.203,242.1 297.167,240.533 C283.625,233.533 280.088,232.721 280.945,229.33 C281.428,227.423 282.869,227.352 287.962,227.352 L303.848,227.352 C305.99,227.352 307.231,226.549 307.602,224.804 L308.384,221.125 L288.281,221.125 C276.894,221.125 270.057,221.187 268.323,228.663 Z M372.815,228.663 C371.532,234.216 376.278,236.898 385.92,242.379 C396.479,248.364 398.888,248.821 397.91,251.978 C397.129,254.52 394.363,254.626 389.613,254.626 L370.825,254.626 C368.69,254.626 367.447,255.429 367.077,257.175 L366.33,260.698 L390.021,260.698 C400.866,260.698 407.66,260.082 410.126,254.02 C411.337,251.064 411.323,248.007 408.396,244.987 C406.896,243.449 404.702,242.1 401.66,240.533 C388.119,233.533 384.586,232.721 385.442,229.33 C385.92,227.423 387.361,227.352 392.458,227.352 L408.353,227.352 C410.483,227.352 411.729,226.549 412.096,224.804 L412.884,221.125 L392.778,221.125 C381.391,221.125 374.557,221.187 372.815,228.663 Z M637.635,228.663 C636.351,234.216 641.1,236.898 650.731,242.379 C661.292,248.364 663.704,248.821 662.723,251.978 C661.949,254.52 659.184,254.626 654.438,254.626 L635.644,254.626 C633.506,254.626 632.266,255.429 631.894,257.175 L631.147,260.698 L654.844,260.698 C665.682,260.698 672.477,260.082 674.944,254.02 C676.15,251.064 676.136,248.007 673.209,244.987 C671.719,243.449 669.515,242.1 666.476,240.533 C652.939,233.533 649.398,232.721 650.26,229.33 C650.731,227.423 652.185,227.352 657.278,227.352 L673.17,227.352 C675.301,227.352 676.543,226.549 676.912,224.804 L677.702,221.125 L657.601,221.125 C646.211,221.125 639.374,221.187 637.635,228.663 Z M481.267,199.297 C482.468,196.338 482.457,193.277 479.527,190.263 C478.035,188.723 475.839,187.377 472.794,185.799 C459.253,178.796 455.72,177.996 456.571,174.603 C457.054,172.701 458.499,172.622 463.599,172.622 L479.48,172.622 C481.621,172.622 482.861,171.821 483.236,170.081 L484.016,166.385 L463.913,166.385 C452.523,166.385 445.688,166.452 443.944,173.936 C442.664,179.482 447.413,182.174 457.054,187.653 C467.604,193.64 470.013,194.094 469.048,197.258 C468.263,199.8 465.499,199.901 460.755,199.901 L441.966,199.901 C439.823,199.901 438.58,200.704 438.208,202.448 L437.466,205.978 L461.157,205.978 C471.996,205.978 478.802,205.363 481.267,199.297 Z M430.785,199.297 C431.982,196.338 431.974,193.277 429.052,190.263 C427.552,188.723 425.355,187.377 422.315,185.799 C408.769,178.796 405.238,177.996 406.098,174.603 C406.573,172.701 408.012,172.622 413.119,172.622 L428.999,172.622 C431.14,172.622 432.383,171.821 432.748,170.081 L433.54,166.385 L413.43,166.385 C402.042,166.385 395.208,166.452 393.472,173.936 C392.183,179.482 396.936,182.174 406.573,187.653 C417.123,193.64 419.537,194.094 418.566,197.258 C417.793,199.8 415.021,199.901 410.266,199.901 L391.487,199.901 C389.345,199.901 388.107,200.704 387.728,202.448 L386.981,205.978 L410.679,205.978 C421.522,205.978 428.317,205.363 430.785,199.297 Z M651.163,166.505 C649.022,166.505 647.817,167.173 647.499,168.648 L646.649,172.634 L663.641,172.634 L656.558,205.978 L664.176,205.978 C666.317,205.978 667.565,205.175 667.99,203.171 L674.485,172.634 L688.663,172.634 C690.674,172.634 691.378,171.821 691.727,170.215 L692.507,166.505 L651.163,166.505 Z M280.988,177.479 C279.92,177.479 279.113,178.145 278.973,178.817 L273.193,205.978 L298.753,205.978 C313.066,205.978 322.989,201.113 326.086,185.988 C328.396,174.73 323.062,166.505 308.478,166.505 L277.567,166.505 C277.567,166.505 277.501,166.784 277.439,167.018 C276.741,169.672 277.108,172.603 281.995,172.603 L304.465,172.603 C315.274,172.603 316.817,177.547 314.658,186.258 C312.537,194.807 308.837,199.21 300.722,199.884 L285.333,199.884 L290.086,177.479 L280.988,177.479 Z M645.108,202.283 C645.477,200.555 644.813,199.884 643.08,199.884 L619.932,199.884 L626.745,167.842 C626.881,167.173 626.352,166.505 625.422,166.505 L616.189,166.505 L607.801,205.978 L644.32,205.978 L645.108,202.283 Z M576.184,221.233 L566.409,221.233 L547.486,236.616 L535.105,221.233 L525.338,221.233 C523.735,221.233 522.854,222.167 522.521,223.773 L514.67,260.698 L522.967,260.698 C524.71,260.698 525.679,259.896 525.992,258.425 L531.87,230.788 L541.405,243.234 C541.687,243.766 542.483,244.436 543.681,244.436 L547.973,244.436 C549.176,244.436 550.25,243.766 550.767,243.234 L565.583,230.788 L559.706,258.425 C559.395,259.896 560.024,260.698 561.771,260.698 L570.062,260.698 L577.92,223.773 C578.252,222.167 577.79,221.233 576.184,221.233 Z M472.804,223.773 L464.96,260.698 L504.825,260.698 L505.665,256.75 C506.013,255.141 505.583,254.604 503.575,254.604 L477.093,254.604 L479.342,244.016 L502.753,244.016 C503.423,244.016 503.905,243.616 504.024,243.074 L504.918,238.874 C505.027,238.343 504.711,237.937 504.048,237.937 L480.628,237.937 L482.881,227.361 L508.436,227.361 C509.639,227.361 510.837,227.361 511.162,225.891 L512.14,221.233 L476.153,221.233 C474.282,221.233 473.172,222.027 472.804,223.773 Z M591.179,223.773 L583.332,260.698 L623.21,260.698 L624.04,256.75 C624.384,255.141 623.96,254.604 621.959,254.604 L595.469,254.604 L597.72,244.016 L621.129,244.016 C621.801,244.016 622.289,243.616 622.396,243.074 L623.296,238.874 C623.409,238.343 623.08,237.937 622.425,237.937 L599.009,237.937 L601.254,227.361 L626.811,227.361 C628.02,227.361 629.217,227.361 629.527,225.891 L630.517,221.233 L594.533,221.233 C592.655,221.233 591.559,222.027 591.179,223.773 Z M352.07,222.565 L348.243,240.533 C341.559,242.413 324.236,245.849 326.94,233.14 L329.472,221.233 L320.367,221.233 C319.294,221.233 318.485,221.892 318.34,222.565 L316.044,233.407 C311.664,254.013 332.998,251.196 346.805,247.323 L343.961,260.698 L351.581,260.698 C353.726,260.698 354.965,259.896 355.397,257.895 L363.179,221.233 L353.953,221.233 C353.017,221.233 352.205,221.892 352.07,222.565 Z M465.962,224.937 L466.755,221.236 L425.417,221.236 C423.274,221.236 422.062,221.9 421.748,223.373 L420.897,227.352 L437.887,227.352 L430.808,260.698 L438.428,260.698 C440.566,260.698 441.802,259.896 442.243,257.895 L448.729,227.352 L462.909,227.352 C464.917,227.352 465.623,226.549 465.962,224.937 Z M347.07,183.096 C348.689,175.406 353.591,172.622 362.337,172.622 C371.581,172.622 374.003,175.795 372.499,183.096 C372.499,183.096 372.119,184.921 371.991,185.47 C371.809,186.287 371.399,188.408 369.003,188.408 L345.943,188.408 L347.07,183.096 Z M334.05,205.978 L342.208,205.978 L344.584,194.501 L370.002,194.501 L367.631,205.978 L375.792,205.978 C376.865,205.978 377.884,205.574 378.166,204.234 L382.41,184.305 C385.522,169.184 376.188,165.972 363.61,165.972 C348.536,165.972 339.933,169.433 336.648,184.305 L332.41,204.234 C332.128,205.574 332.974,205.978 334.05,205.978 Z M505.62,183.096 C507.244,175.406 512.14,172.622 520.885,172.622 C530.131,172.622 532.549,175.795 531.052,183.096 C531.052,183.096 530.676,184.921 530.539,185.47 C530.357,186.287 529.947,188.408 527.556,188.408 L504.491,188.408 L505.62,183.096 Z M492.601,205.978 L500.759,205.978 L503.141,194.501 L528.555,194.501 L526.18,205.978 L534.344,205.978 C535.416,205.978 536.438,205.574 536.721,204.234 L540.955,184.305 C544.081,169.184 534.744,165.972 522.162,165.972 C507.084,165.972 498.48,169.433 495.193,184.305 L490.959,204.234 C490.68,205.574 491.522,205.978 492.601,205.978 L492.601,205.978 Z" id="Fill-1" fill="#FFFFFF" mask="url(#mask-2)"></path>
            <mask id="mask-4" fill="white">
                <use xlink:href="#path-3"></use>
            </mask>
            <g id="Clip-5"></g>
            <path d="M157.235379,105.09969 C174.170379,104.34969 194.210379,107.72369 197.941379,118.89669 C204.061379,137.21069 173.046379,163.91369 146.020379,177.02069 C139.394379,180.23469 135.381379,181.11569 133.707379,180.89669 C132.110379,180.68869 131.864379,179.20169 132.382379,178.17469 C133.345379,176.24969 137.702379,172.32569 143.538379,168.06169 C173.961379,145.84369 183.852379,129.54569 178.107379,122.93869 C174.424379,118.70769 159.001379,115.76869 142.987379,115.76869 C138.639379,115.76869 127.216379,116.71169 126.042379,112.94869 C125.087379,109.86469 140.419379,105.84169 157.235379,105.09969" id="Fill-4" fill="#FFFFFF" mask="url(#mask-4)"></path>
            <path d="M228.47507,165.45024 C236.99307,166.84124 243.93407,167.91624 245.52907,171.16724 C247.31807,174.85024 238.04107,175.07224 233.36707,175.16024 C210.96007,175.55324 197.44907,175.94924 196.77407,182.83124 C195.89307,191.69024 206.34807,200.60624 216.67407,213.11124 C226.10407,224.52524 236.82707,235.78524 233.73707,246.29224 C229.88507,259.37524 212.13507,262.14424 195.24007,262.14524 C179.05207,262.15824 163.71707,259.81124 157.27607,258.65524 C149.25107,257.22124 150.44507,253.64124 152.58507,252.48924 C154.97107,251.19924 168.61307,251.16924 178.09407,250.66124 C185.89807,250.24624 208.55807,250.25624 212.09007,245.01124 C216.42407,238.58824 205.81707,227.59424 196.07607,216.08424 C183.92107,201.71724 170.57207,186.88924 177.63707,176.05824 C186.77907,162.04524 213.52607,163.00624 228.47507,165.45024" id="Fill-8" fill="#FFFFFF" mask="url(#mask-4)"></path>
            <path d="M118.539104,189.142167 C132.615104,188.399167 149.357104,190.499167 158.959104,197.082167 C162.834104,199.742167 166.918104,205.610167 165.033104,212.266167 C159.492104,231.857167 139.272104,255.270167 93.3061035,273.484167 C78.6961035,279.273167 67.3731035,281.364167 65.5351035,280.190167 C62.9451035,278.523167 70.4781035,266.094167 72.7451035,261.802167 C80.0861035,247.907167 89.0441035,234.697167 97.9801035,222.314167 C100.515104,218.807167 106.232104,210.161167 110.167104,210.701167 C113.396104,211.132167 109.142104,218.964167 106.033104,224.185167 C101.127104,232.441167 85.2831035,258.632167 90.9331035,260.365167 C102.744104,264.004167 152.995104,228.636167 145.643104,209.695167 C142.019104,200.363167 119.847104,199.425167 105.922104,199.420167 C100.895104,199.420167 86.5161035,200.669167 85.8401035,196.848167 C85.3141035,194.336167 104.467104,189.879167 118.539104,189.142167" id="Fill-12" fill="#FFFFFF" mask="url(#mask-4)"></path>
        </g>
    </g>
</svg>