<svg width="84" height="84" viewBox="0 0 84 84" xmlns="http://www.w3.org/2000/svg"><path d="M42 84C18.804 84 0 65.196 0 42S18.804 0 42 0s42 18.804 42 42-18.804 42-42 42zm0-2c22.091 0 40-17.909 40-40S64.091 2 42 2 2 19.909 2 42s17.909 40 40 40zm-3.149-37.076c-4.16-7.992-2.773-17.835 3.422-24.289.46-.485.56-1.22.249-1.815a1.5 1.5 0 0 0-1.61-.794c-9.827 1.892-17.366 10.04-18.703 20.216-1.337 10.175 3.83 20.084 12.82 24.582 8.988 4.497 19.771 2.57 26.752-4.78.459-.486.56-1.22.248-1.816a1.5 1.5 0 0 0-1.61-.794c-8.667 1.767-17.407-2.517-21.568-10.51zm-15.3-1.543c.596-15.15 8.436-20.78 17.49-23.752-6.489 6.74-7.15 14.54-4.675 23.752 2.984 7.919 9.97 14.633 23.495 14.41-3.788 3.8-12.54 6.211-17.253 5.668-7.856-1.015-17.841-7.947-19.057-20.078z" fill="#F26F21" fill-rule="evenodd"/></svg>