<svg width="48" height="48" viewBox="0 0 48 48" xmlns="http://www.w3.org/2000/svg"><defs><linearGradient x1="7.692%" y1="7.691%" x2="78.699%" y2="78.699%" id="a"><stop stop-color="#A459FF" offset=".13%"/><stop stop-color="#512DA8" offset="100%"/></linearGradient></defs><g transform="translate(-11) translate(11)" fill="none"><circle fill="url(#a)" fill-rule="nonzero" cx="24.018" cy="23.915" r="23.915"/><g stroke="#fff" stroke-width=".767" stroke-linecap="round" stroke-linejoin="round"><path d="M18.309 14.981c-2.158 0-3.906-1.748-3.906-3.906 0-2.151 1.748-3.901 3.906-3.901 2.156 0 3.904 1.749 3.904 3.901.001 2.158-1.747 3.906-3.904 3.906z"/><path d="M11.886 13.856c2.24 3.141 5.242 3.505 8.474 1.588l1.409-.796c5.199-3.087 10.39-1.878 13.869 2.998 1.481 2.074-1.941 4.041-3.403 1.99-1.801-2.517-4.085-3.247-6.586-2.451 1.278 2.226 2.399 4.435 3.98 7.574 1.578 3.138 5.07 5.646 8.421 3.685 2.42-1.415 4.598 2.059 2.189 3.469-4.578 2.675-9.945 1.031-12.683-2.445l-.305.135c-2.24.781-5.171 2.855-6.066 3.593-.895.731-2.431 4.483-3.344 6.364-1.105 2.288-4.675.623-3.565-1.674 1.031-2.135 2.767-6.398 4.118-7.479 1.086-.865 3.194-2.474 4.982-3.39-1.209-2.339-2.468-4.657-3.794-6.935-4.224 1.295-8.24-.229-11.1-4.235-1.48-2.073 1.94-4.037 3.404-1.991z"/></g></g></svg>