<svg width="84" height="84" viewBox="0 0 84 84" xmlns="http://www.w3.org/2000/svg"><path d="M42 84C18.804 84 0 65.196 0 42S18.804 0 42 0s42 18.804 42 42-18.804 42-42 42zm0-2c22.091 0 40-17.909 40-40S64.091 2 42 2 2 19.909 2 42s17.909 40 40 40zM21.78 44.676l-4 2.29a1 1 0 0 0 1 1.73l4-2.29a1 1 0 0 0-1-1.73zm.94-9.38l-4.53-.83a1.015 1.015 0 1 0-.35 2l4.53.79h.17a1.004 1.004 0 0 0 .17-2l.01.04zm41 8.66l-25.37-16.2a5.75 5.75 0 0 0-2.47-1.15c-2.31-.46-4.72.57-6.79 2.87a18.39 18.39 0 0 0-4.07 8.68 18.38 18.38 0 0 0 .5 9.59c1.05 2.92 2.9 4.78 5.21 5.23a5.66 5.66 0 0 0 1.08.11 5.8 5.8 0 0 0 .93-.08l20.41.84a1 1 0 0 0-.06.29v6.33a1 1 0 1 0 2 0v-6.34a1 1 0 0 0 0-.22l6.48.27c2.18 0 3.81-1.7 4.36-4.48a6 6 0 0 0-2.19-5.74h-.02zm-32.62 7.05c-1.59-.31-2.91-1.71-3.72-3.94a16.37 16.37 0 0 1-.41-8.52 16.37 16.37 0 0 1 3.6-7.73 6 6 0 0 1 4.24-2.35c.232.001.463.025.69.07 1.59.31 2.91 1.71 3.71 3.94a16.35 16.35 0 0 1 .41 8.52c-1.2 6.11-5.1 10.68-8.52 10.01zm32.87-1.7c-.17.86-.75 2.85-2.42 2.87l-25.09-1a17.24 17.24 0 0 0 5.12-9.73 18.4 18.4 0 0 0-.47-9.52l21.55 13.7a4.12 4.12 0 0 1 1.31 3.68zm-38.32-20.4a1 1 0 0 0 .37-1.37l-2.29-4a1 1 0 1 0-1.73 1l2.29 4a1 1 0 0 0 1.37.37h-.01z" fill="#F26F21" fill-rule="evenodd"/></svg>