<svg width="84" height="84" viewBox="0 0 84 84" xmlns="http://www.w3.org/2000/svg"><path d="M42 84C18.804 84 0 65.196 0 42S18.804 0 42 0s42 18.804 42 42-18.804 42-42 42zm0-2c22.091 0 40-17.909 40-40S64.091 2 42 2 2 19.909 2 42s17.909 40 40 40zm0-53.27a1 1 0 0 0 1-1V20a1 1 0 0 0-2 0v7.73a1 1 0 0 0 1 1zM28.36 33.8a1.008 1.008 0 1 0 1.43-1.42l-5.46-5.46a1.008 1.008 0 0 0-1.44 1.41l5.47 5.47zM15.98 47.03h7.72a1 1 0 0 0 0-2h-7.72a1 1 0 0 0 0 2zm44.33 0h7.73a1 1 0 0 0 0-2H60.3a1 1 0 0 0-1 1c.01.552.458 1 1.01 1zm-5.37-12.9a1 1 0 0 0 .71-.29l5.46-5.46a1 1 0 0 0-1.41-1.41l-5.46 5.46a1 1 0 0 0 .7 1.7zM56 50.69a14.8 14.8 0 1 0-28.1 0H14a1 1 0 0 0 0 2h56a1 1 0 0 0 0-2H56zm-25.9 0a12.8 12.8 0 1 1 23.81 0H30.1zm14.07 5.44a3.07 3.07 0 0 0-4.38 0l-6.57 6.6a1 1 0 0 0 1.41 1.4l6.62-6.62a1.07 1.07 0 0 1 1.5 0l6.62 6.62a1 1 0 0 0 1.42-1.4l-6.62-6.6z" fill="#F26F21" fill-rule="evenodd"/></svg>