<svg width="49" height="48" viewBox="0 0 49 48" xmlns="http://www.w3.org/2000/svg"><defs><linearGradient x1="7.692%" y1="7.691%" x2="78.699%" y2="78.699%" id="a"><stop stop-color="#A459FF" offset=".13%"/><stop stop-color="#512DA8" offset="100%"/></linearGradient></defs><g transform="translate(-123) translate(123)" fill="none"><circle fill="url(#a)" fill-rule="nonzero" cx="24.825" cy="23.915" r="23.915"/><g stroke="#fff" stroke-width=".89" stroke-linecap="round" stroke-linejoin="round"><path d="M24.706 7.174c2.293 0 4.158 1.813 4.158 4.04v14.192c2.468 1.441 4.03 4.089 4.03 7.06 0 4.515-3.675 8.189-8.187 8.189-4.514 0-8.187-3.673-8.187-8.189 0-2.971 1.562-5.619 4.03-7.06v-14.192c-.001-2.227 1.864-4.04 4.156-4.04z"/><path d="M26.361 27.026v-10.706c0-.849-.741-1.537-1.655-1.537s-1.655.688-1.655 1.537v10.706c-2.333.708-4.03 2.876-4.03 5.439 0 3.141 2.544 5.686 5.685 5.686 3.139 0 5.683-2.546 5.683-5.686.001-2.563-1.695-4.731-4.028-5.439z"/></g></g></svg>