<svg width="85" height="84" viewBox="0 0 85 84" xmlns="http://www.w3.org/2000/svg"><path d="M42.25 84c-23.196 0-42-18.804-42-42s18.804-42 42-42 42 18.804 42 42-18.804 42-42 42zm0-2c22.091 0 40-17.909 40-40s-17.909-40-40-40-40 17.909-40 40 17.909 40 40 40zm6.96-38.35V24.71a6.71 6.71 0 0 0-13.42 0v18.94a12.1 12.1 0 0 0-5.54 10.26 12.25 12.25 0 1 0 24.5 0 12.09 12.09 0 0 0-5.54-10.26zM42.5 64.16c-5.658-.006-10.244-4.591-10.25-10.25a10.12 10.12 0 0 1 5-8.84 1 1 0 0 0 .5-.86v-19.5a4.72 4.72 0 0 1 9.42 0v19.5a1 1 0 0 0 .5.86 10.12 10.12 0 0 1 5 8.84c-.005 5.628-4.542 10.2-10.17 10.25zm3.28-18.43v-14a3.28 3.28 0 0 0-6.55 0v14a8.81 8.81 0 1 0 6.55 0zm-3.27 15a6.81 6.81 0 0 1-2-13.33 1 1 0 0 0 .71-1V31.73a1.29 1.29 0 0 1 2.55 0v14.69a1 1 0 0 0 .71 1 6.81 6.81 0 0 1-2 13.33l.03-.02z" fill="#F26F21" fill-rule="evenodd"/></svg>