<svg width="49" height="49" viewBox="0 0 49 49" xmlns="http://www.w3.org/2000/svg"><defs><linearGradient x1="7.692%" y1="7.692%" x2="78.699%" y2="78.7%" id="a"><stop stop-color="#A459FF" offset=".13%"/><stop stop-color="#512DA8" offset="100%"/></linearGradient></defs><g transform="translate(-123 -84) translate(123 84)" fill="none"><circle fill="url(#a)" fill-rule="nonzero" cx="24.825" cy="24.667" r="23.915"/><g stroke="#fff" stroke-width=".767" stroke-linecap="round" stroke-linejoin="round"><path d="M14.665 12.541c-1.402 0-2.538 1.175-2.541 2.628"/><path d="M9.992 15.168c.003-2.649 2.1-4.804 4.672-4.804"/><g><path d="M34.987 36.885c1.402 0 2.541-1.175 2.543-2.628"/><path d="M39.659 34.258c-.003 2.649-2.1 4.804-4.672 4.804"/></g><g transform="translate(9 10) translate(5 4)"><path d="M3.822.26h14.242c1.808 0 3.288 1.48 3.288 3.285v14.239c0 1.809-1.48 3.29-3.288 3.29h-14.242c-1.805 0-3.285-1.481-3.285-3.29v-14.239c-.001-1.805 1.48-3.285 3.285-3.285z"/><path d="M10.944 2.415c4.558 0 8.25 3.694 8.25 8.25 0 4.56-3.691 8.254-8.25 8.254s-8.253-3.694-8.253-8.254c0-4.556 3.695-8.25 8.253-8.25z"/><path d="M3.836 18.535c0 .38-.31.689-.689.689-.382 0-.692-.31-.692-.689 0-.384.31-.691.692-.691.38 0 .689.307.689.691z"/><circle cx="18.503" cy="2.676" r="1"/></g></g></g></svg>