<svg xmlns="http://www.w3.org/2000/svg" width="33.638" height="33.339" viewBox="0 0 33.638 33.339"><path d="M4.996 12.317l.23.151.026.007c.158.073.304.087.438.04.073-.024.146-.066.2-.129l.113-.165c.057-.122.071-.235.047-.339-.024-.103-.071-.19-.16-.263l-.014-.016-.104.176c.057.056.094.122.111.186.007.061 0 .127-.033.19-.038.087-.103.144-.19.176-.087.024-.193.014-.303-.033l.36-.776-.047-.023c-.153-.073-.287-.094-.416-.061l-.047.007c-.082.028-.153.073-.209.136l-.087.144c-.073.143-.08.278-.026.414l.111.178zm.056-.53c.038-.087.104-.143.2-.169.064-.016.144-.007.231.026l-.231.494-.04.089c-.089-.049-.143-.113-.174-.202-.026-.078-.026-.158.014-.238zm1.967-2.62c.108.094.23.144.334.158h.106c.096-.009.191-.038.268-.104l.089-.087.007-.009c.066-.08.106-.167.118-.263.021-.097.009-.184-.028-.271l-.097-.153-.089-.087-.047-.031c-.104-.089-.217-.146-.327-.155l-.097-.007c-.143.016-.273.089-.367.209l-.08.127c-.04.073-.047.153-.047.231l.047.193c.04.079.113.167.21.249zm0-.696c.056-.08.134-.12.23-.12l.104.005.207.122c.082.057.129.12.167.176l.04.111c.009.082 0 .153-.04.226l-.029.032c-.056.078-.138.118-.24.118l-.106-.016c-.063-.015-.133-.055-.206-.118-.12-.089-.184-.183-.2-.282-.017-.095.007-.184.073-.254zm-2.023 5.683l-.134-.082-.075.176c.096.042.151.087.193.151l.016.059v.14100000000000001c-.024.099-.071.16-.153.2-.068.033-.158.042-.271.026l-.08-.016c-.151-.04-.245-.096-.304-.174-.054-.073-.073-.16-.047-.256.016-.064.054-.113.106-.153.047-.033.108-.047.191-.047l.014-.193c-.12-.009-.214.026-.294.087-.089.059-.136.153-.169.273-.023.096-.023.193 0 .28.026.096.08.174.16.24.08.056.174.104.296.136l.127.021c.127.016.247 0 .346-.054l.078-.064c.08-.064.127-.153.16-.263.031-.129.014-.242-.033-.339l-.127-.149zm.256-3.136l.638.336.393.209.087-.169-.48-.256-.638-.341-.256-.129-.024-.014-.094.167.118.064.256.133zm1.487-.334l.071-.106.04-.068-.04-.033-.496-.32.216-.343c.126-.193.166-.344.143-.461-.031-.132-.113-.228-.224-.299-.064-.047-.136-.073-.207-.08l-.193.024-.159.112-.014.009-.144.196-.329.506.487.31.849.553zm-.849-1.263l.007-.016.122-.16.151-.064.167.056c.08.049.12.115.139.183.004.081-.027.177-.1.29l-.221.343-.265-.176-.215-.136.215-.32zm4.387-3.324l-.141.096c.028.08.038.151.021.214-.014.056-.047.115-.106.16-.068.064-.158.09-.245.073-.099-.009-.188-.056-.273-.153l.656-.55-.033-.04c-.118-.143-.254-.223-.393-.24-.118-.016-.231.007-.336.08l-.051.042c-.123.104-.188.222-.193.367-.007.151.049.294.167.447l.077.073c.096.094.2.151.322.165.144.019.281-.031.408-.144l.12-.134.064-.153c.026-.103.016-.207-.04-.32l-.024.017zm-.85.247c-.052-.08-.071-.151-.061-.231 0-.064.023-.12.061-.16l.049-.057c.075-.063.16-.087.256-.071.066.014.127.057.198.12l-.493.415-.01-.016zm5.907-2.966c.016.096.009.179-.033.233-.031.066-.085.104-.16.129-.087.033-.174.021-.247-.026-.08-.047-.143-.148-.193-.292-.047-.146-.054-.266-.014-.346.04-.087.106-.143.193-.179h.174c.056.026.113.073.153.139l.167-.089c-.054-.101-.136-.167-.232-.207-.087-.028-.2-.028-.32.009-.087.031-.167.08-.238.148-.047.06-.087.123-.104.203l-.009.056.009.2.031.127c.063.184.153.311.282.374.115.075.254.082.407.035.12-.04.207-.106.261-.207.063-.099.08-.212.056-.346l-.183.039zm-10.762 10.407l.423.143.256.087.031.009.193-.576.056-.247-.016-.193-.096-.158-.167-.106h-.005l-.012-.007c-.08-.023-.16-.033-.24-.007l-.016.007c-.08.024-.151.078-.205.16-.009-.082-.042-.153-.085-.207l-.118-.096-.047-.019c-.066-.021-.136-.021-.216-.002-.08.012-.143.052-.198.108-.049.064-.096.146-.139.263l-.111.303-.087.256.087.031.712.251zm.202-.544l.103-.214.118-.089h.007l.162.007.087.049.031.024.056.106v.125l-.04.143-.047.136-.081.243-.174-.066-.343-.12.121-.344zm-.649-.167l.104-.223.113-.08.144.016.087.047.033.031.031.143-.047.193-.016.056-.096.271-.454-.16.101-.294zm26.728 12.283c1.758-2.596 2.785-5.722 2.785-9.078 0-8.968-7.309-16.279-16.274-16.279-8.958 0-16.267 7.311-16.267 16.279 0 3.173.932 6.13 2.518 8.639h-2.046l-1.569 8.275h2.211l.633-3.362h.202c.198 0 .369.066.496.195.106.106.193.318.28.645l.416 1.496.282 1.026h2.491l-.609-2.392c-.031-.122-.104-.299-.214-.525-.113-.221-.2-.36-.266-.426-.103-.101-.273-.205-.522-.306.346-.082.626-.195.835-.327.241-.151.442-.341.627-.551.493.419 1.01.81 1.551 1.169l-.101.377c-.183.986-.016 1.778.496 2.383.419.492 1.042.734 1.875.734.202 0 .402-.016.595-.047.67-.101 1.258-.381 1.755-.835.141-.128.266-.268.384-.413.706.177 1.425.321 2.163.403l-.143.756h2.197l.128-.673c.837-.021 1.658-.105 2.46-.248l-.174.921h2.214l.286-1.517c.672-.227 1.322-.501 1.952-.811-.015.653.118 1.208.422 1.657.362.548 1.153.816 2.362.816.694 0 1.284-.12 1.783-.351.506-.235.922-.569 1.259-1.016.336-.445.553-.941.659-1.47.085-.456.064-.856-.059-1.23-.118-.36-.367-.67-.736-.91-.287-.195-.741-.384-1.355-.571l.421-.458.004.053 2.105-.139c.068-.856-.094-1.491-.503-1.882l-.009-.007zm-29.306-9.078c0-4.52 1.917-8.596 4.965-11.485l.267.612c-2.834 2.763-4.604 6.614-4.604 10.872 0 3.208 1.012 6.184 2.723 8.641h-.762c-1.631-2.489-2.589-5.455-2.589-8.64zm3.767 11.144c-.033.176-.115.334-.223.475-.12.139-.256.231-.412.259-.184.047-.327.085-.44.094l-.167.016h-.932l.322-1.675h.968c.169 0 .298.02.416.045l.476.524-.008.262zm-.071-2.505h-.07c-1.74-2.446-2.775-5.424-2.775-8.641 0-4.167 1.718-7.94 4.476-10.658.218.483.501 1.092.842 1.79l-.036.038.047.023.025.01.285.575-.221-.191-.089-.083-.374-.317-.144-.13-.129.146.273.24.374.318.089.08.454.396.031.061c-2.236 2.646-3.592 6.058-3.592 9.78 0 1.696.287 3.331.805 4.867.206.609.463 1.196.743 1.768-.279-.046-.613-.072-1.014-.072zm21.515-19.565c.813 1.155 1.479 2.424 1.949 3.789.52 1.51.8 3.131.8 4.825 0 4.006-1.598 7.647-4.178 10.339-1.049-.434-2.248-.974-3.517-1.625 1.041-1.08 1.939-2.39 2.582-3.983 2.801-6.93 2.611-11.545 2.364-13.345zm-1.084 23.361c-.885.594-1.841 1.086-2.845 1.483l.769-4.076c.634-.474 1.236-.987 1.789-1.552.579.237 1.105.441 1.569.612-.403.208-.745.473-1.005.82-.282.372-.468.772-.548 1.2-.11.61-.019 1.107.271 1.513zm-4.294-10.341c-1.998.555-3.996.639-5.988.063-.223-.211-.444-.428-.662-.656l.668-.894c-1.341-2.087-.814-4.493-.383-5.85.143 1.55-.32 3.874.856 5.225l.32-.407c.781-1.014 1.917-2.327 3.155-3.684-1.127-2.054-.767-3.397-.51-4.754.143 1.557-.057 2.708 1.15 4.058 2.69-2.925 5.62-5.905 6.336-6.63l.01.004c-.763.84-4.279 4.733-7.392 8.569 1.708.593 3.427.583 5.135-.026-1.731.899-3.578 1.242-5.615.619-1.07 1.324-2.054 2.621-2.853 3.757v.007c1.972.741 3.898.879 5.773.599zm-12.61-9.985l.126.099.101-.082.085-.144-.022-.183-.003-.006c2.731-2.877 6.577-4.684 10.837-4.684 1.157 0 2.286.129 3.366.376.869.207 1.694.504 2.497.845-2.401.365-9.483 1.826-14.81 6.875-.174.164-.337.332-.497.501-.709-1.176-1.344-2.332-1.882-3.375l.202-.222zm-.309.012l-.397-.788.672.292.078.031.018.049.002.005-.373.411zm17.726-3.853c-.914-.417-1.872-.766-2.872-.995-1.101-.252-2.244-.388-3.42-.388-4.287 0-8.163 1.804-10.93 4.683l-.015-.033-.214-.437-.329-.69-.135.144.31.64.136.24-.248-.12-.535-.244c-.364-.742-.663-1.387-.887-1.886 2.69-2.57 6.321-4.16 10.317-4.16 3.473 0 6.668 1.203 9.212 3.2l-.39.046zm-19.429 20.575l-.232-.075c-.307-.612-.582-1.242-.803-1.898-.51-1.51-.793-3.124-.793-4.794 0-3.636 1.31-6.973 3.478-9.571.541 1.043 1.176 2.196 1.885 3.368-4.111 4.508-3.579 10.512-2.992 13.426-.142-.2-.313-.366-.543-.456zm.848 1.738l-.012-.017.002-.021.01.038zm.95 2.546c-.496-.335-.967-.703-1.421-1.09.116-.181.21-.382.286-.597.453.394.922.77 1.42 1.11-.11.182-.205.374-.285.577zm.404-.76c-.517-.353-1.003-.747-1.471-1.161l.077-.267.003-.036.28.397.064-.046-.043.078c.464.227.945.422 1.432.6-.125.138-.239.283-.342.435zm2.32 3.084c-.087.031-.193.047-.299.047-.28 0-.489-.129-.623-.383-.073-.136-.109-.312-.117-.523.462.227.935.432 1.42.615-.118.112-.243.2-.381.244zm.67-.608c-.572-.21-1.128-.449-1.667-.721l.018-.198c.03-.167.082-.299.128-.439.566.292 1.153.544 1.757.765-.064.234-.143.43-.236.593zm.315-.935l-.031.131c-.6-.221-1.184-.472-1.745-.764.087-.208.191-.384.317-.522.105-.117.221-.199.342-.264.322.073.654.116.983.169l.078.086c.139.261.151.642.056 1.164zm3.398 1.818c-.674-.073-1.33-.2-1.977-.356.115-.183.215-.377.299-.582.588.135 1.185.246 1.796.31l-.118.628zm.159-.838c-.595-.062-1.176-.169-1.749-.298.076-.216.137-.443.181-.682.073-.38.089-.726.061-1.048l.229.013c.568 0 1.126-.037 1.678-.099l-.4 2.114zm.442-2.339c-.566.065-1.138.107-1.72.107l-.259-.015c-.049-.294-.134-.568-.271-.811-.247-.428-.626-.709-1.11-.876 1.189-.25 2.533-.631 3.89-1.204l-.53 2.799zm-3.927-6.286c-1.604 2.376-2.908 4.357-3.451 5.18.157-.002.514-.013 1.011-.052-.123.087-.243.18-.358.285l-.077.083c-.5-.181-.988-.387-1.461-.619l-.077-.109c.744-1.074 2.423-3.465 4.191-5.925-.877-1.661-1.301-3.324-1.28-4.971.306 1.574.807 3.06 1.736 4.331.688-.962 1.381-1.911 2.027-2.784l.517.519c-.776 1.109-1.536 2.232-2.257 3.288 1.988.517 3.971.6 5.952.223-1.453.631-3.603.817-6.473.551zm7.974 9.273c-.801.152-1.624.236-2.462.262l.123-.646c.839-.034 1.666-.118 2.466-.283l-.127.667zm.17-.901c-.8.171-1.627.263-2.469.3l.259-1.364h2.411l-.201 1.064zm.585-3.101h-.33l.363-.176-.033.176zm.546-2.895l-.463 2.456c-.312.155-.625.307-.949.44h-1.546l.553-2.896h-.223c.939-.568 1.843-1.252 2.664-2.073 1.268.654 2.469 1.198 3.523 1.635-.472.477-.982.913-1.513 1.324l.167-.886h-2.213zm1.032 6.255l.138-.729c1.072-.412 2.093-.928 3.033-1.56.136.147.309.283.52.408-1.132.783-2.373 1.412-3.691 1.881zm5.768.277c-.209.179-.466.261-.779.261-.426 0-.713-.167-.882-.501-.096-.205-.136-.513-.106-.903l-1.245.088c.474-.271.932-.566 1.375-.882.245.106.512.205.825.29.562.151.908.306 1.044.473.127.181.165.365.127.579-.039.226-.161.428-.359.595zm-.922-4.483c.031-.176.127-.336.28-.456.153-.132.36-.186.616-.186l.029.005c-.283.311-.578.61-.886.896-.037-.081-.057-.167-.039-.259zm.846.68l-.068-.019c-.288-.071-.484-.146-.602-.228.354-.327.691-.67 1.012-1.03.159.039.298.1.389.206l.096.2c-.265.3-.538.593-.827.871zm.556-2.868c-.659 0-1.199.097-1.644.275-.49-.178-1.068-.4-1.704-.659 2.586-2.725 4.188-6.393 4.188-10.427 0-1.717-.287-3.362-.816-4.898-.519-1.529-1.285-2.941-2.236-4.201l-.074-.345c3.479 2.745 5.726 6.989 5.726 11.753 0 3.179-1.008 6.128-2.711 8.557-.223-.033-.461-.055-.729-.055zm.973.104c1.696-2.45 2.696-5.414 2.696-8.607 0-8.375-6.822-15.199-15.196-15.199-4.026 0-7.688 1.593-10.412 4.17l-.269-.611c2.819-2.596 6.565-4.196 10.68-4.196 8.716 0 15.827 7.111 15.827 15.839 0 3.26-.997 6.296-2.701 8.819-.177-.095-.391-.162-.625-.215zm-14.077-21.423l.056.207.214-.056-.054-.212-.216.061zm-3.187-.257l-.184.097.72 1.414.127-.064.066-.03-.066-.113-.663-1.304zm1.637.25l-.078-.176-.103-.113-.162-.038-.191.031c-.151.057-.24.16-.271.303l-.066-.151-.103.038-.054.026.054.151.353.927.183-.073-.224-.59c-.056-.134-.063-.238-.023-.313.038-.071.094-.118.176-.151l.136-.014.111.064.08.16.256.645.167-.061h.016l-.015-.035-.242-.63zm-4.761 3.587l-.05.04h-.004l-.047-.009-.092-.071-.452-.487.144-.136-.104-.113-.136.127-.012.009-.268-.296-.066.216.193.21-.104.101.103.106.107-.097.047.056.405.43.179.151.107.013h.009l.144-.09.096-.113-.143-.11-.056.063zm-4.712 9.405l-.193-.111-.249-.151.129-.649.12-.026.386-.061.038-.216.007-.023h-.007l-.423.087-.71.136-.543.113-.04.223.583.367.71.44.146.087.046-.216zm-.6-.35l-.303-.184-.12-.08-.28-.139.343-.047.057-.014.407-.066-.104.53zm6.928-10.652c.047.085.061.158.047.231l-.087.143-.033.024c-.071.056-.16.073-.247.049-.089-.026-.176-.103-.263-.233-.089-.12-.127-.231-.12-.32.007-.096.054-.165.139-.221.052-.042.108-.059.162-.052.066 0 .122.033.186.089l.134-.136c-.078-.08-.174-.127-.278-.134-.096 0-.202.028-.303.106l-.153.148-.033.061c-.047.085-.054.179-.031.282l.064.184.071.115c.106.158.233.252.369.278.111.031.221.009.336-.049l.061-.038c.106-.073.172-.16.2-.273.026-.111.009-.231-.047-.351l-.174.097zm.758-1.174c-.057-.042-.111-.059-.184-.049-.073 0-.143.031-.214.073-.122.071-.193.184-.209.318l-.19-.303-.115-.183-.165.104.28.447.567.903.158-.103-.325-.536-.089-.2.026-.158.116-.125c.063-.037.127-.056.183-.037.064.016.113.061.167.143l.386.623.165-.103-.383-.626c-.062-.094-.116-.16-.174-.188z" fill="#fff"/></svg>