<svg xmlns="http://www.w3.org/2000/svg" width="42.295" height="25.097" viewBox="0 0 42.295 25.097"><path d="M9.883 10.7c.234-.233.506-.428.817-.584.234-.078.506-.156.778-.195h.234c.428 0 .817.078 1.167.234.35.194.623.428.856.778h1.284c-.311-.661-.739-1.167-1.323-1.556-.545-.35-1.245-.506-1.984-.506h-.234c-.428 0-.817.117-1.167.272-.467.156-.856.429-1.206.779-.389.389-.662.817-.856 1.284-.194.428-.311.934-.311 1.44s.078 1.012.233 1.44c.156.428.428.856.739 1.206.35.428.778.739 1.245.934.428.195.856.311 1.323.311h.234c.739 0 1.401-.156 1.945-.506.584-.35 1.012-.817 1.362-1.479h-1.323c-.234.311-.506.545-.856.7-.35.156-.7.233-1.128.233h-.234c-.272-.039-.545-.117-.778-.233-.35-.117-.623-.35-.895-.584-.233-.272-.428-.545-.545-.895-.156-.35-.194-.739-.194-1.089 0-.389.078-.739.194-1.09.156-.349.35-.621.623-.894zm18.794-9.844c-2.335-.545-4.864-.856-7.51-.856l-1.557.039c-2.918.117-5.681.623-8.132 1.362-6.809 2.101-11.478 6.303-11.478 11.167 0 4.825 4.669 9.027 11.478 11.128 2.451.739 5.214 1.245 8.132 1.362l1.557.039c2.646 0 5.175-.311 7.51-.817 7.976-1.829 13.618-6.381 13.618-11.712 0-5.331-5.642-9.922-13.618-11.712zm0 21.128c-2.296.545-4.864.856-7.51.856-.545 0-1.051 0-1.557-.039-2.957-.117-5.72-.622-8.132-1.401-5.525-1.829-9.222-5.097-9.222-8.833 0-3.774 3.696-7.043 9.222-8.871 2.412-.778 5.175-1.284 8.132-1.401.506-.039 1.012-.039 1.557-.039 2.646 0 5.214.311 7.51.856 6.692 1.595 11.4 5.214 11.4 9.455 0 4.203-4.708 7.822-11.4 9.417zm-1.596-11.284c.234-.233.506-.428.856-.584.234-.078.506-.156.739-.195h.233c.428 0 .817.078 1.167.234.35.194.661.428.895.778h1.245c-.272-.661-.7-1.167-1.284-1.556-.584-.35-1.245-.506-2.023-.506h-.233c-.389 0-.778.117-1.167.272-.428.156-.817.428-1.206.778-.35.389-.661.817-.856 1.284-.195.428-.272.934-.272 1.44s.078 1.012.233 1.44.389.856.701 1.206c.389.428.817.739 1.284.934.389.195.817.311 1.284.311h.233c.739 0 1.401-.156 1.985-.506.583-.35 1.012-.817 1.323-1.479h-1.323c-.195.311-.506.545-.817.7-.35.156-.739.233-1.167.233h-.233c-.234-.039-.506-.117-.778-.233-.311-.117-.622-.35-.895-.584-.234-.272-.389-.545-.545-.895-.117-.35-.195-.739-.195-1.089 0-.389.078-.739.234-1.09.115-.348.31-.62.582-.893zm-3.696 4.669l-.389-.117c.312-.35.545-.739.7-1.167.156-.389.234-.856.234-1.323 0-.584-.117-1.089-.311-1.556-.156-.467-.467-.895-.856-1.284-.35-.35-.739-.622-1.206-.778-.428-.194-.895-.272-1.44-.272h-.506c-.311.078-.622.156-.895.272-.428.156-.817.428-1.206.778-.35.389-.661.817-.856 1.284-.195.428-.272.934-.272 1.44 0 .623.117 1.206.35 1.751.233.506.583.973 1.05 1.323.35.273.7.467 1.09.623.233.078.467.156.739.156.156.039.35.039.506.039.389 0 .739-.039 1.09-.156.35-.078.662-.234.973-.428.311.156.584.272.856.389.311.078.584.117.856.117h.117v-1.05h-.156c-.157-.002-.313-.002-.468-.041zm-2.685.078c-.194.039-.35.039-.506.039-.233 0-.428 0-.584-.078-.233-.039-.467-.117-.661-.234-.389-.195-.739-.506-.973-.895.117 0 .233-.039.35-.078h.35c.312 0 .623.039.934.117.117.039.273.078.389.156.428.156.856.428 1.245.778-.194.079-.388.156-.544.195zm1.945-1.712c-.156.311-.35.622-.584.934-.506-.467-1.051-.817-1.595-1.05-.311-.156-.583-.234-.856-.311-.272-.039-.545-.078-.817-.078-.234 0-.467.039-.662.078s-.389.078-.545.156c-.039-.117-.078-.272-.078-.389-.039-.117-.039-.233-.039-.35 0-.389.078-.739.195-1.089.155-.35.35-.661.623-.934.234-.233.506-.428.856-.584.117-.04.273-.118.467-.157l.506-.039c.389 0 .739.078 1.09.234.311.117.584.35.895.662.233.233.389.545.506.856.156.311.195.622.195.973-.001.388-.04.777-.157 1.088z" fill="#fff"/></svg>