<svg xmlns="http://www.w3.org/2000/svg" width="30.777" height="30.777" viewBox="0 0 30.777 30.777"><path d="M12.742 21.251c.119-.158.158-.313.158-.509 0-.235-.078-.393-.196-.512-.116-.116-.271-.155-.471-.194h-1.057v2.862h.393v-1.218h.39l.274.434.551.783h.509l-.98-1.334c.193-.076.351-.195.429-.312zm-.51.039c-.116.078-.315.119-.509.119h-.155v-1.06h.271c.155 0 .277 0 .393.039.155.08.235.196.235.393 0 .196-.036.352-.196.47l-.039.039zm8.156-20.465c-1.569-.548-3.254-.825-4.981-.825-1.096 0-2.153.119-3.174.313-6.978 1.453-12.233 7.685-12.233 15.058 0 7.411 5.255 13.605 12.232 15.094 1.021.196 2.078.313 3.174.313 1.727 0 3.412-.313 4.981-.822 6.036-2.078 10.389-7.84 10.389-14.585.001-6.706-4.352-12.468-10.388-14.546zm0 26.855c-1.53.628-3.216.98-4.981.98-1.096 0-2.153-.116-3.174-.39-5.801-1.412-10.116-6.667-10.116-12.899 0-6.238 4.314-11.449 10.115-12.902 1.021-.233 2.078-.352 3.174-.352 1.766 0 3.451.315 4.981.98 4.862 1.962 8.269 6.744 8.269 12.274.002 5.568-3.405 10.353-8.268 12.309zm0-6.348h-1.099v-10.431h-2.314v12.506h6.861v-2.073h-3.448v-.002zm-8.156-2.084h-.158c-1.254 0-2.272 1.021-2.272 2.277s1.018 2.272 2.272 2.272h.158c1.176-.075 2.117-1.096 2.117-2.272 0-1.215-.94-2.197-2.117-2.277zm0 4.237h-.158c-1.055 0-1.959-.9-1.959-1.959 0-1.096.905-1.959 1.959-1.959h.158c1.021.078 1.804.902 1.804 1.959.001 1.021-.783 1.881-1.804 1.959zm1.138-9.919c0 1.06-.116 1.763-.315 2.195-.155.313-.432.473-.822.509h-.08c-.429 0-.744-.196-.902-.587-.194-.388-.274-1.099-.274-2.117v-7.845h-2.353v7.846c0 1.647.315 2.864.863 3.725.551.706 1.411 1.06 2.665 1.099h.08c1.256-.039 2.117-.432 2.665-1.215.196-.315.352-.667.509-1.101.196-.703.277-1.528.277-2.507v-7.847h-2.313v7.845z" fill="#fff"/></svg>