<svg xmlns="http://www.w3.org/2000/svg" width="77.828" height="16.558" viewBox="0 0 77.828 16.558"><path d="M20.96 2.946h4.693l-2.794 13.328h3.296l2.783-13.328h4.628l.557-2.674h-12.606l-.557 2.674zm-12.435 8.537l-.491-11.21h-4.694l-3.34 16.001h2.969l2.543-13.37.578 13.371h3.122l6.32-13.273-3.155 13.273h3.002l3.352-16.002h-4.748l-5.458 11.21zm64.857-5.212c-1.513-3.508-4.836-5.77-4.977-5.864l-.279.415c.033.022 3.344 2.277 4.797 5.647 1.3 3.016 1.263 5.977.878 7.604-.181-.322-.422-.658-.721-.992.034-.418.232-3.849-1.881-7.573-1.947-3.432-5.681-5.057-5.838-5.124l-.197.46c.037.016 3.735 1.625 5.6 4.911 1.67 2.943 1.838 5.752 1.831 6.842-.308-.276-.669-.544-1.089-.798-.048-.701-.403-4.352-2.769-7.069-1.959-2.251-4.747-3.393-5.941-3.803l.693-.311s-1.965-.051-3.627.586c-1.585.608-4.244 2.888-3.701 4.452s2.723 2.432 4.222 4.061c.957 1.041 1.795 2.231 1.694 3.279-.217 2.259-1.042 3.279-1.042 3.279h13.4s.023-.645-.313-1.516c.534-1.52.771-4.981-.74-8.486zm-13 .86c-.348-.207-.639-.416-.883-.624.533.02 1.409.122 2.253.524.93.444 1.577 1.116 1.948 1.582-1.326-.505-2.483-.985-3.318-1.482zm4.108 1.779l.02-.011c-.034-.062-.857-1.516-2.543-2.319-1.318-.628-2.66-.588-2.952-.571-.266-.328-.425-.653-.489-.97.723.021 2.683.157 4.233 1.033 2.025 1.144 2.721 2.58 2.953 3.292l-1.222-.454zm1.801.669c-.119-.577-.693-2.477-3.285-3.943-1.695-.957-3.769-1.085-4.506-1.1.024-.277.112-.544.25-.796.81-.005 3.757.122 6.169 2.023 1.902 1.5 2.503 3.398 2.689 4.313-.444-.171-.884-.336-1.317-.497zm1.867.715c-.115-.81-.633-3.114-2.93-4.924-2.289-1.805-4.962-2.093-6.131-2.127.167-.195.358-.378.569-.544.153-.12.325-.242.508-.362.816.165 3.744.852 5.737 2.53 2.683 2.257 3.212 4.862 3.316 5.856l-1.069-.429zm2.41 1.007l-.818-.352c-.038-.814-.394-3.837-3.517-6.464-1.791-1.507-4.228-2.236-5.446-2.525.452-.263.927-.509 1.352-.719.467.138 3.977 1.239 6.22 3.817 1.978 2.273 2.49 5.327 2.615 6.447l-.406-.204zm-22.252-.287l-3.319-.502c-.349 1.084-.878 1.902-1.588 2.455-.71.554-1.49.83-2.342.83-.917 0-1.682-.349-2.297-1.047-.615-.698-.923-1.688-.923-2.969 0-1.172.237-2.345.71-3.519.472-1.176 1.104-2.04 1.894-2.593.789-.553 1.639-.83 2.548-.83.83 0 1.494.21 1.992.628.498.418.835 1.093 1.01 2.024l3.154-.306c-.189-1.6-.819-2.864-1.888-3.792-1.069-.929-2.47-1.393-4.202-1.393-1.543 0-2.969.4-4.279 1.201-1.309.801-2.334 1.956-3.073 3.466-.738 1.51-1.108 3.175-1.108 4.994 0 2.24.551 3.951 1.654 5.13 1.103 1.178 2.633 1.767 4.59 1.767 1.739 0 3.257-.475 4.552-1.424 1.295-.95 2.267-2.324 2.915-4.12zm22.372-10.606l-.283.412c.027.019 2.799 1.955 4.252 5.727 1.536 3.986 1.161 8.136.3 9.6l.432.254c.912-1.551 1.328-5.9-.265-10.033-1.51-3.915-4.317-5.878-4.436-5.96zm-9.698 11.36c-1.039-2.366-4.582-3.378-5.581-5.637-.294-.665-.283-2.149.891-3.453.977-1.086 2.845-1.803 2.845-1.803s-4.192-.521-6.428 2.91c-1.117 1.714-1.996 6.933-4.539 9.99-1.933 2.324-4.018 2.498-4.018 2.498h16.093c-.001.001 1.476-2.822.737-4.505zm16.006-4.987c-1.356-4.186-4.099-6.28-4.215-6.367l-.301.4c.027.02 2.732 2.085 4.039 6.121 1.513 4.67.508 8.321-.007 9.333l.445.227c.021-.037 1.924-3.892.039-9.714z" fill="#fff"/></svg>