<svg xmlns="http://www.w3.org/2000/svg" width="101.388" height="19.052" viewBox="0 0 101.388 19.052"><path d="M24.494 9.495c0-1.747-2.396-3.161-5.351-3.161s-5.348 1.414-5.348 3.161c0 1.745 2.394 3.159 5.348 3.159 2.955 0 5.351-1.414 5.351-3.159zm-11.274 9.114h12.116v-5.32h-12.116v5.32zm0-12.897h12.116v-5.323h-12.116v5.323zm-13.22 0h12.116v-5.323h-12.116v5.323zm0 12.897h12.116v-5.32h-12.116v5.32zm0-6.45h12.116v-5.32h-12.116v5.32zm26.437-6.447h12.116v-5.323h-12.116v5.323zm0 12.897h12.116v-5.32h-12.116v5.32zm46.282-1.499c-.92.507-1.978.757-3.18.757-1.38 0-2.611-.321-3.689-.964-1.078-.646-1.884-1.574-2.422-2.781-.535-1.21-.804-2.637-.804-4.289 0-1.996.287-3.668.853-5.012.569-1.342 1.349-2.319 2.339-2.934.99-.613 2.102-.92 3.33-.92 1.463 0 2.717.406 3.761 1.225 1.044.814 1.851 2.148 2.417 4.002h.421l-.42-6.194h-.478c-.101.429-.269.768-.504 1.008-.181.171-.396.256-.641.256-.163 0-.437-.098-.819-.297-1.302-.646-2.62-.967-3.956-.967-1.719 0-3.301.416-4.754 1.254-1.45.84-2.59 2.019-3.417 3.544-.828 1.522-1.241 3.192-1.241 5.012 0 2.254.628 4.216 1.884 5.884 1.683 2.239 4.053 3.358 7.117 3.358 1.701 0 3.172-.377 4.408-1.13 1.238-.75 2.319-1.936 3.247-3.557l-.424-.269c-1.1 1.502-2.111 2.508-3.028 3.014zm26.353-15.499c.323-.465.884-.698 1.675-.698h.641v-.499h-5.238l-6.6 14.259-6.71-14.259h-5.24v.499c.755 0 1.303.085 1.642.264.344.173.576.39.703.649.184.359.274.944.274 1.747v11.904c0 1.021-.101 1.675-.3 1.965-.328.465-.882.695-1.662.695h-.657v.499h6.439v-.499h-.657c-.726 0-1.259-.186-1.595-.563-.246-.279-.367-.975-.367-2.096v-12.174l7.145 15.332h.452l7.133-15.332v12.173c0 1.021-.098 1.675-.3 1.965-.318.465-.874.695-1.667.695h-.651v.499h7.856v-.499h-.641c-.726 0-1.259-.186-1.598-.563-.253-.279-.38-.975-.38-2.096v-11.905c0-1.018.098-1.675.303-1.962zm-72.635 10.548h12.116v-5.32h-12.116v5.32zm27.609 2.837l-3.818-5.227c1.554-.339 2.701-.923 3.443-1.747.742-.825 1.112-1.797 1.112-2.916 0-1.047-.326-1.952-.975-2.707-.651-.757-1.442-1.277-2.373-1.561-.933-.279-2.381-.421-4.345-.421h-6.737v.499h.693c.7 0 1.23.194 1.585.589.253.277.38.99.38 2.135v11.772c0 1.037-.096 1.698-.284 1.975-.339.499-.897.75-1.68.75h-.693v.499h7.921v-.499h-.719c-.693 0-1.212-.196-1.559-.589-.251-.277-.38-.99-.38-2.135v-5.294l.424.021.38.005c.292 0 .67-.008 1.135-.026l6.258 8.518h4.937v-.499c-1.008-.106-1.828-.357-2.453-.75-.629-.396-1.379-1.195-2.252-2.392zm-7.665-5.71l-.315-.008-.45-.008v-7.579c.9-.168 1.616-.253 2.14-.253 1.192 0 2.151.357 2.872 1.07.724.711 1.086 1.636 1.086 2.771 0 1.163-.45 2.125-1.344 2.877-.897.752-2.226 1.13-3.989 1.13z" fill="#fff"/></svg>