<svg width="49" height="48" viewBox="0 0 49 48" xmlns="http://www.w3.org/2000/svg"><defs><linearGradient x1="7.692%" y1="7.691%" x2="78.699%" y2="78.699%" id="a"><stop stop-color="#A459FF" offset=".13%"/><stop stop-color="#512DA8" offset="100%"/></linearGradient></defs><g transform="translate(-236) translate(236)" fill="none"><circle fill="url(#a)" fill-rule="nonzero" cx="24.632" cy="23.915" r="23.915"/><g transform="translate(8 7)"><circle stroke="#fff" stroke-width="1.15" stroke-linecap="round" stroke-linejoin="round" cx="16.641" cy="16.46" r="8.875"/><path d="M18.539 2.071c0 1.047-.852 1.895-1.898 1.895-1.049 0-1.898-.848-1.898-1.895 0-1.05.849-1.896 1.898-1.896 1.046-.001 1.898.845 1.898 1.896z" fill="#fff" fill-rule="nonzero" opacity=".5"/><circle fill="#fff" fill-rule="nonzero" opacity=".6" cx="26.891" cy="6.313" r="1.896"/><circle fill="#fff" fill-rule="nonzero" opacity=".7" cx="31.135" cy="16.559" r="1.895"/><circle fill="#fff" fill-rule="nonzero" opacity=".8" cx="26.891" cy="26.926" r="1.896"/><circle fill="#fff" fill-rule="nonzero" opacity=".9" cx="16.641" cy="31.054" r="1.898"/><circle fill="#fff" fill-rule="nonzero" cx="6.258" cy="26.926" r="1.895"/><circle fill="#fff" fill-rule="nonzero" cx="2.148" cy="16.559" r="1.896"/><path d="M8.153 5.864c0 1.046-.846 1.893-1.895 1.893s-1.895-.848-1.895-1.893c0-1.051.846-1.898 1.895-1.898s1.895.847 1.895 1.898z" fill="#fff" fill-rule="nonzero"/></g></g></svg>