<svg width="84" height="84" viewBox="0 0 84 84" xmlns="http://www.w3.org/2000/svg"><path d="M42 0c-23.2 0-42 18.8-42 42s18.8 42 42 42 42-18.8 42-42-18.8-42-42-42zm0 81c-21.5 0-39-17.5-39-39s17.5-39 39-39 39 17.5 39 39-17.5 39-39 39zm7.5-46.3c.6.6.6 1.5 0 2.1l-5.2 5.2 5.2 5.2c.6.6.6 1.5 0 2.1-.3.3-.7.4-1.1.4-.4 0-.8-.1-1.1-.4l-5.2-5.2-5.2 5.2c-.3.3-.7.4-1.1.4-.4 0-.8-.1-1.1-.4-.6-.6-.6-1.5 0-2.1l5.2-5.2-5.2-5.2c-.6-.6-.6-1.5 0-2.1.6-.6 1.5-.6 2.1 0l5.2 5.2 5.2-5.2c.6-.6 1.6-.6 2.3 0zm12.2-6.8h-.1c-.1 0-6.2-1.9-11.3-5.3-4.9-3.2-7-6.6-7-6.7v-.1l-.1-.1-.1-.1-.1-.1-.1-.1h-.1l-.2-.1h-1c-.1 0-.1 0-.2.1h-.2l-.1.1s-.1 0-.1.1l-.1.1-.1.1-.1.2s-2.1 3.4-7 6.7c-5.1 3.3-11.2 5.3-11.3 5.3h-.1c-.4.1-.9.3-1 .8-.2.4-.2.7 0 1.1v.1c0 .1 0 1.2.1 2.8.1 5 .4 15.4.4 18.4 0 5 14.6 17.7 20.3 17.7 5.7 0 20.3-12.7 20.3-17.7 0-3 .2-13.4.4-18.4 0-1.6.1-2.7.1-2.8v-.1c.2-.4.2-.7 0-1.1-.3-.5-.7-.7-1.2-.9zm-2 4.7c-.1 5-.4 15.4-.4 18.5 0 3.1-12.9 14.7-17.3 14.7-4.5 0-17.3-11.6-17.3-14.7 0-3.1-.2-13.5-.4-18.5v-2.2c2-.7 6.8-2.5 11-5.3 3.3-2.2 5.5-4.4 6.7-5.9 1.2 1.5 3.4 3.7 6.7 5.9 4.2 2.8 9 4.6 11 5.3v2.2z" fill-rule="nonzero" fill="#F26F21"/></svg>