<svg width="49" height="49" viewBox="0 0 49 49" xmlns="http://www.w3.org/2000/svg"><defs><linearGradient x1="7.692%" y1="7.692%" x2="78.699%" y2="78.7%" id="a"><stop stop-color="#A459FF" offset=".13%"/><stop stop-color="#512DA8" offset="100%"/></linearGradient></defs><g transform="translate(-236 -84) translate(236 84)" fill="none"><circle fill="url(#a)" fill-rule="nonzero" cx="24.632" cy="24.667" r="23.915"/><g><g fill-rule="nonzero" fill="#fff"><path d="M24.278 11.56v3.94c0 .712-.2 1.262-.601 1.652-.401.39-.946.584-1.636.584s-1.229-.194-1.618-.584c-.39-.39-.585-.94-.585-1.652v-3.94h.768v3.972c0 .513.122.896.368 1.152.244.256.611.383 1.101.383.467 0 .818-.127 1.052-.383.233-.256.35-.64.35-1.152v-3.972h.801z"/><path d="M29.085 11.56h.801l-2.036 6.108h-.768l-2.036-6.108h.835l1.234 3.872c.111.379.234.845.367 1.402.067-.401.189-.878.368-1.434l1.235-3.84z"/></g><g stroke-linecap="round" stroke="#fff" stroke-width=".767" stroke-linejoin="round"><g><path d="M24.595 23.442v14.424"/><path d="M24.595 37.866l2.003-2.003"/><path d="M22.594 35.863l2.003 2.003"/></g><g><path d="M13.69 13.284c1.598 4.333 5.862 7.44 10.886 7.44 5.023 0 9.287-3.107 10.881-7.44"/><path d="M36.082 18.075l2.925 2.742"/><path d="M28.613 23.739l1.089 4.112"/><path d="M13.2 18.075l-2.925 2.742"/><path d="M20.669 23.739l-1.088 4.112"/></g><g><path d="M11.504 35.506l2.728-.767"/><path d="M10.74 32.778l.765 2.728"/><path d="M19.292 21.718l-7.788 13.788"/><path d="M11.504 35.506l2.728-.767"/><path d="M10.74 32.778l.765 2.728"/></g><g><path d="M37.777 35.506l-2.727-.767"/><path d="M38.541 32.778l-.764 2.728"/><path d="M29.99 21.718l7.787 13.788"/><path d="M37.777 35.506l-2.727-.767"/><path d="M38.541 32.778l-.764 2.728"/></g></g></g></g></svg>