<svg width="138" height="135" viewBox="0 0 138 135" xmlns="http://www.w3.org/2000/svg"><path d="M101.887 0c20.019 0 36.28 16.262 36.112 36.224 0 20.019-16.262 36.28-36.28 36.28-4.093 0-8.131-.673-11.944-2.019.28-1.794.617-3.701.897-5.607 0-.056.112-.505.224-1.346 4.206.673 16.318 1.85 24.953-4.766 7.458-4.71 12.448-13.009 12.448-22.486 0-14.635-11.944-26.523-26.579-26.523-2.075 0-4.262.28-6.841.897-11.383 2.692-17.439 13.738-17.495 13.85l-.056.168c-6.729 11.72-11.047 40.037-11.103 40.317-4.262 28.093-10.149 43.682-19.626 50.13-.729.505-1.29.785-1.29.785-15.364 7.009-24.504-2.86-28.037-8.075 1.514 1.458 3.308 2.635 5.327 3.421 6.449 2.411 13.57.449 18.953-4.542 5.551-4.149 10.878-15.196 15.14-43.233.224-1.234 4.654-30.336 12.28-43.626.729-1.346 8.523-15.084 23.832-18.673 3.308-.785 6.28-1.178 9.084-1.178l.001.002zm-12.392 37.738l-.112.393c-2.916 6.785-5.607 17.159-8.019 32.803-.168 1.234-4.598 30.392-12.224 43.682-.897 1.626-8.635 15.084-23.775 18.617-3.308.785-6.28 1.178-9.084 1.178-20.019 0-36.28-16.262-36.28-36.28 0-20.019 16.262-36.28 36.28-36.28 4.206 0 8.299.729 12.168 2.131-.336 2.131-.673 4.206-1.009 6.168l-.056.224c-3.645-.673-15.757-1.907-26.411 6.056 0 0-.168.112-.336.28-6.617 4.822-10.878 12.617-10.878 21.42 0 14.691 11.944 26.579 26.579 26.579 2.075 0 4.262-.28 6.841-.897 11.383-2.692 17.439-13.738 17.495-13.85l.056-.168c6.729-11.663 10.991-40.037 11.047-40.317 4.542-29.663 10.878-45.364 21.308-51.14 3.196-1.626 15.476-6.561 26.075 7.794-1.29-1.009-2.748-1.85-4.318-2.467-6.729-2.579-14.355-.224-19.794 5.383-.28.28-.617.617-.897.953-.112.056-.168.168-.28.28-.168.168-.28.336-.393.505-1.626 2.019-2.972 4.318-3.981 6.953h-.002z" fill-rule="nonzero" fill="#070001"/></svg>